<?xml version="1.0" encoding="UTF-8" standalone="yes"?><svg xmlns="http://www.w3.org/2000/svg" xmlns:xlink="http://www.w3.org/1999/xlink" height="460px" style="width:306px;height:460px;" version="1.1" viewBox="0 0 306 460" width="306px"><defs><filter height="300%" id="f1" width="300%" x="-1" y="-1"><feGaussianBlur result="blurOut" stdDeviation="2.0"/><feColorMatrix in="blurOut" result="blurOut2" type="matrix" values="0 0 0 0 0 0 0 0 0 0 0 0 0 0 0 0 0 0 .4 0"/><feOffset dx="4.0" dy="4.0" in="blurOut2" result="blurOut3"/><feBlend in="SourceGraphic" in2="blurOut3" mode="normal"/></filter></defs><g><a target="_top" xlink:href="urn:x-ericsson:r2:reg-doc:*-*:*:*#AxeDirectDataTransfer?title=class%20DirectDataTransferM" xlink:title="urn:x-ericsson:r2:reg-doc:*-*:*:*#AxeDirectDataTransfer?title=class%20DirectDataTransferM"><rect fill="#C7DDF0" filter="url(#f1)" height="23.9629" style="stroke: #6DA3D9; stroke-width: 1.5;" width="126" x="124" y="92"/><text fill="#000000" font-family="sans-serif" font-size="12" lengthAdjust="spacingAndGlyphs" textLength="120" x="127" y="108.4023">DirectDataTransferM</text></a><a target="_top" xlink:href="urn:x-ericsson:r2:reg-doc:*-*:*:*#AxeDirectDataTransfer?title=class%20DataSource" xlink:title="urn:x-ericsson:r2:reg-doc:*-*:*:*#AxeDirectDataTransfer?title=class%20DataSource"><rect fill="#C7DDF0" filter="url(#f1)" height="23.9629" style="stroke: #6DA3D9; stroke-width: 1.5;" width="71" x="151.75" y="176"/><text fill="#000000" font-family="sans-serif" font-size="12" lengthAdjust="spacingAndGlyphs" textLength="65" x="154.75" y="192.4023">DataSource</text></a><a target="_top" xlink:href="urn:x-ericsson:r2:reg-doc:*-*:*:*#AxeDirectDataTransfer?title=class%20DataSink" xlink:title="urn:x-ericsson:r2:reg-doc:*-*:*:*#AxeDirectDataTransfer?title=class%20DataSink"><rect fill="#C7DDF0" filter="url(#f1)" height="23.9629" style="stroke: #6DA3D9; stroke-width: 1.5;" width="56" x="101" y="260"/><text fill="#000000" font-family="sans-serif" font-size="12" lengthAdjust="spacingAndGlyphs" textLength="50" x="104" y="276.4023">DataSink</text></a><a target="_top" xlink:href="urn:x-ericsson:r2:reg-doc:*-*:*:*#AxeDirectDataTransfer?title=class%20TransferProgress" xlink:title="urn:x-ericsson:r2:reg-doc:*-*:*:*#AxeDirectDataTransfer?title=class%20TransferProgress"><rect fill="#C7DDF0" filter="url(#f1)" height="23.9629" style="stroke: #6DA3D9; stroke-width: 1.5;" width="105" x="192.75" y="260"/><text fill="#000000" font-family="sans-serif" font-size="12" lengthAdjust="spacingAndGlyphs" textLength="99" x="195.75" y="276.4023">TransferProgress</text></a><a target="_top" xlink:href="urn:x-ericsson:r2:reg-doc:*-*:*:*#AxeDirectDataTransfer?title=class%20BlockPeer" xlink:title="urn:x-ericsson:r2:reg-doc:*-*:*:*#AxeDirectDataTransfer?title=class%20BlockPeer"><rect fill="#C7DDF0" filter="url(#f1)" height="23.9629" style="stroke: #6DA3D9; stroke-width: 1.5;" width="62" x="6" y="344"/><text fill="#000000" font-family="sans-serif" font-size="12" lengthAdjust="spacingAndGlyphs" textLength="56" x="9" y="360.4023">BlockPeer</text></a><a target="_top" xlink:href="urn:x-ericsson:r2:reg-doc:*-*:*:*#AxeDirectDataTransfer?title=class%20FilePeer" xlink:title="urn:x-ericsson:r2:reg-doc:*-*:*:*#AxeDirectDataTransfer?title=class%20FilePeer"><rect fill="#C7DDF0" filter="url(#f1)" height="23.9629" style="stroke: #6DA3D9; stroke-width: 1.5;" width="51" x="103.75" y="344"/><text fill="#000000" font-family="sans-serif" font-size="12" lengthAdjust="spacingAndGlyphs" textLength="45" x="106.75" y="360.4023">FilePeer</text></a><a target="_top" xlink:href="urn:x-ericsson:r2:reg-doc:*-*:*:*#AxeDirectDataTransfer?title=class%20OutputFormat" xlink:title="urn:x-ericsson:r2:reg-doc:*-*:*:*#AxeDirectDataTransfer?title=class%20OutputFormat"><rect fill="#C7DDF0" filter="url(#f1)" height="23.9629" style="stroke: #6DA3D9; stroke-width: 1.5;" width="85" x="189.75" y="344"/><text fill="#000000" font-family="sans-serif" font-size="12" lengthAdjust="spacingAndGlyphs" textLength="79" x="192.75" y="360.4023">OutputFormat</text></a><a target="_top" xlink:href="urn:x-ericsson:r2:reg-doc:*-*:*:*#AxeDirectDataTransfer?title=class%20FileFormat" xlink:title="urn:x-ericsson:r2:reg-doc:*-*:*:*#AxeDirectDataTransfer?title=class%20FileFormat"><rect fill="#C7DDF0" filter="url(#f1)" height="23.9629" style="stroke: #6DA3D9; stroke-width: 1.5;" width="65" x="199.75" y="428"/><text fill="#000000" font-family="sans-serif" font-size="12" lengthAdjust="spacingAndGlyphs" textLength="59" x="202.75" y="444.4023">FileFormat</text></a><a target="_top" xlink:href="urn:x-ericsson:r2:reg-doc:*-*:*:*#AxeFunctions?title=class%20DataOutputHandling" xlink:title="urn:x-ericsson:r2:reg-doc:*-*:*:*#AxeFunctions?title=class%20DataOutputHandling"><rect fill="#C7DDF0" filter="url(#f1)" height="23.9629" style="stroke: #6DA3D9; stroke-width: 1.5;" width="123" x="125.75" y="8"/><text fill="#000000" font-family="sans-serif" font-size="12" lengthAdjust="spacingAndGlyphs" textLength="117" x="128.75" y="24.4023">DataOutputHandling</text></a><path d="M106.665,292.907 C88.7151,308.906 64.1582,330.794 49.5048,343.854 " fill="none" style="stroke: #808080; stroke-width: 1.0;"/><polygon fill="#808080" points="116.592,284.059,109.4514,285.0652,107.6339,292.0435,114.7744,291.0373,116.592,284.059" style="stroke: #808080; stroke-width: 1.0;"/><text fill="#000000" font-family="sans-serif" font-size="13" lengthAdjust="spacingAndGlyphs" textLength="24" x="24.3346" y="333.1376">0..2</text><path d="M129,297.319 C129,312.741 129,331.959 129,343.854 " fill="none" style="stroke: #808080; stroke-width: 1.0;"/><polygon fill="#808080" points="129,284.059,125,290.059,129,296.059,133,290.059,129,284.059" style="stroke: #808080; stroke-width: 1.0;"/><text fill="#000000" font-family="sans-serif" font-size="13" lengthAdjust="spacingAndGlyphs" textLength="24" x="99.4453" y="333.1376">0..2</text><path d="M153.161,292.235 C173.325,308.288 201.364,330.61 218,343.854 " fill="none" style="stroke: #808080; stroke-width: 1.0;"/><polygon fill="#808080" points="142.891,284.059,145.0939,290.9254,152.2794,291.5328,150.0765,284.6664,142.891,284.059" style="stroke: #808080; stroke-width: 1.0;"/><text fill="#000000" font-family="sans-serif" font-size="13" lengthAdjust="spacingAndGlyphs" textLength="8" x="202.3828" y="333.1376">1</text><path d="M232,381.3188 C232,396.7407 232,415.9588 232,427.8544 " fill="none" style="stroke: #808080; stroke-width: 1.0;"/><polygon fill="#808080" points="232,368.0589,228,374.0589,232,380.0589,236,374.0589,232,368.0589" style="stroke: #808080; stroke-width: 1.0;"/><text fill="#000000" font-family="sans-serif" font-size="13" lengthAdjust="spacingAndGlyphs" textLength="24" x="202.4453" y="417.1381">0..1</text><path d="M202.537,210.966 C213.694,226.74 228.269,247.346 237.117,259.854 " fill="none" style="stroke: #808080; stroke-width: 1.0;"/><polygon fill="#808080" points="194.822,200.059,195.0213,207.2673,201.7519,209.8558,201.5525,202.6474,194.822,200.059" style="stroke: #808080; stroke-width: 1.0;"/><text fill="#000000" font-family="sans-serif" font-size="13" lengthAdjust="spacingAndGlyphs" textLength="6" x="225.9463" y="249.1376">*</text><path d="M187,129.319 C187,144.741 187,163.959 187,175.854 " fill="none" style="stroke: #808080; stroke-width: 1.0;"/><polygon fill="#808080" points="187,116.059,183,122.059,187,128.059,191,122.059,187,116.059" style="stroke: #808080; stroke-width: 1.0;"/><text fill="#000000" font-family="sans-serif" font-size="13" lengthAdjust="spacingAndGlyphs" textLength="24" x="157.4453" y="165.1376">0..2</text><path d="M171.463,210.966 C160.306,226.74 145.731,247.346 136.883,259.854 " fill="none" style="stroke: #808080; stroke-width: 1.0;"/><polygon fill="#808080" points="179.178,200.059,172.4475,202.6474,172.2481,209.8558,178.9787,207.2673,179.178,200.059" style="stroke: #808080; stroke-width: 1.0;"/><text fill="#000000" font-family="sans-serif" font-size="13" lengthAdjust="spacingAndGlyphs" textLength="24" x="110.124" y="249.1376">0..1</text><path d="M187,45.319 C187,60.741 187,79.959 187,91.854 " fill="none" style="stroke: #808080; stroke-width: 1.0;"/><polygon fill="#808080" points="187,32.059,183,38.059,187,44.059,191,38.059,187,32.059" style="stroke: #808080; stroke-width: 1.0;"/><text fill="#000000" font-family="sans-serif" font-size="13" lengthAdjust="spacingAndGlyphs" textLength="8" x="176.2813" y="81.1376">1</text></g></svg>