<?xml version="1.0" encoding="UTF-8" standalone="yes"?><svg xmlns="http://www.w3.org/2000/svg" xmlns:xlink="http://www.w3.org/1999/xlink" height="460px" style="width:219px;height:460px;" version="1.1" viewBox="0 0 219 460" width="219px"><defs><filter height="300%" id="f1" width="300%" x="-1" y="-1"><feGaussianBlur result="blurOut" stdDeviation="2.0"/><feColorMatrix in="blurOut" result="blurOut2" type="matrix" values="0 0 0 0 0 0 0 0 0 0 0 0 0 0 0 0 0 0 .4 0"/><feOffset dx="4.0" dy="4.0" in="blurOut2" result="blurOut3"/><feBlend in="SourceGraphic" in2="blurOut3" mode="normal"/></filter></defs><g><a target="_top" xlink:href="urn:x-ericsson:r2:reg-doc:*-*:*:*#AxeDataRecord?title=class%20DataRecordM" xlink:title="urn:x-ericsson:r2:reg-doc:*-*:*:*#AxeDataRecord?title=class%20DataRecordM"><rect fill="#C7DDF0" filter="url(#f1)" height="23.9629" style="stroke: #6DA3D9; stroke-width: 1.5;" width="84" x="69" y="92"/><text fill="#000000" font-family="sans-serif" font-size="12" lengthAdjust="spacingAndGlyphs" textLength="78" x="72" y="108.4023">DataRecordM</text></a><a target="_top" xlink:href="urn:x-ericsson:r2:reg-doc:*-*:*:*#AxeDataRecord?title=class%20BlockBasedJob" xlink:title="urn:x-ericsson:r2:reg-doc:*-*:*:*#AxeDataRecord?title=class%20BlockBasedJob"><rect fill="#C7DDF0" filter="url(#f1)" height="23.9629" style="stroke: #6DA3D9; stroke-width: 1.5;" width="90" x="6" y="260"/><text fill="#000000" font-family="sans-serif" font-size="12" lengthAdjust="spacingAndGlyphs" textLength="84" x="9" y="276.4023">BlockBasedJob</text></a><a target="_top" xlink:href="urn:x-ericsson:r2:reg-doc:*-*:*:*#AxeDataRecord?title=class%20FileBasedJob" xlink:title="urn:x-ericsson:r2:reg-doc:*-*:*:*#AxeDataRecord?title=class%20FileBasedJob"><rect fill="#C7DDF0" filter="url(#f1)" height="23.9629" style="stroke: #6DA3D9; stroke-width: 1.5;" width="79" x="131.75" y="260"/><text fill="#000000" font-family="sans-serif" font-size="12" lengthAdjust="spacingAndGlyphs" textLength="73" x="134.75" y="276.4023">FileBasedJob</text></a><a target="_top" xlink:href="urn:x-ericsson:r2:reg-doc:*-*:*:*#AxeDataRecord?title=class%20StatisticsInfo" xlink:title="urn:x-ericsson:r2:reg-doc:*-*:*:*#AxeDataRecord?title=class%20StatisticsInfo"><rect fill="#C7DDF0" filter="url(#f1)" height="23.9629" style="stroke: #6DA3D9; stroke-width: 1.5;" width="76" x="73" y="344"/><text fill="#000000" font-family="sans-serif" font-size="12" lengthAdjust="spacingAndGlyphs" textLength="70" x="76" y="360.4023">StatisticsInfo</text></a><a target="_top" xlink:href="urn:x-ericsson:r2:reg-doc:*-*:*:*#AxeDataRecord?title=class%20CPStatisticsInfo" xlink:title="urn:x-ericsson:r2:reg-doc:*-*:*:*#AxeDataRecord?title=class%20CPStatisticsInfo"><rect fill="#C7DDF0" filter="url(#f1)" height="23.9629" style="stroke: #6DA3D9; stroke-width: 1.5;" width="91" x="65.75" y="428"/><text fill="#000000" font-family="sans-serif" font-size="12" lengthAdjust="spacingAndGlyphs" textLength="85" x="68.75" y="444.4023">CPStatisticsInfo</text></a><a target="_top" xlink:href="urn:x-ericsson:r2:reg-doc:*-*:*:*#AxeDataRecord?title=class%20MessageStore" xlink:title="urn:x-ericsson:r2:reg-doc:*-*:*:*#AxeDataRecord?title=class%20MessageStore"><rect fill="#C7DDF0" filter="url(#f1)" height="23.9629" style="stroke: #6DA3D9; stroke-width: 1.5;" width="85" x="68.75" y="176"/><text fill="#000000" font-family="sans-serif" font-size="12" lengthAdjust="spacingAndGlyphs" textLength="79" x="71.75" y="192.4023">MessageStore</text></a><a target="_top" xlink:href="urn:x-ericsson:r2:reg-doc:*-*:*:*#AxeFunctions?title=class%20DataOutputHandling" xlink:title="urn:x-ericsson:r2:reg-doc:*-*:*:*#AxeFunctions?title=class%20DataOutputHandling"><rect fill="#C7DDF0" filter="url(#f1)" height="23.9629" style="stroke: #6DA3D9; stroke-width: 1.5;" width="123" x="49.75" y="8"/><text fill="#000000" font-family="sans-serif" font-size="12" lengthAdjust="spacingAndGlyphs" textLength="117" x="52.75" y="24.4023">DataOutputHandling</text></a><path d="M111,381.3188 C111,396.7407 111,415.9588 111,427.8544 " fill="none" style="stroke: #808080; stroke-width: 1.0;"/><polygon fill="#808080" points="111,368.0589,107,374.0589,111,380.0589,115,374.0589,111,368.0589" style="stroke: #808080; stroke-width: 1.0;"/><text fill="#000000" font-family="sans-serif" font-size="13" lengthAdjust="spacingAndGlyphs" textLength="32" x="72.0703" y="417.1381">1..64</text><path d="M111,129.319 C111,144.741 111,163.959 111,175.854 " fill="none" style="stroke: #808080; stroke-width: 1.0;"/><polygon fill="#808080" points="111,116.059,107,122.059,111,128.059,115,122.059,111,116.059" style="stroke: #808080; stroke-width: 1.0;"/><text fill="#000000" font-family="sans-serif" font-size="13" lengthAdjust="spacingAndGlyphs" textLength="8" x="100.1953" y="165.1376">8</text><path d="M127.072,210.966 C138.615,226.74 153.692,247.346 162.845,259.854 " fill="none" style="stroke: #808080; stroke-width: 1.0;"/><polygon fill="#808080" points="119.092,200.059,119.4072,207.2632,126.1784,209.7431,125.8633,202.5389,119.092,200.059" style="stroke: #808080; stroke-width: 1.0;"/><text fill="#000000" font-family="sans-serif" font-size="13" lengthAdjust="spacingAndGlyphs" textLength="24" x="130.487" y="249.1376">0..1</text><path d="M94.9275,210.966 C83.3853,226.74 68.3081,247.346 59.1553,259.854 " fill="none" style="stroke: #808080; stroke-width: 1.0;"/><polygon fill="#808080" points="102.9081,200.059,96.1368,202.5389,95.8217,209.7431,102.5929,207.2632,102.9081,200.059" style="stroke: #808080; stroke-width: 1.0;"/><text fill="#000000" font-family="sans-serif" font-size="13" lengthAdjust="spacingAndGlyphs" textLength="24" x="32.4899" y="249.1376">0..1</text><path d="M67.0725,294.966 C78.6147,310.74 93.6919,331.346 102.8447,343.854 " fill="none" style="stroke: #808080; stroke-width: 1.0;"/><polygon fill="#808080" points="59.0919,284.059,59.4071,291.2632,66.1783,293.7431,65.8632,286.5389,59.0919,284.059" style="stroke: #808080; stroke-width: 1.0;"/><text fill="#000000" font-family="sans-serif" font-size="13" lengthAdjust="spacingAndGlyphs" textLength="24" x="70.5726" y="333.1376">0..1</text><path d="M154.928,294.966 C143.385,310.74 128.308,331.346 119.155,343.854 " fill="none" style="stroke: #808080; stroke-width: 1.0;"/><polygon fill="#808080" points="162.908,284.059,156.1367,286.5389,155.8216,293.7431,162.5928,291.2632,162.908,284.059" style="stroke: #808080; stroke-width: 1.0;"/><text fill="#000000" font-family="sans-serif" font-size="13" lengthAdjust="spacingAndGlyphs" textLength="24" x="126.0833" y="333.1376">0..1</text><path d="M111,45.319 C111,60.741 111,79.959 111,91.854 " fill="none" style="stroke: #808080; stroke-width: 1.0;"/><polygon fill="#808080" points="111,32.059,107,38.059,111,44.059,115,38.059,111,32.059" style="stroke: #808080; stroke-width: 1.0;"/><text fill="#000000" font-family="sans-serif" font-size="13" lengthAdjust="spacingAndGlyphs" textLength="8" x="100.2813" y="81.1376">1</text></g></svg>