<?xml version="1.0" encoding="UTF-8" standalone="yes"?><svg xmlns="http://www.w3.org/2000/svg" xmlns:xlink="http://www.w3.org/1999/xlink" height="376px" style="width:2074px;height:376px;" version="1.1" viewBox="0 0 2074 376" width="2074px"><defs><filter height="300%" id="f1" width="300%" x="-1" y="-1"><feGaussianBlur result="blurOut" stdDeviation="2.0"/><feColorMatrix in="blurOut" result="blurOut2" type="matrix" values="0 0 0 0 0 0 0 0 0 0 0 0 0 0 0 0 0 0 .4 0"/><feOffset dx="4.0" dy="4.0" in="blurOut2" result="blurOut3"/><feBlend in="SourceGraphic" in2="blurOut3" mode="normal"/></filter></defs><g><a target="_top" xlink:href="urn:x-ericsson:r2:reg-doc:*-*:*:*#AxeDataTransfer?title=class%20PrimaryInitiatingDestination" xlink:title="urn:x-ericsson:r2:reg-doc:*-*:*:*#AxeDataTransfer?title=class%20PrimaryInitiatingDestination"><rect fill="#C7DDF0" filter="url(#f1)" height="23.9629" style="stroke: #6DA3D9; stroke-width: 1.5;" width="162" x="230.25" y="344"/><text fill="#000000" font-family="sans-serif" font-size="12" lengthAdjust="spacingAndGlyphs" textLength="156" x="233.25" y="360.4023">PrimaryInitiatingDestination</text></a><a target="_top" xlink:href="urn:x-ericsson:r2:reg-doc:*-*:*:*#AxeDataTransfer?title=class%20DataTransferM" xlink:title="urn:x-ericsson:r2:reg-doc:*-*:*:*#AxeDataTransfer?title=class%20DataTransferM"><rect fill="#C7DDF0" filter="url(#f1)" height="23.9629" style="stroke: #6DA3D9; stroke-width: 1.5;" width="92" x="994.25" y="92"/><text fill="#000000" font-family="sans-serif" font-size="12" lengthAdjust="spacingAndGlyphs" textLength="86" x="997.25" y="108.4023">DataTransferM</text></a><a target="_top" xlink:href="urn:x-ericsson:r2:reg-doc:*-*:*:*#AxeDataTransfer?title=class%20FileTransferManager" xlink:title="urn:x-ericsson:r2:reg-doc:*-*:*:*#AxeDataTransfer?title=class%20FileTransferManager"><rect fill="#C7DDF0" filter="url(#f1)" height="23.9629" style="stroke: #6DA3D9; stroke-width: 1.5;" width="124" x="780.25" y="176"/><text fill="#000000" font-family="sans-serif" font-size="12" lengthAdjust="spacingAndGlyphs" textLength="118" x="783.25" y="192.4023">FileTransferManager</text></a><a target="_top" xlink:href="urn:x-ericsson:r2:reg-doc:*-*:*:*#AxeDataTransfer?title=class%20FileTransferQueue" xlink:title="urn:x-ericsson:r2:reg-doc:*-*:*:*#AxeDataTransfer?title=class%20FileTransferQueue"><rect fill="#C7DDF0" filter="url(#f1)" height="23.9629" style="stroke: #6DA3D9; stroke-width: 1.5;" width="111" x="174" y="260"/><text fill="#000000" font-family="sans-serif" font-size="12" lengthAdjust="spacingAndGlyphs" textLength="105" x="177" y="276.4023">FileTransferQueue</text></a><a target="_top" xlink:href="urn:x-ericsson:r2:reg-doc:*-*:*:*#AxeDataTransfer?title=class%20AdvancedFileTransferQueueInfo" xlink:title="urn:x-ericsson:r2:reg-doc:*-*:*:*#AxeDataTransfer?title=class%20AdvancedFileTransferQueueInfo"><rect fill="#C7DDF0" filter="url(#f1)" height="23.9629" style="stroke: #6DA3D9; stroke-width: 1.5;" width="189" x="6" y="344"/><text fill="#000000" font-family="sans-serif" font-size="12" lengthAdjust="spacingAndGlyphs" textLength="183" x="9" y="360.4023">AdvancedFileTransferQueueInfo</text></a><a target="_top" xlink:href="urn:x-ericsson:r2:reg-doc:*-*:*:*#AxeDataTransfer?title=class%20AdvancedInitiatingParameters" xlink:title="urn:x-ericsson:r2:reg-doc:*-*:*:*#AxeDataTransfer?title=class%20AdvancedInitiatingParameters"><rect fill="#C7DDF0" filter="url(#f1)" height="23.9629" style="stroke: #6DA3D9; stroke-width: 1.5;" width="177" x="428" y="344"/><text fill="#000000" font-family="sans-serif" font-size="12" lengthAdjust="spacingAndGlyphs" textLength="171" x="431" y="360.4023">AdvancedInitiatingParameters</text></a><a target="_top" xlink:href="urn:x-ericsson:r2:reg-doc:*-*:*:*#AxeDataTransfer?title=class%20SecondaryInitiatingDestination" xlink:title="urn:x-ericsson:r2:reg-doc:*-*:*:*#AxeDataTransfer?title=class%20SecondaryInitiatingDestination"><rect fill="#C7DDF0" filter="url(#f1)" height="23.9629" style="stroke: #6DA3D9; stroke-width: 1.5;" width="177" x="640" y="344"/><text fill="#000000" font-family="sans-serif" font-size="12" lengthAdjust="spacingAndGlyphs" textLength="171" x="643" y="360.4023">SecondaryInitiatingDestination</text></a><a target="_top" xlink:href="urn:x-ericsson:r2:reg-doc:*-*:*:*#AxeDataTransfer?title=class%20InitiatingDestinationSet" xlink:title="urn:x-ericsson:r2:reg-doc:*-*:*:*#AxeDataTransfer?title=class%20InitiatingDestinationSet"><rect fill="#C7DDF0" filter="url(#f1)" height="23.9629" style="stroke: #6DA3D9; stroke-width: 1.5;" width="135" x="555" y="260"/><text fill="#000000" font-family="sans-serif" font-size="12" lengthAdjust="spacingAndGlyphs" textLength="129" x="558" y="276.4023">InitiatingDestinationSet</text></a><a target="_top" xlink:href="urn:x-ericsson:r2:reg-doc:*-*:*:*#AxeDataTransfer?title=class%20RespondingDestinationSet" xlink:title="urn:x-ericsson:r2:reg-doc:*-*:*:*#AxeDataTransfer?title=class%20RespondingDestinationSet"><rect fill="#C7DDF0" filter="url(#f1)" height="23.9629" style="stroke: #6DA3D9; stroke-width: 1.5;" width="155" x="985" y="260"/><text fill="#000000" font-family="sans-serif" font-size="12" lengthAdjust="spacingAndGlyphs" textLength="149" x="988" y="276.4023">RespondingDestinationSet</text></a><a target="_top" xlink:href="urn:x-ericsson:r2:reg-doc:*-*:*:*#AxeDataTransfer?title=class%20AdvancedRespondingParameters" xlink:title="urn:x-ericsson:r2:reg-doc:*-*:*:*#AxeDataTransfer?title=class%20AdvancedRespondingParameters"><rect fill="#C7DDF0" filter="url(#f1)" height="23.9629" style="stroke: #6DA3D9; stroke-width: 1.5;" width="197" x="852" y="344"/><text fill="#000000" font-family="sans-serif" font-size="12" lengthAdjust="spacingAndGlyphs" textLength="191" x="855" y="360.4023">AdvancedRespondingParameters</text></a><a target="_top" xlink:href="urn:x-ericsson:r2:reg-doc:*-*:*:*#AxeDataTransfer?title=class%20PrimaryRespondingDestination" xlink:title="urn:x-ericsson:r2:reg-doc:*-*:*:*#AxeDataTransfer?title=class%20PrimaryRespondingDestination"><rect fill="#C7DDF0" filter="url(#f1)" height="23.9629" style="stroke: #6DA3D9; stroke-width: 1.5;" width="182" x="1084.25" y="344"/><text fill="#000000" font-family="sans-serif" font-size="12" lengthAdjust="spacingAndGlyphs" textLength="176" x="1087.25" y="360.4023">PrimaryRespondingDestination</text></a><a target="_top" xlink:href="urn:x-ericsson:r2:reg-doc:*-*:*:*#AxeDataTransfer?title=class%20BlockTransferManager" xlink:title="urn:x-ericsson:r2:reg-doc:*-*:*:*#AxeDataTransfer?title=class%20BlockTransferManager"><rect fill="#C7DDF0" filter="url(#f1)" height="23.9629" style="stroke: #6DA3D9; stroke-width: 1.5;" width="135" x="1332" y="176"/><text fill="#000000" font-family="sans-serif" font-size="12" lengthAdjust="spacingAndGlyphs" textLength="129" x="1335" y="192.4023">BlockTransferManager</text></a><a target="_top" xlink:href="urn:x-ericsson:r2:reg-doc:*-*:*:*#AxeDataTransfer?title=class%20BlockTransferQueue" xlink:title="urn:x-ericsson:r2:reg-doc:*-*:*:*#AxeDataTransfer?title=class%20BlockTransferQueue"><rect fill="#C7DDF0" filter="url(#f1)" height="23.9629" style="stroke: #6DA3D9; stroke-width: 1.5;" width="122" x="1338.25" y="260"/><text fill="#000000" font-family="sans-serif" font-size="12" lengthAdjust="spacingAndGlyphs" textLength="116" x="1341.25" y="276.4023">BlockTransferQueue</text></a><a target="_top" xlink:href="urn:x-ericsson:r2:reg-doc:*-*:*:*#AxeDataTransfer?title=class%20BlockDestinationSet" xlink:title="urn:x-ericsson:r2:reg-doc:*-*:*:*#AxeDataTransfer?title=class%20BlockDestinationSet"><rect fill="#C7DDF0" filter="url(#f1)" height="23.9629" style="stroke: #6DA3D9; stroke-width: 1.5;" width="117" x="1641" y="260"/><text fill="#000000" font-family="sans-serif" font-size="12" lengthAdjust="spacingAndGlyphs" textLength="111" x="1644" y="276.4023">BlockDestinationSet</text></a><a target="_top" xlink:href="urn:x-ericsson:r2:reg-doc:*-*:*:*#AxeDataTransfer?title=class%20PrimaryBlockDestination" xlink:title="urn:x-ericsson:r2:reg-doc:*-*:*:*#AxeDataTransfer?title=class%20PrimaryBlockDestination"><rect fill="#C7DDF0" filter="url(#f1)" height="23.9629" style="stroke: #6DA3D9; stroke-width: 1.5;" width="144" x="1534.25" y="344"/><text fill="#000000" font-family="sans-serif" font-size="12" lengthAdjust="spacingAndGlyphs" textLength="138" x="1537.25" y="360.4023">PrimaryBlockDestination</text></a><a target="_top" xlink:href="urn:x-ericsson:r2:reg-doc:*-*:*:*#AxeDataTransfer?title=class%20AdvancedBlockDestSetInfo" xlink:title="urn:x-ericsson:r2:reg-doc:*-*:*:*#AxeDataTransfer?title=class%20AdvancedBlockDestSetInfo"><rect fill="#C7DDF0" filter="url(#f1)" height="23.9629" style="stroke: #6DA3D9; stroke-width: 1.5;" width="157" x="1714" y="344"/><text fill="#000000" font-family="sans-serif" font-size="12" lengthAdjust="spacingAndGlyphs" textLength="151" x="1717" y="360.4023">AdvancedBlockDestSetInfo</text></a><a target="_top" xlink:href="urn:x-ericsson:r2:reg-doc:*-*:*:*#AxeDataTransfer?title=class%20SecondaryRespondingDestination" xlink:title="urn:x-ericsson:r2:reg-doc:*-*:*:*#AxeDataTransfer?title=class%20SecondaryRespondingDestination"><rect fill="#C7DDF0" filter="url(#f1)" height="23.9629" style="stroke: #6DA3D9; stroke-width: 1.5;" width="197" x="1302" y="344"/><text fill="#000000" font-family="sans-serif" font-size="12" lengthAdjust="spacingAndGlyphs" textLength="191" x="1305" y="360.4023">SecondaryRespondingDestination</text></a><a target="_top" xlink:href="urn:x-ericsson:r2:reg-doc:*-*:*:*#AxeDataTransfer?title=class%20SecondaryBlockDestination" xlink:title="urn:x-ericsson:r2:reg-doc:*-*:*:*#AxeDataTransfer?title=class%20SecondaryBlockDestination"><rect fill="#C7DDF0" filter="url(#f1)" height="23.9629" style="stroke: #6DA3D9; stroke-width: 1.5;" width="159" x="1906" y="344"/><text fill="#000000" font-family="sans-serif" font-size="12" lengthAdjust="spacingAndGlyphs" textLength="153" x="1909" y="360.4023">SecondaryBlockDestination</text></a><a target="_top" xlink:href="urn:x-ericsson:r2:reg-doc:*-*:*:*#AxeFunctions?title=class%20DataOutputHandling" xlink:title="urn:x-ericsson:r2:reg-doc:*-*:*:*#AxeFunctions?title=class%20DataOutputHandling"><rect fill="#C7DDF0" filter="url(#f1)" height="23.9629" style="stroke: #6DA3D9; stroke-width: 1.5;" width="123" x="979" y="8"/><text fill="#000000" font-family="sans-serif" font-size="12" lengthAdjust="spacingAndGlyphs" textLength="117" x="982" y="24.4023">DataOutputHandling</text></a><path d="M647.115,292.2348 C667.866,308.2878 696.721,330.6098 713.842,343.8544 " fill="none" style="stroke: #808080; stroke-width: 1.0;"/><polygon fill="#808080" points="636.546,284.0589,638.8443,290.894,646.0375,291.4013,643.7392,284.5663,636.546,284.0589" style="stroke: #808080; stroke-width: 1.0;"/><text fill="#000000" font-family="sans-serif" font-size="13" lengthAdjust="spacingAndGlyphs" textLength="24" x="679.3346" y="333.1381">0..1</text><path d="M766.955,199.072 C642.152,215.767 395.261,248.793 284.866,263.56 " fill="none" style="stroke: #808080; stroke-width: 1.0;"/><polygon fill="#808080" points="780.099,197.314,773.6214,194.1452,768.205,198.9058,774.6826,202.0745,780.099,197.314" style="stroke: #808080; stroke-width: 1.0;"/><text fill="#000000" font-family="sans-serif" font-size="13" lengthAdjust="spacingAndGlyphs" textLength="32" x="293.1177" y="257.9633">0..70</text><path d="M800.165,204.686 C756.696,220.888 689.982,245.755 651.801,259.986 " fill="none" style="stroke: #808080; stroke-width: 1.0;"/><polygon fill="#808080" points="812.58,200.059,805.5607,198.407,801.336,204.2509,808.3553,205.903,812.58,200.059" style="stroke: #808080; stroke-width: 1.0;"/><text fill="#000000" font-family="sans-serif" font-size="13" lengthAdjust="spacingAndGlyphs" textLength="32" x="623.0295" y="249.315">0..70</text><path d="M200.728,291.1303 C175.37,307.2495 139.102,330.3032 117.784,343.8544 " fill="none" style="stroke: #808080; stroke-width: 1.0;"/><polygon fill="#808080" points="211.852,284.0589,204.6426,283.9021,201.725,290.4966,208.9344,290.6534,211.852,284.0589" style="stroke: #808080; stroke-width: 1.0;"/><text fill="#000000" font-family="sans-serif" font-size="13" lengthAdjust="spacingAndGlyphs" textLength="8" x="113.0066" y="333.1381">1</text><path d="M884.335,204.686 C927.804,220.888 994.518,245.755 1032.7,259.986 " fill="none" style="stroke: #808080; stroke-width: 1.0;"/><polygon fill="#808080" points="871.92,200.059,876.1447,205.903,883.164,204.2509,878.9393,198.407,871.92,200.059" style="stroke: #808080; stroke-width: 1.0;"/><text fill="#000000" font-family="sans-serif" font-size="13" lengthAdjust="spacingAndGlyphs" textLength="32" x="983.6112" y="249.315">0..70</text><path d="M1088.14,291.7905 C1110.31,307.8737 1141.47,330.4872 1159.89,343.8544 " fill="none" style="stroke: #808080; stroke-width: 1.0;"/><polygon fill="#808080" points="1077.49,284.0589,1079.9997,290.8192,1087.2052,291.1027,1084.6955,284.3424,1077.49,284.0589" style="stroke: #808080; stroke-width: 1.0;"/><text fill="#000000" font-family="sans-serif" font-size="13" lengthAdjust="spacingAndGlyphs" textLength="8" x="1143.8913" y="333.1381">1</text><path d="M1099.45,118.522 C1169.78,134.587 1285.77,161.08 1350.94,175.965 " fill="none" style="stroke: #808080; stroke-width: 1.0;"/><polygon fill="#808080" points="1086.45,115.552,1091.4123,120.7842,1098.1506,118.216,1093.1883,112.9838,1086.45,115.552" style="stroke: #808080; stroke-width: 1.0;"/><text fill="#000000" font-family="sans-serif" font-size="13" lengthAdjust="spacingAndGlyphs" textLength="8" x="1323.5288" y="165.2867">1</text><path d="M1001.359,121.106 C962.22,137.315 902.913,161.877 868.846,175.986 " fill="none" style="stroke: #808080; stroke-width: 1.0;"/><polygon fill="#808080" points="1013.55,116.059,1006.4761,114.6591,1002.4631,120.6504,1009.537,122.0503,1013.55,116.059" style="stroke: #808080; stroke-width: 1.0;"/><text fill="#000000" font-family="sans-serif" font-size="13" lengthAdjust="spacingAndGlyphs" textLength="8" x="867.2696" y="165.315">1</text><path d="M1399.25,213.319 C1399.25,228.741 1399.25,247.959 1399.25,259.854 " fill="none" style="stroke: #808080; stroke-width: 1.0;"/><polygon fill="#808080" points="1399.25,200.059,1395.25,206.059,1399.25,212.059,1403.25,206.059,1399.25,200.059" style="stroke: #808080; stroke-width: 1.0;"/><text fill="#000000" font-family="sans-serif" font-size="13" lengthAdjust="spacingAndGlyphs" textLength="32" x="1360.4063" y="249.1376">0..30</text><path d="M1452.49,203.551 C1511.59,219.706 1605.66,245.418 1658.95,259.986 " fill="none" style="stroke: #808080; stroke-width: 1.0;"/><polygon fill="#808080" points="1439.71,200.059,1444.4427,205.4998,1451.2852,203.2238,1446.5525,197.783,1439.71,200.059" style="stroke: #808080; stroke-width: 1.0;"/><text fill="#000000" font-family="sans-serif" font-size="13" lengthAdjust="spacingAndGlyphs" textLength="32" x="1606.1672" y="249.315">0..30</text><path d="M1676.93,292.6823 C1658.76,308.7004 1633.77,330.7324 1618.89,343.8544 " fill="none" style="stroke: #808080; stroke-width: 1.0;"/><polygon fill="#808080" points="1686.71,284.0589,1679.5643,285.0277,1677.7102,291.9964,1684.8559,291.0276,1686.71,284.0589" style="stroke: #808080; stroke-width: 1.0;"/><text fill="#000000" font-family="sans-serif" font-size="13" lengthAdjust="spacingAndGlyphs" textLength="8" x="1612.5163" y="333.1381">1</text><path d="M597.385,292.2348 C576.634,308.2878 547.779,330.6098 530.658,343.8544 " fill="none" style="stroke: #808080; stroke-width: 1.0;"/><polygon fill="#808080" points="607.954,284.0589,600.7608,284.5663,598.4625,291.4013,605.6557,290.894,607.954,284.0589" style="stroke: #808080; stroke-width: 1.0;"/><text fill="#000000" font-family="sans-serif" font-size="13" lengthAdjust="spacingAndGlyphs" textLength="8" x="524.8061" y="333.1381">1</text><path d="M1036.58,291.7905 C1014.62,307.8737 983.731,330.4872 965.473,343.8544 " fill="none" style="stroke: #808080; stroke-width: 1.0;"/><polygon fill="#808080" points="1047.15,284.0589,1039.9457,284.3722,1037.464,291.1428,1044.6683,290.8295,1047.15,284.0589" style="stroke: #808080; stroke-width: 1.0;"/><text fill="#000000" font-family="sans-serif" font-size="13" lengthAdjust="spacingAndGlyphs" textLength="8" x="959.9012" y="333.1381">1</text><path d="M1721.57,292.6823 C1739.74,308.7004 1764.73,330.7324 1779.61,343.8544 " fill="none" style="stroke: #808080; stroke-width: 1.0;"/><polygon fill="#808080" points="1711.79,284.0589,1713.6441,291.0276,1720.7898,291.9964,1718.9357,285.0277,1711.79,284.0589" style="stroke: #808080; stroke-width: 1.0;"/><text fill="#000000" font-family="sans-serif" font-size="13" lengthAdjust="spacingAndGlyphs" textLength="8" x="1764.4603" y="333.1381">1</text><path d="M567.447,287.4496 C506.202,303.5977 408.391,329.3873 353.024,343.9857 " fill="none" style="stroke: #808080; stroke-width: 1.0;"/><polygon fill="#808080" points="580.307,284.0589,573.4855,281.7207,568.7035,287.1182,575.525,289.4564,580.307,284.0589" style="stroke: #808080; stroke-width: 1.0;"/><text fill="#000000" font-family="sans-serif" font-size="13" lengthAdjust="spacingAndGlyphs" textLength="8" x="356.6651" y="333.3146">1</text><path d="M1120.56,287.146 C1187.03,303.2729 1294.3,329.2955 1354.85,343.9857 " fill="none" style="stroke: #808080; stroke-width: 1.0;"/><polygon fill="#808080" points="1107.83,284.0589,1112.7152,289.3631,1119.4903,286.8938,1114.6051,281.5895,1107.83,284.0589" style="stroke: #808080; stroke-width: 1.0;"/><text fill="#000000" font-family="sans-serif" font-size="13" lengthAdjust="spacingAndGlyphs" textLength="24" x="1309.6891" y="333.3146">0..1</text><path d="M1750.36,287.6532 C1806.72,303.8138 1896.13,329.4485 1946.83,343.9857 " fill="none" style="stroke: #808080; stroke-width: 1.0;"/><polygon fill="#808080" points="1737.82,284.0589,1742.4841,289.5586,1749.3546,287.3686,1744.6905,281.8689,1737.82,284.0589" style="stroke: #808080; stroke-width: 1.0;"/><text fill="#000000" font-family="sans-serif" font-size="13" lengthAdjust="spacingAndGlyphs" textLength="24" x="1904.0684" y="333.3146">0..1</text><path d="M1040.25,45.319 C1040.25,60.741 1040.25,79.959 1040.25,91.854 " fill="none" style="stroke: #808080; stroke-width: 1.0;"/><polygon fill="#808080" points="1040.25,32.059,1036.25,38.059,1040.25,44.059,1044.25,38.059,1040.25,32.059" style="stroke: #808080; stroke-width: 1.0;"/><text fill="#000000" font-family="sans-serif" font-size="13" lengthAdjust="spacingAndGlyphs" textLength="8" x="1029.5313" y="81.1376">1</text></g></svg>