<?xml version="1.0" encoding="UTF-8" standalone="yes"?><svg xmlns="http://www.w3.org/2000/svg" xmlns:xlink="http://www.w3.org/1999/xlink" height="544px" style="width:701px;height:544px;" version="1.1" viewBox="0 0 701 544" width="701px"><defs><filter height="300%" id="f1" width="300%" x="-1" y="-1"><feGaussianBlur result="blurOut" stdDeviation="2.0"/><feColorMatrix in="blurOut" result="blurOut2" type="matrix" values="0 0 0 0 0 0 0 0 0 0 0 0 0 0 0 0 0 0 .4 0"/><feOffset dx="4.0" dy="4.0" in="blurOut2" result="blurOut3"/><feBlend in="SourceGraphic" in2="blurOut3" mode="normal"/></filter></defs><g><a target="_top" xlink:href="urn:x-ericsson:r2:reg-doc:*-*:*:*#AxeEquipment?title=class%20Apg" xlink:title="urn:x-ericsson:r2:reg-doc:*-*:*:*#AxeEquipment?title=class%20Apg"><rect fill="#C7DDF0" filter="url(#f1)" height="23.9629" style="stroke: #6DA3D9; stroke-width: 1.5;" width="29" x="65.5" y="260"/><text fill="#000000" font-family="sans-serif" font-size="12" lengthAdjust="spacingAndGlyphs" textLength="23" x="68.5" y="276.4023">Apg</text></a><a target="_top" xlink:href="urn:x-ericsson:r2:reg-doc:*-*:*:*#AxeEquipment?title=class%20ApBlade" xlink:title="urn:x-ericsson:r2:reg-doc:*-*:*:*#AxeEquipment?title=class%20ApBlade"><rect fill="#C7DDF0" filter="url(#f1)" height="23.9629" style="stroke: #6DA3D9; stroke-width: 1.5;" width="54" x="18" y="344"/><text fill="#000000" font-family="sans-serif" font-size="12" lengthAdjust="spacingAndGlyphs" textLength="48" x="21" y="360.4023">ApBlade</text></a><a target="_top" xlink:href="urn:x-ericsson:r2:reg-doc:*-*:*:*#AxeEquipment?title=class%20ApBladeInfo" xlink:title="urn:x-ericsson:r2:reg-doc:*-*:*:*#AxeEquipment?title=class%20ApBladeInfo"><rect fill="#C7DDF0" filter="url(#f1)" height="23.9629" style="stroke: #6DA3D9; stroke-width: 1.5;" width="75" x="7.5" y="428"/><text fill="#000000" font-family="sans-serif" font-size="12" lengthAdjust="spacingAndGlyphs" textLength="69" x="10.5" y="444.4023">ApBladeInfo</text></a><a target="_top" xlink:href="urn:x-ericsson:r2:reg-doc:*-*:*:*#AxeEquipment?title=class%20EquipmentM" xlink:title="urn:x-ericsson:r2:reg-doc:*-*:*:*#AxeEquipment?title=class%20EquipmentM"><rect fill="#C7DDF0" filter="url(#f1)" height="23.9629" style="stroke: #6DA3D9; stroke-width: 1.5;" width="78" x="194" y="92"/><text fill="#000000" font-family="sans-serif" font-size="12" lengthAdjust="spacingAndGlyphs" textLength="72" x="197" y="108.4023">EquipmentM</text></a><a target="_top" xlink:href="urn:x-ericsson:r2:reg-doc:*-*:*:*#AxeEquipment?title=class%20DualSidedCp" xlink:title="urn:x-ericsson:r2:reg-doc:*-*:*:*#AxeEquipment?title=class%20DualSidedCp"><rect fill="#C7DDF0" filter="url(#f1)" height="23.9629" style="stroke: #6DA3D9; stroke-width: 1.5;" width="80" x="261" y="260"/><text fill="#000000" font-family="sans-serif" font-size="12" lengthAdjust="spacingAndGlyphs" textLength="74" x="264" y="276.4023">DualSidedCp</text></a><a target="_top" xlink:href="urn:x-ericsson:r2:reg-doc:*-*:*:*#AxeEquipment?title=class%20CpBlade" xlink:title="urn:x-ericsson:r2:reg-doc:*-*:*:*#AxeEquipment?title=class%20CpBlade"><rect fill="#C7DDF0" filter="url(#f1)" height="23.9629" style="stroke: #6DA3D9; stroke-width: 1.5;" width="54" x="274" y="428"/><text fill="#000000" font-family="sans-serif" font-size="12" lengthAdjust="spacingAndGlyphs" textLength="48" x="277" y="444.4023">CpBlade</text></a><a target="_top" xlink:href="urn:x-ericsson:r2:reg-doc:*-*:*:*#AxeEquipment?title=class%20HardwareMgmt" xlink:title="urn:x-ericsson:r2:reg-doc:*-*:*:*#AxeEquipment?title=class%20HardwareMgmt"><rect fill="#C7DDF0" filter="url(#f1)" height="23.9629" style="stroke: #6DA3D9; stroke-width: 1.5;" width="95" x="122.5" y="176"/><text fill="#000000" font-family="sans-serif" font-size="12" lengthAdjust="spacingAndGlyphs" textLength="89" x="125.5" y="192.4023">HardwareMgmt</text></a><a target="_top" xlink:href="urn:x-ericsson:r2:reg-doc:*-*:*:*#AxeEquipment?title=class%20OtherBlade" xlink:title="urn:x-ericsson:r2:reg-doc:*-*:*:*#AxeEquipment?title=class%20OtherBlade"><rect fill="#C7DDF0" filter="url(#f1)" height="23.9629" style="stroke: #6DA3D9; stroke-width: 1.5;" width="70" x="107" y="344"/><text fill="#000000" font-family="sans-serif" font-size="12" lengthAdjust="spacingAndGlyphs" textLength="64" x="110" y="360.4023">OtherBlade</text></a><a target="_top" xlink:href="urn:x-ericsson:r2:reg-doc:*-*:*:*#AxeEquipment?title=class%20Shelf" xlink:title="urn:x-ericsson:r2:reg-doc:*-*:*:*#AxeEquipment?title=class%20Shelf"><rect fill="#C7DDF0" filter="url(#f1)" height="23.9629" style="stroke: #6DA3D9; stroke-width: 1.5;" width="33" x="144.5" y="260"/><text fill="#000000" font-family="sans-serif" font-size="12" lengthAdjust="spacingAndGlyphs" textLength="27" x="147.5" y="276.4023">Shelf</text></a><a target="_top" xlink:href="urn:x-ericsson:r2:reg-doc:*-*:*:*#AxeEquipment?title=class%20LogicalMgmt" xlink:title="urn:x-ericsson:r2:reg-doc:*-*:*:*#AxeEquipment?title=class%20LogicalMgmt"><rect fill="#C7DDF0" filter="url(#f1)" height="23.9629" style="stroke: #6DA3D9; stroke-width: 1.5;" width="77" x="257.5" y="176"/><text fill="#000000" font-family="sans-serif" font-size="12" lengthAdjust="spacingAndGlyphs" textLength="71" x="260.5" y="192.4023">LogicalMgmt</text></a><a target="_top" xlink:href="urn:x-ericsson:r2:reg-doc:*-*:*:*#AxeEquipment?title=class%20CpCluster" xlink:title="urn:x-ericsson:r2:reg-doc:*-*:*:*#AxeEquipment?title=class%20CpCluster"><rect fill="#C7DDF0" filter="url(#f1)" height="23.9629" style="stroke: #6DA3D9; stroke-width: 1.5;" width="62" x="435" y="260"/><text fill="#000000" font-family="sans-serif" font-size="12" lengthAdjust="spacingAndGlyphs" textLength="56" x="438" y="276.4023">CpCluster</text></a><a target="_top" xlink:href="urn:x-ericsson:r2:reg-doc:*-*:*:*#AxeEquipment?title=class%20ClusterCp" xlink:title="urn:x-ericsson:r2:reg-doc:*-*:*:*#AxeEquipment?title=class%20ClusterCp"><rect fill="#C7DDF0" filter="url(#f1)" height="23.9629" style="stroke: #6DA3D9; stroke-width: 1.5;" width="62" x="435" y="344"/><text fill="#000000" font-family="sans-serif" font-size="12" lengthAdjust="spacingAndGlyphs" textLength="56" x="438" y="360.4023">ClusterCp</text></a><a target="_top" xlink:href="urn:x-ericsson:r2:reg-doc:*-*:*:*#AxeEquipment?title=class%20OmProfile" xlink:title="urn:x-ericsson:r2:reg-doc:*-*:*:*#AxeEquipment?title=class%20OmProfile"><rect fill="#C7DDF0" filter="url(#f1)" height="23.9629" style="stroke: #6DA3D9; stroke-width: 1.5;" width="62" x="502" y="428"/><text fill="#000000" font-family="sans-serif" font-size="12" lengthAdjust="spacingAndGlyphs" textLength="56" x="505" y="444.4023">OmProfile</text></a><a target="_top" xlink:href="urn:x-ericsson:r2:reg-doc:*-*:*:*#AxeEquipment?title=class%20CcFile" xlink:title="urn:x-ericsson:r2:reg-doc:*-*:*:*#AxeEquipment?title=class%20CcFile"><rect fill="#C7DDF0" filter="url(#f1)" height="23.9629" style="stroke: #6DA3D9; stroke-width: 1.5;" width="39" x="513.5" y="512"/><text fill="#000000" font-family="sans-serif" font-size="12" lengthAdjust="spacingAndGlyphs" textLength="33" x="516.5" y="528.4023">CcFile</text></a><a target="_top" xlink:href="urn:x-ericsson:r2:reg-doc:*-*:*:*#AxeEquipment?title=class%20OmProfileManager" xlink:title="urn:x-ericsson:r2:reg-doc:*-*:*:*#AxeEquipment?title=class%20OmProfileManager"><rect fill="#C7DDF0" filter="url(#f1)" height="23.9629" style="stroke: #6DA3D9; stroke-width: 1.5;" width="112" x="532" y="344"/><text fill="#000000" font-family="sans-serif" font-size="12" lengthAdjust="spacingAndGlyphs" textLength="106" x="535" y="360.4023">OmProfileManager</text></a><a target="_top" xlink:href="urn:x-ericsson:r2:reg-doc:*-*:*:*#AxeEquipment?title=class%20CcFileManager" xlink:title="urn:x-ericsson:r2:reg-doc:*-*:*:*#AxeEquipment?title=class%20CcFileManager"><rect fill="#C7DDF0" filter="url(#f1)" height="23.9629" style="stroke: #6DA3D9; stroke-width: 1.5;" width="89" x="598.5" y="428"/><text fill="#000000" font-family="sans-serif" font-size="12" lengthAdjust="spacingAndGlyphs" textLength="83" x="601.5" y="444.4023">CcFileManager</text></a><a target="_top" xlink:href="urn:x-ericsson:r2:reg-doc:*-*:*:*#AxeEquipment?title=class%20CandidateCcFile" xlink:title="urn:x-ericsson:r2:reg-doc:*-*:*:*#AxeEquipment?title=class%20CandidateCcFile"><rect fill="#C7DDF0" filter="url(#f1)" height="23.9629" style="stroke: #6DA3D9; stroke-width: 1.5;" width="98" x="594" y="512"/><text fill="#000000" font-family="sans-serif" font-size="12" lengthAdjust="spacingAndGlyphs" textLength="92" x="597" y="528.4023">CandidateCcFile</text></a><a target="_top" xlink:href="urn:x-ericsson:r2:reg-doc:*-*:*:*#AxeEquipment?title=class%20Lag" xlink:title="urn:x-ericsson:r2:reg-doc:*-*:*:*#AxeEquipment?title=class%20Lag"><rect fill="#C7DDF0" filter="url(#f1)" height="23.9629" style="stroke: #6DA3D9; stroke-width: 1.5;" width="26" x="129" y="428"/><text fill="#000000" font-family="sans-serif" font-size="12" lengthAdjust="spacingAndGlyphs" textLength="20" x="132" y="444.4023">Lag</text></a><a target="_top" xlink:href="urn:x-ericsson:r2:reg-doc:*-*:*:*#AxeEquipment?title=class%20SwMau" xlink:title="urn:x-ericsson:r2:reg-doc:*-*:*:*#AxeEquipment?title=class%20SwMau"><rect fill="#C7DDF0" filter="url(#f1)" height="23.9629" style="stroke: #6DA3D9; stroke-width: 1.5;" width="45" x="354.5" y="344"/><text fill="#000000" font-family="sans-serif" font-size="12" lengthAdjust="spacingAndGlyphs" textLength="39" x="357.5" y="360.4023">SwMau</text></a><a target="_top" xlink:href="urn:x-ericsson:r2:reg-doc:*-*:*:*#AxeFunctions?title=class%20SystemComponentHandling" xlink:title="urn:x-ericsson:r2:reg-doc:*-*:*:*#AxeFunctions?title=class%20SystemComponentHandling"><rect fill="#C7DDF0" filter="url(#f1)" height="23.9629" style="stroke: #6DA3D9; stroke-width: 1.5;" width="163" x="151.5" y="8"/><text fill="#000000" font-family="sans-serif" font-size="12" lengthAdjust="spacingAndGlyphs" textLength="157" x="154.5" y="24.4023">SystemComponentHandling</text></a><path d="M134.731,291.57 C111.96,307.666 79.7634,330.426 60.7669,343.854 " fill="none" style="stroke: #808080; stroke-width: 1.0;"/><polygon fill="#808080" points="145.356,284.059,138.1476,284.2566,135.5575,290.9865,142.7659,290.7889,145.356,284.059" style="stroke: #808080; stroke-width: 1.0;"/><text fill="#000000" font-family="sans-serif" font-size="13" lengthAdjust="spacingAndGlyphs" textLength="6" x="60.0332" y="333.1363">*</text><path d="M179.073,294.429 C209.205,330.158 268.668,400.663 291.638,427.899 " fill="none" style="stroke: #808080; stroke-width: 1.0;"/><polygon fill="#808080" points="170.403,284.149,171.2133,291.3144,178.1392,293.3224,177.3289,286.157,170.403,284.149" style="stroke: #808080; stroke-width: 1.0;"/><text fill="#000000" font-family="sans-serif" font-size="13" lengthAdjust="spacingAndGlyphs" textLength="6" x="280.5387" y="417.1999">*</text><path d="M155.475,296.843 C151.884,312.344 147.367,331.836 144.583,343.854 " fill="none" style="stroke: #808080; stroke-width: 1.0;"/><polygon fill="#808080" points="158.438,284.059,153.187,289.0014,155.7297,295.7494,160.9806,290.807,158.438,284.059" style="stroke: #808080; stroke-width: 1.0;"/><text fill="#000000" font-family="sans-serif" font-size="13" lengthAdjust="spacingAndGlyphs" textLength="6" x="138.411" y="333.1363">*</text><path d="M167.331,213.319 C165.638,228.741 163.529,247.959 162.223,259.854 " fill="none" style="stroke: #808080; stroke-width: 1.0;"/><polygon fill="#808080" points="168.786,200.059,164.1552,205.5867,167.4766,211.9873,172.1074,206.4596,168.786,200.059" style="stroke: #808080; stroke-width: 1.0;"/><text fill="#000000" font-family="sans-serif" font-size="13" lengthAdjust="spacingAndGlyphs" textLength="6" x="155.49" y="249.1363">*</text><path d="M216.479,126.503 C204.316,142.335 188.268,163.223 178.563,175.854 " fill="none" style="stroke: #808080; stroke-width: 1.0;"/><polygon fill="#808080" points="224.504,116.059,217.6766,118.3799,217.1931,125.5748,224.0205,123.2539,224.504,116.059" style="stroke: #808080; stroke-width: 1.0;"/><text fill="#000000" font-family="sans-serif" font-size="13" lengthAdjust="spacingAndGlyphs" textLength="8" x="172.4452" y="165.1363">1</text><path d="M45,381.319 C45,396.741 45,415.959 45,427.854 " fill="none" style="stroke: #808080; stroke-width: 1.0;"/><polygon fill="#808080" points="45,368.059,41,374.059,45,380.059,49,374.059,45,368.059" style="stroke: #808080; stroke-width: 1.0;"/><text fill="#000000" font-family="sans-serif" font-size="13" lengthAdjust="spacingAndGlyphs" textLength="24" x="16.05" y="417.1363">0..1</text><path d="M249.521,126.503 C261.684,142.335 277.732,163.223 287.437,175.854 " fill="none" style="stroke: #808080; stroke-width: 1.0;"/><polygon fill="#808080" points="241.496,116.059,241.9795,123.2539,248.8069,125.5748,248.3234,118.3799,241.496,116.059" style="stroke: #808080; stroke-width: 1.0;"/><text fill="#000000" font-family="sans-serif" font-size="13" lengthAdjust="spacingAndGlyphs" textLength="8" x="274.2548" y="165.1363">1</text><path d="M254.543,204.738 C205.702,223.28 127.111,253.115 94.7006,265.419 " fill="none" style="stroke: #808080; stroke-width: 1.0;"/><polygon fill="#808080" points="266.869,200.059,259.8401,198.4483,255.6498,204.317,262.6787,205.9277,266.869,200.059" style="stroke: #808080; stroke-width: 1.0;"/><text fill="#000000" font-family="sans-serif" font-size="13" lengthAdjust="spacingAndGlyphs" textLength="24" x="102.5439" y="258.6593">1..2</text><path d="M297.483,213.319 C298.423,228.741 299.595,247.959 300.32,259.854 " fill="none" style="stroke: #808080; stroke-width: 1.0;"/><polygon fill="#808080" points="296.674,200.059,293.0467,206.2914,297.4046,212.0367,301.0319,205.8044,296.674,200.059" style="stroke: #808080; stroke-width: 1.0;"/><text fill="#000000" font-family="sans-serif" font-size="13" lengthAdjust="spacingAndGlyphs" textLength="24" x="271.0895" y="249.1363">0..2</text><path d="M493.301,291.35 C517.267,307.458 551.347,330.365 571.418,343.854 " fill="none" style="stroke: #808080; stroke-width: 1.0;"/><polygon fill="#808080" points="482.453,284.059,485.2013,290.7258,492.4124,290.7531,489.6641,284.0863,482.453,284.059" style="stroke: #808080; stroke-width: 1.0;"/><text fill="#000000" font-family="sans-serif" font-size="13" lengthAdjust="spacingAndGlyphs" textLength="8" x="554.9279" y="333.1363">1</text><path d="M330.934,205.85 C364.536,222.059 414.36,246.091 443.165,259.986 " fill="none" style="stroke: #808080; stroke-width: 1.0;"/><polygon fill="#808080" points="318.927,200.059,322.593,206.2687,329.735,205.2731,326.069,199.0634,318.927,200.059" style="stroke: #808080; stroke-width: 1.0;"/><text fill="#000000" font-family="sans-serif" font-size="13" lengthAdjust="spacingAndGlyphs" textLength="24" x="404.7956" y="249.3228">0..1</text><path d="M466,297.319 C466,312.741 466,331.959 466,343.854 " fill="none" style="stroke: #808080; stroke-width: 1.0;"/><polygon fill="#808080" points="466,284.059,462,290.059,466,296.059,470,290.059,466,284.059" style="stroke: #808080; stroke-width: 1.0;"/><text fill="#000000" font-family="sans-serif" font-size="13" lengthAdjust="spacingAndGlyphs" textLength="32" x="427.4" y="333.1363">0..63</text><path d="M573.267,378.966 C562.687,394.74 548.866,415.346 540.476,427.854 " fill="none" style="stroke: #808080; stroke-width: 1.0;"/><polygon fill="#808080" points="580.582,368.059,573.9179,370.814,573.8979,378.0251,580.562,375.2701,580.582,368.059" style="stroke: #808080; stroke-width: 1.0;"/><text fill="#000000" font-family="sans-serif" font-size="13" lengthAdjust="spacingAndGlyphs" textLength="6" x="536.3224" y="417.1363">*</text><path d="M533,465.3188 C533,480.7407 533,499.9588 533,511.8544 " fill="none" style="stroke: #808080; stroke-width: 1.0;"/><polygon fill="#808080" points="533,452.0589,529,458.0589,533,464.0589,537,458.0589,533,452.0589" style="stroke: #808080; stroke-width: 1.0;"/><text fill="#000000" font-family="sans-serif" font-size="13" lengthAdjust="spacingAndGlyphs" textLength="24" x="504.05" y="501.1369">0..3</text><path d="M602.733,378.966 C613.313,394.74 627.134,415.346 635.524,427.854 " fill="none" style="stroke: #808080; stroke-width: 1.0;"/><polygon fill="#808080" points="595.418,368.059,595.438,375.2701,602.1021,378.0251,602.0821,370.814,595.418,368.059" style="stroke: #808080; stroke-width: 1.0;"/><text fill="#000000" font-family="sans-serif" font-size="13" lengthAdjust="spacingAndGlyphs" textLength="24" x="603.4902" y="417.1363">0..1</text><path d="M643,465.3188 C643,480.7407 643,499.9588 643,511.8544 " fill="none" style="stroke: #808080; stroke-width: 1.0;"/><polygon fill="#808080" points="643,452.0589,639,458.0589,643,464.0589,647,458.0589,643,452.0589" style="stroke: #808080; stroke-width: 1.0;"/><text fill="#000000" font-family="sans-serif" font-size="13" lengthAdjust="spacingAndGlyphs" textLength="6" x="635.7625" y="501.1369">*</text><path d="M142,381.319 C142,396.741 142,415.959 142,427.854 " fill="none" style="stroke: #808080; stroke-width: 1.0;"/><polygon fill="#808080" points="142,368.059,138,374.059,142,380.059,146,374.059,142,368.059" style="stroke: #808080; stroke-width: 1.0;"/><text fill="#000000" font-family="sans-serif" font-size="13" lengthAdjust="spacingAndGlyphs" textLength="24" x="113.05" y="417.1363">0..1</text><path d="M320.504,294.044 C335.227,309.929 354.849,331.1 366.67,343.854 " fill="none" style="stroke: #808080; stroke-width: 1.0;"/><polygon fill="#808080" points="311.25,284.059,312.3945,291.1787,319.4067,292.8606,318.2622,285.7409,311.25,284.059" style="stroke: #808080; stroke-width: 1.0;"/><text fill="#000000" font-family="sans-serif" font-size="13" lengthAdjust="spacingAndGlyphs" textLength="24" x="333.4589" y="333.1363">0..1</text><path d="M233,45.319 C233,60.741 233,79.959 233,91.854 " fill="none" style="stroke: #808080; stroke-width: 1.0;"/><polygon fill="#808080" points="233,32.059,229,38.059,233,44.059,237,38.059,233,32.059" style="stroke: #808080; stroke-width: 1.0;"/><text fill="#000000" font-family="sans-serif" font-size="13" lengthAdjust="spacingAndGlyphs" textLength="8" x="223.35" y="81.1363">1</text><path d="M75.2797,284.059 C69.226,298.242 58.686,322.936 51.7762,339.124 " fill="none" style="stroke: #808080; stroke-width: 1.0;"/><polygon fill="#808080" points="49.7573,343.854,56.9693,337.1467,51.7201,339.2554,49.6115,334.0062,49.7573,343.854" style="stroke: #808080; stroke-width: 1.0;"/><text fill="#000000" font-family="sans-serif" font-size="13" lengthAdjust="spacingAndGlyphs" textLength="24" x="22.7697" y="333.1363">0..6</text><path d="M301,284.149 C301,312.736 301,388.76 301,422.488 " fill="none" style="stroke: #808080; stroke-width: 1.0;"/><polygon fill="#808080" points="301,427.899,305,418.899,301,422.899,297,418.899,301,427.899" style="stroke: #808080; stroke-width: 1.0;"/><text fill="#000000" font-family="sans-serif" font-size="13" lengthAdjust="spacingAndGlyphs" textLength="24" x="272.05" y="417.1999">0..3</text><path d="M443.747,368.059 C413.648,383.017 360.025,409.667 327.763,425.7 " fill="none" style="stroke: #808080; stroke-width: 1.0;"/><polygon fill="#808080" points="323.163,427.986,333.0029,427.5652,327.6411,425.7619,329.4444,420.4002,323.163,427.986" style="stroke: #808080; stroke-width: 1.0;"/><text fill="#000000" font-family="sans-serif" font-size="13" lengthAdjust="spacingAndGlyphs" textLength="24" x="336.1876" y="417.93">0..1</text></g></svg>