<?xml version="1.0" encoding="UTF-8" standalone="yes"?><svg xmlns="http://www.w3.org/2000/svg" xmlns:xlink="http://www.w3.org/1999/xlink" height="208px" style="width:699px;height:208px;" version="1.1" viewBox="0 0 699 208" width="699px"><defs><filter height="300%" id="f1" width="300%" x="-1" y="-1"><feGaussianBlur result="blurOut" stdDeviation="2.0"/><feColorMatrix in="blurOut" result="blurOut2" type="matrix" values="0 0 0 0 0 0 0 0 0 0 0 0 0 0 0 0 0 0 .4 0"/><feOffset dx="4.0" dy="4.0" in="blurOut2" result="blurOut3"/><feBlend in="SourceGraphic" in2="blurOut3" mode="normal"/></filter></defs><g><a target="_top" xlink:href="urn:x-ericsson:r2:reg-doc:*-*:*:*#AxeAlarmDisplay?title=class%20SoundProperty" xlink:title="urn:x-ericsson:r2:reg-doc:*-*:*:*#AxeAlarmDisplay?title=class%20SoundProperty"><rect fill="#C7DDF0" filter="url(#f1)" height="23.9629" style="stroke: #6DA3D9; stroke-width: 1.5;" width="90" x="6" y="176"/><text fill="#000000" font-family="sans-serif" font-size="12" lengthAdjust="spacingAndGlyphs" textLength="84" x="9" y="192.4023">SoundProperty</text></a><a target="_top" xlink:href="urn:x-ericsson:r2:reg-doc:*-*:*:*#AxeAlarmDisplay?title=class%20LocalAlarmDisplay" xlink:title="urn:x-ericsson:r2:reg-doc:*-*:*:*#AxeAlarmDisplay?title=class%20LocalAlarmDisplay"><rect fill="#C7DDF0" filter="url(#f1)" height="23.9629" style="stroke: #6DA3D9; stroke-width: 1.5;" width="111" x="131.75" y="176"/><text fill="#000000" font-family="sans-serif" font-size="12" lengthAdjust="spacingAndGlyphs" textLength="105" x="134.75" y="192.4023">LocalAlarmDisplay</text></a><a target="_top" xlink:href="urn:x-ericsson:r2:reg-doc:*-*:*:*#AxeAlarmDisplay?title=class%20RemoteAlarmDisplay" xlink:title="urn:x-ericsson:r2:reg-doc:*-*:*:*#AxeAlarmDisplay?title=class%20RemoteAlarmDisplay"><rect fill="#C7DDF0" filter="url(#f1)" height="23.9629" style="stroke: #6DA3D9; stroke-width: 1.5;" width="126" x="278" y="176"/><text fill="#000000" font-family="sans-serif" font-size="12" lengthAdjust="spacingAndGlyphs" textLength="120" x="281" y="192.4023">RemoteAlarmDisplay</text></a><a target="_top" xlink:href="urn:x-ericsson:r2:reg-doc:*-*:*:*#AxeAlarmDisplay?title=class%20RemoteAlarmListener" xlink:title="urn:x-ericsson:r2:reg-doc:*-*:*:*#AxeAlarmDisplay?title=class%20RemoteAlarmListener"><rect fill="#C7DDF0" filter="url(#f1)" height="23.9629" style="stroke: #6DA3D9; stroke-width: 1.5;" width="129" x="439.75" y="176"/><text fill="#000000" font-family="sans-serif" font-size="12" lengthAdjust="spacingAndGlyphs" textLength="123" x="442.75" y="192.4023">RemoteAlarmListener</text></a><a target="_top" xlink:href="urn:x-ericsson:r2:reg-doc:*-*:*:*#AxeAlarmDisplay?title=class%20AlarmDisplayM" xlink:title="urn:x-ericsson:r2:reg-doc:*-*:*:*#AxeAlarmDisplay?title=class%20AlarmDisplayM"><rect fill="#C7DDF0" filter="url(#f1)" height="23.9629" style="stroke: #6DA3D9; stroke-width: 1.5;" width="92" x="295" y="92"/><text fill="#000000" font-family="sans-serif" font-size="12" lengthAdjust="spacingAndGlyphs" textLength="86" x="298" y="108.4023">AlarmDisplayM</text></a><a target="_top" xlink:href="urn:x-ericsson:r2:reg-doc:*-*:*:*#AxeAlarmDisplay?title=class%20LampProperty" xlink:title="urn:x-ericsson:r2:reg-doc:*-*:*:*#AxeAlarmDisplay?title=class%20LampProperty"><rect fill="#C7DDF0" filter="url(#f1)" height="23.9629" style="stroke: #6DA3D9; stroke-width: 1.5;" width="87" x="603.75" y="176"/><text fill="#000000" font-family="sans-serif" font-size="12" lengthAdjust="spacingAndGlyphs" textLength="81" x="606.75" y="192.4023">LampProperty</text></a><a target="_top" xlink:href="urn:x-ericsson:r2:reg-doc:*-*:*:*#AxeFunctions?title=class%20SupervisionHandling" xlink:title="urn:x-ericsson:r2:reg-doc:*-*:*:*#AxeFunctions?title=class%20SupervisionHandling"><rect fill="#C7DDF0" filter="url(#f1)" height="23.9629" style="stroke: #6DA3D9; stroke-width: 1.5;" width="122" x="280" y="8"/><text fill="#000000" font-family="sans-serif" font-size="12" lengthAdjust="spacingAndGlyphs" textLength="116" x="283" y="24.4023">SupervisionHandling</text></a><path d="M289.178,119.6532 C232.024,135.8138 141.365,161.4485 89.9531,175.9857 " fill="none" style="stroke: #808080; stroke-width: 1.0;"/><polygon fill="#808080" points="301.889,116.0589,295.027,113.8423,290.3417,119.3239,297.2037,121.5405,301.889,116.0589" style="stroke: #808080; stroke-width: 1.0;"/><text fill="#000000" font-family="sans-serif" font-size="13" lengthAdjust="spacingAndGlyphs" textLength="32" x="64.4995" y="165.3146">1..16</text><path d="M374.922,122.065 C407.135,138.2703 454.608,162.1524 482.106,175.9857 " fill="none" style="stroke: #808080; stroke-width: 1.0;"/><polygon fill="#808080" points="362.983,116.0589,366.5451,122.3288,373.7027,121.4522,370.1406,115.1823,362.983,116.0589" style="stroke: #808080; stroke-width: 1.0;"/><text fill="#000000" font-family="sans-serif" font-size="13" lengthAdjust="spacingAndGlyphs" textLength="6" x="466.119" y="165.3146">*</text><path d="M341,129.3188 C341,144.7407 341,163.9588 341,175.8544 " fill="none" style="stroke: #808080; stroke-width: 1.0;"/><polygon fill="#808080" points="341,116.0589,337,122.0589,341,128.0589,345,122.0589,341,116.0589" style="stroke: #808080; stroke-width: 1.0;"/><text fill="#000000" font-family="sans-serif" font-size="13" lengthAdjust="spacingAndGlyphs" textLength="32" x="302.1563" y="165.1381">0..96</text><path d="M394.922,119.4496 C455.182,135.5977 551.421,161.3873 605.898,175.9857 " fill="none" style="stroke: #808080; stroke-width: 1.0;"/><polygon fill="#808080" points="382.269,116.0589,387.0294,121.4754,393.8602,119.1645,389.0998,113.748,382.269,116.0589" style="stroke: #808080; stroke-width: 1.0;"/><text fill="#000000" font-family="sans-serif" font-size="13" lengthAdjust="spacingAndGlyphs" textLength="32" x="563.4452" y="166.2063">1..16</text><path d="M308.581,122.2619 C278.251,138.4119 233.842,162.0579 207.932,175.8544 " fill="none" style="stroke: #808080; stroke-width: 1.0;"/><polygon fill="#808080" points="320.231,116.0589,313.055,115.3482,309.639,121.6989,316.815,122.4096,320.231,116.0589" style="stroke: #808080; stroke-width: 1.0;"/><text fill="#000000" font-family="sans-serif" font-size="13" lengthAdjust="spacingAndGlyphs" textLength="6" x="206.6664" y="165.1381">*</text><path d="M341,45.319 C341,60.741 341,79.959 341,91.854 " fill="none" style="stroke: #808080; stroke-width: 1.0;"/><polygon fill="#808080" points="341,32.059,337,38.059,341,44.059,345,38.059,341,32.059" style="stroke: #808080; stroke-width: 1.0;"/><text fill="#000000" font-family="sans-serif" font-size="13" lengthAdjust="spacingAndGlyphs" textLength="8" x="330.2813" y="81.1376">1</text></g></svg>