<?xml version="1.0" encoding="UTF-8" standalone="yes"?><svg xmlns="http://www.w3.org/2000/svg" xmlns:xlink="http://www.w3.org/1999/xlink" height="292px" style="width:431px;height:292px;" version="1.1" viewBox="0 0 431 292" width="431px"><defs><filter height="300%" id="f1" width="300%" x="-1" y="-1"><feGaussianBlur result="blurOut" stdDeviation="2.0"/><feColorMatrix in="blurOut" result="blurOut2" type="matrix" values="0 0 0 0 0 0 0 0 0 0 0 0 0 0 0 0 0 0 .4 0"/><feOffset dx="4.0" dy="4.0" in="blurOut2" result="blurOut3"/><feBlend in="SourceGraphic" in2="blurOut3" mode="normal"/></filter></defs><g><a target="_top" xlink:href="urn:x-ericsson:r2:reg-doc:*-*:*:*#AxeTimeReference?title=class%20TimeReferenceM" xlink:title="urn:x-ericsson:r2:reg-doc:*-*:*:*#AxeTimeReference?title=class%20TimeReferenceM"><rect fill="#C7DDF0" filter="url(#f1)" height="23.9629" style="stroke: #6DA3D9; stroke-width: 1.5;" width="103" x="156" y="92"/><text fill="#000000" font-family="sans-serif" font-size="12" lengthAdjust="spacingAndGlyphs" textLength="97" x="159" y="108.4023">TimeReferenceM</text></a><a target="_top" xlink:href="urn:x-ericsson:r2:reg-doc:*-*:*:*#AxeTimeReference?title=class%20NetworkTimeServer" xlink:title="urn:x-ericsson:r2:reg-doc:*-*:*:*#AxeTimeReference?title=class%20NetworkTimeServer"><rect fill="#C7DDF0" filter="url(#f1)" height="23.9629" style="stroke: #6DA3D9; stroke-width: 1.5;" width="119" x="6" y="176"/><text fill="#000000" font-family="sans-serif" font-size="12" lengthAdjust="spacingAndGlyphs" textLength="113" x="9" y="192.4023">NetworkTimeServer</text></a><a target="_top" xlink:href="urn:x-ericsson:r2:reg-doc:*-*:*:*#AxeTimeReference?title=class%20ScxTimeReference" xlink:title="urn:x-ericsson:r2:reg-doc:*-*:*:*#AxeTimeReference?title=class%20ScxTimeReference"><rect fill="#C7DDF0" filter="url(#f1)" height="23.9629" style="stroke: #6DA3D9; stroke-width: 1.5;" width="112" x="147.5" y="260"/><text fill="#000000" font-family="sans-serif" font-size="12" lengthAdjust="spacingAndGlyphs" textLength="106" x="150.5" y="276.4023">ScxTimeReference</text></a><a target="_top" xlink:href="urn:x-ericsson:r2:reg-doc:*-*:*:*#AxeTimeReference?title=class%20ScxTimeService" xlink:title="urn:x-ericsson:r2:reg-doc:*-*:*:*#AxeTimeReference?title=class%20ScxTimeService"><rect fill="#C7DDF0" filter="url(#f1)" height="23.9629" style="stroke: #6DA3D9; stroke-width: 1.5;" width="94" x="160.5" y="176"/><text fill="#000000" font-family="sans-serif" font-size="12" lengthAdjust="spacingAndGlyphs" textLength="88" x="163.5" y="192.4023">ScxTimeService</text></a><a target="_top" xlink:href="urn:x-ericsson:r2:reg-doc:*-*:*:*#AxeTimeReference?title=class%20SwitchTimeReference" xlink:title="urn:x-ericsson:r2:reg-doc:*-*:*:*#AxeTimeReference?title=class%20SwitchTimeReference"><rect fill="#C7DDF0" filter="url(#f1)" height="23.9629" style="stroke: #6DA3D9; stroke-width: 1.5;" width="128" x="294.5" y="260"/><text fill="#000000" font-family="sans-serif" font-size="12" lengthAdjust="spacingAndGlyphs" textLength="122" x="297.5" y="276.4023">SwitchTimeReference</text></a><a target="_top" xlink:href="urn:x-ericsson:r2:reg-doc:*-*:*:*#AxeTimeReference?title=class%20SwitchTimeService" xlink:title="urn:x-ericsson:r2:reg-doc:*-*:*:*#AxeTimeReference?title=class%20SwitchTimeService"><rect fill="#C7DDF0" filter="url(#f1)" height="23.9629" style="stroke: #6DA3D9; stroke-width: 1.5;" width="110" x="298.5" y="176"/><text fill="#000000" font-family="sans-serif" font-size="12" lengthAdjust="spacingAndGlyphs" textLength="104" x="301.5" y="192.4023">SwitchTimeService</text></a><a target="_top" xlink:href="urn:x-ericsson:r2:reg-doc:*-*:*:*#AxeFunctions?title=class%20SystemHandling" xlink:title="urn:x-ericsson:r2:reg-doc:*-*:*:*#AxeFunctions?title=class%20SystemHandling"><rect fill="#C7DDF0" filter="url(#f1)" height="23.9629" style="stroke: #6DA3D9; stroke-width: 1.5;" width="97" x="159" y="8"/><text fill="#000000" font-family="sans-serif" font-size="12" lengthAdjust="spacingAndGlyphs" textLength="91" x="162" y="24.4023">SystemHandling</text></a><path d="M176.859,122.694 C148.914,138.832 108.48,162.181 84.8008,175.854 " fill="none" style="stroke: #808080; stroke-width: 1.0;"/><polygon fill="#808080" points="188.349,116.059,181.1528,115.5959,177.9575,122.0605,185.1538,122.5236,188.349,116.059" style="stroke: #808080; stroke-width: 1.0;"/><text fill="#000000" font-family="sans-serif" font-size="13" lengthAdjust="spacingAndGlyphs" textLength="24" x="63.8124" y="165.1363">0..8</text><path d="M207.5,129.319 C207.5,144.741 207.5,163.959 207.5,175.854 " fill="none" style="stroke: #808080; stroke-width: 1.0;"/><polygon fill="#808080" points="207.5,116.059,203.5,122.059,207.5,128.059,211.5,122.059,207.5,116.059" style="stroke: #808080; stroke-width: 1.0;"/><text fill="#000000" font-family="sans-serif" font-size="13" lengthAdjust="spacingAndGlyphs" textLength="24" x="178.55" y="165.1363">0..1</text><path d="M206.314,213.3188 C205.561,228.7407 204.624,247.9588 204.044,259.8544 " fill="none" style="stroke: #808080; stroke-width: 1.0;"/><polygon fill="#808080" points="206.961,200.0589,202.6734,205.8568,206.3762,212.0446,210.6639,206.2467,206.961,200.0589" style="stroke: #808080; stroke-width: 1.0;"/><text fill="#000000" font-family="sans-serif" font-size="13" lengthAdjust="spacingAndGlyphs" textLength="8" x="194.6184" y="249.1369">2</text><path d="M238.619,122.478 C267.363,138.622 309.2,162.119 333.655,175.854 " fill="none" style="stroke: #808080; stroke-width: 1.0;"/><polygon fill="#808080" points="227.19,116.059,230.4626,122.4847,237.6528,121.9352,234.3801,115.5095,227.19,116.059" style="stroke: #808080; stroke-width: 1.0;"/><text fill="#000000" font-family="sans-serif" font-size="13" lengthAdjust="spacingAndGlyphs" textLength="24" x="296.5189" y="165.1363">0..1</text><path d="M354.983,213.3188 C355.923,228.7407 357.095,247.9588 357.82,259.8544 " fill="none" style="stroke: #808080; stroke-width: 1.0;"/><polygon fill="#808080" points="354.174,200.0589,350.5466,206.2913,354.9044,212.0366,358.5318,205.8043,354.174,200.0589" style="stroke: #808080; stroke-width: 1.0;"/><text fill="#000000" font-family="sans-serif" font-size="13" lengthAdjust="spacingAndGlyphs" textLength="8" x="347.8895" y="249.1369">2</text><path d="M207.5,45.319 C207.5,60.741 207.5,79.959 207.5,91.854 " fill="none" style="stroke: #808080; stroke-width: 1.0;"/><polygon fill="#808080" points="207.5,32.059,203.5,38.059,207.5,44.059,211.5,38.059,207.5,32.059" style="stroke: #808080; stroke-width: 1.0;"/><text fill="#000000" font-family="sans-serif" font-size="13" lengthAdjust="spacingAndGlyphs" textLength="8" x="197.85" y="81.1363">1</text></g></svg>