<?xml version="1.0" encoding="UTF-8" standalone="yes"?><svg xmlns="http://www.w3.org/2000/svg" xmlns:xlink="http://www.w3.org/1999/xlink" height="544px" style="width:798px;height:544px;" version="1.1" viewBox="0 0 798 544" width="798px"><defs><filter height="300%" id="f1" width="300%" x="-1" y="-1"><feGaussianBlur result="blurOut" stdDeviation="2.0"/><feColorMatrix in="blurOut" result="blurOut2" type="matrix" values="0 0 0 0 0 0 0 0 0 0 0 0 0 0 0 0 0 0 .4 0"/><feOffset dx="4.0" dy="4.0" in="blurOut2" result="blurOut3"/><feBlend in="SourceGraphic" in2="blurOut3" mode="normal"/></filter></defs><g><a target="_top" xlink:href="urn:x-ericsson:r2:reg-doc:*-*:*:*#AxeInfrastructureTransportM?title=class%20TransportM" xlink:title="urn:x-ericsson:r2:reg-doc:*-*:*:*#AxeInfrastructureTransportM?title=class%20TransportM"><rect fill="#C7DDF0" filter="url(#f1)" height="23.9629" style="stroke: #6DA3D9; stroke-width: 1.5;" width="73" x="362.287" y="92"/><text fill="#000000" font-family="sans-serif" font-size="12" lengthAdjust="spacingAndGlyphs" textLength="67" x="365.287" y="108.4023">TransportM</text></a><a target="_top" xlink:href="urn:x-ericsson:r2:reg-doc:*-*:*:*#AxeInfrastructureTransportM?title=class%20Bridge" xlink:title="urn:x-ericsson:r2:reg-doc:*-*:*:*#AxeInfrastructureTransportM?title=class%20Bridge"><rect fill="#C7DDF0" filter="url(#f1)" height="23.9629" style="stroke: #6DA3D9; stroke-width: 1.5;" width="43" x="13.2869" y="260"/><text fill="#000000" font-family="sans-serif" font-size="12" lengthAdjust="spacingAndGlyphs" textLength="37" x="16.2869" y="276.4023">Bridge</text></a><a target="_top" xlink:href="urn:x-ericsson:r2:reg-doc:*-*:*:*#AxeInfrastructureTransportM?title=class%20BridgePort" xlink:title="urn:x-ericsson:r2:reg-doc:*-*:*:*#AxeInfrastructureTransportM?title=class%20BridgePort"><rect fill="#C7DDF0" filter="url(#f1)" height="23.9629" style="stroke: #6DA3D9; stroke-width: 1.5;" width="66" x="7.7869" y="428"/><text fill="#000000" font-family="sans-serif" font-size="12" lengthAdjust="spacingAndGlyphs" textLength="60" x="10.7869" y="444.4023">BridgePort</text></a><a target="_top" xlink:href="urn:x-ericsson:r2:reg-doc:*-*:*:*#AxeInfrastructureTransportM?title=class%20Vlan" xlink:title="urn:x-ericsson:r2:reg-doc:*-*:*:*#AxeInfrastructureTransportM?title=class%20Vlan"><rect fill="#C7DDF0" filter="url(#f1)" height="23.9629" style="stroke: #6DA3D9; stroke-width: 1.5;" width="31" x="25.2869" y="344"/><text fill="#000000" font-family="sans-serif" font-size="12" lengthAdjust="spacingAndGlyphs" textLength="25" x="28.2869" y="360.4023">Vlan</text></a><a target="_top" xlink:href="urn:x-ericsson:r2:reg-doc:*-*:*:*#AxeInfrastructureTransportM?title=class%20EthernetPort" xlink:title="urn:x-ericsson:r2:reg-doc:*-*:*:*#AxeInfrastructureTransportM?title=class%20EthernetPort"><rect fill="#C7DDF0" filter="url(#f1)" height="23.9629" style="stroke: #6DA3D9; stroke-width: 1.5;" width="77" x="712.287" y="260"/><text fill="#000000" font-family="sans-serif" font-size="12" lengthAdjust="spacingAndGlyphs" textLength="71" x="715.287" y="276.4023">EthernetPort</text></a><a target="_top" xlink:href="urn:x-ericsson:r2:reg-doc:*-*:*:*#AxeInfrastructureTransportM?title=class%20Aggregator" xlink:title="urn:x-ericsson:r2:reg-doc:*-*:*:*#AxeInfrastructureTransportM?title=class%20Aggregator"><rect fill="#C7DDF0" filter="url(#f1)" height="23.9629" style="stroke: #6DA3D9; stroke-width: 1.5;" width="70" x="627.787" y="176"/><text fill="#000000" font-family="sans-serif" font-size="12" lengthAdjust="spacingAndGlyphs" textLength="64" x="630.787" y="192.4023">Aggregator</text></a><a target="_top" xlink:href="urn:x-ericsson:r2:reg-doc:*-*:*:*#AxeInfrastructureTransportM?title=class%20Router" xlink:title="urn:x-ericsson:r2:reg-doc:*-*:*:*#AxeInfrastructureTransportM?title=class%20Router"><rect fill="#C7DDF0" filter="url(#f1)" height="23.9629" style="stroke: #6DA3D9; stroke-width: 1.5;" width="44" x="376.787" y="176"/><text fill="#000000" font-family="sans-serif" font-size="12" lengthAdjust="spacingAndGlyphs" textLength="38" x="379.787" y="192.4023">Router</text></a><a target="_top" xlink:href="urn:x-ericsson:r2:reg-doc:*-*:*:*#AxeInfrastructureTransportM?title=class%20BfdSessionIPv4" xlink:title="urn:x-ericsson:r2:reg-doc:*-*:*:*#AxeInfrastructureTransportM?title=class%20BfdSessionIPv4"><rect fill="#C7DDF0" filter="url(#f1)" height="23.9629" style="stroke: #6DA3D9; stroke-width: 1.5;" width="91" x="353.287" y="260"/><text fill="#000000" font-family="sans-serif" font-size="12" lengthAdjust="spacingAndGlyphs" textLength="85" x="356.287" y="276.4023">BfdSessionIPv4</text></a><a target="_top" xlink:href="urn:x-ericsson:r2:reg-doc:*-*:*:*#AxeInfrastructureTransportM?title=class%20BfdProfile" xlink:title="urn:x-ericsson:r2:reg-doc:*-*:*:*#AxeInfrastructureTransportM?title=class%20BfdProfile"><rect fill="#C7DDF0" filter="url(#f1)" height="23.9629" style="stroke: #6DA3D9; stroke-width: 1.5;" width="61" x="454.287" y="344"/><text fill="#000000" font-family="sans-serif" font-size="12" lengthAdjust="spacingAndGlyphs" textLength="55" x="457.287" y="360.4023">BfdProfile</text></a><a target="_top" xlink:href="urn:x-ericsson:r2:reg-doc:*-*:*:*#AxeInfrastructureTransportM?title=class%20AddressIPv4" xlink:title="urn:x-ericsson:r2:reg-doc:*-*:*:*#AxeInfrastructureTransportM?title=class%20AddressIPv4"><rect fill="#C7DDF0" filter="url(#f1)" height="23.9629" style="stroke: #6DA3D9; stroke-width: 1.5;" width="78" x="213.787" y="512"/><text fill="#000000" font-family="sans-serif" font-size="12" lengthAdjust="spacingAndGlyphs" textLength="72" x="216.787" y="528.4023">AddressIPv4</text></a><a target="_top" xlink:href="urn:x-ericsson:r2:reg-doc:*-*:*:*#AxeInfrastructureTransportM?title=class%20InterfaceIPv4" xlink:title="urn:x-ericsson:r2:reg-doc:*-*:*:*#AxeInfrastructureTransportM?title=class%20InterfaceIPv4"><rect fill="#C7DDF0" filter="url(#f1)" height="23.9629" style="stroke: #6DA3D9; stroke-width: 1.5;" width="80" x="166.787" y="260"/><text fill="#000000" font-family="sans-serif" font-size="12" lengthAdjust="spacingAndGlyphs" textLength="74" x="169.787" y="276.4023">InterfaceIPv4</text></a><a target="_top" xlink:href="urn:x-ericsson:r2:reg-doc:*-*:*:*#AxeInfrastructureTransportM?title=class%20RouteTableIPv4Static" xlink:title="urn:x-ericsson:r2:reg-doc:*-*:*:*#AxeInfrastructureTransportM?title=class%20RouteTableIPv4Static"><rect fill="#C7DDF0" filter="url(#f1)" height="23.9629" style="stroke: #6DA3D9; stroke-width: 1.5;" width="126" x="550.787" y="260"/><text fill="#000000" font-family="sans-serif" font-size="12" lengthAdjust="spacingAndGlyphs" textLength="120" x="553.787" y="276.4023">RouteTableIPv4Static</text></a><a target="_top" xlink:href="urn:x-ericsson:r2:reg-doc:*-*:*:*#AxeInfrastructureTransportM?title=class%20Dst" xlink:title="urn:x-ericsson:r2:reg-doc:*-*:*:*#AxeInfrastructureTransportM?title=class%20Dst"><rect fill="#C7DDF0" filter="url(#f1)" height="23.9629" style="stroke: #6DA3D9; stroke-width: 1.5;" width="25" x="601.287" y="344"/><text fill="#000000" font-family="sans-serif" font-size="12" lengthAdjust="spacingAndGlyphs" textLength="19" x="604.287" y="360.4023">Dst</text></a><a target="_top" xlink:href="urn:x-ericsson:r2:reg-doc:*-*:*:*#AxeInfrastructureTransportM?title=class%20NextHop" xlink:title="urn:x-ericsson:r2:reg-doc:*-*:*:*#AxeInfrastructureTransportM?title=class%20NextHop"><rect fill="#C7DDF0" filter="url(#f1)" height="23.9629" style="stroke: #6DA3D9; stroke-width: 1.5;" width="57" x="585.287" y="428"/><text fill="#000000" font-family="sans-serif" font-size="12" lengthAdjust="spacingAndGlyphs" textLength="51" x="588.287" y="444.4023">NextHop</text></a><a target="_top" xlink:href="urn:x-ericsson:r2:reg-doc:*-*:*:*#AxeInfrastructureTransportM?title=class%20Vrrpv3Session" xlink:title="urn:x-ericsson:r2:reg-doc:*-*:*:*#AxeInfrastructureTransportM?title=class%20Vrrpv3Session"><rect fill="#C7DDF0" filter="url(#f1)" height="23.9629" style="stroke: #6DA3D9; stroke-width: 1.5;" width="88" x="162.787" y="344"/><text fill="#000000" font-family="sans-serif" font-size="12" lengthAdjust="spacingAndGlyphs" textLength="82" x="165.787" y="360.4023">Vrrpv3Session</text></a><a target="_top" xlink:href="urn:x-ericsson:r2:reg-doc:*-*:*:*#AxeInfrastructureTransportM?title=class%20Vrrpv3Interface" xlink:title="urn:x-ericsson:r2:reg-doc:*-*:*:*#AxeInfrastructureTransportM?title=class%20Vrrpv3Interface"><rect fill="#C7DDF0" filter="url(#f1)" height="23.9629" style="stroke: #6DA3D9; stroke-width: 1.5;" width="96" x="154.787" y="428"/><text fill="#000000" font-family="sans-serif" font-size="12" lengthAdjust="spacingAndGlyphs" textLength="90" x="157.787" y="444.4023">Vrrpv3Interface</text></a><a target="_top" xlink:href="urn:x-ericsson:r2:reg-doc:*-*:*:*#AxeInfrastructureTransportM?title=class%20AclIpv4" xlink:title="urn:x-ericsson:r2:reg-doc:*-*:*:*#AxeInfrastructureTransportM?title=class%20AclIpv4"><rect fill="#C7DDF0" filter="url(#f1)" height="23.9629" style="stroke: #6DA3D9; stroke-width: 1.5;" width="48" x="356.787" y="344"/><text fill="#000000" font-family="sans-serif" font-size="12" lengthAdjust="spacingAndGlyphs" textLength="42" x="359.787" y="360.4023">AclIpv4</text></a><a target="_top" xlink:href="urn:x-ericsson:r2:reg-doc:*-*:*:*#AxeInfrastructureTransportM?title=class%20AclEntryIpv4" xlink:title="urn:x-ericsson:r2:reg-doc:*-*:*:*#AxeInfrastructureTransportM?title=class%20AclEntryIpv4"><rect fill="#C7DDF0" filter="url(#f1)" height="23.9629" style="stroke: #6DA3D9; stroke-width: 1.5;" width="77" x="357.287" y="428"/><text fill="#000000" font-family="sans-serif" font-size="12" lengthAdjust="spacingAndGlyphs" textLength="71" x="360.287" y="444.4023">AclEntryIpv4</text></a><a target="_top" xlink:href="urn:x-ericsson:r2:reg-doc:*-*:*:*#AxeFunctions?title=class%20SystemComponentHandling" xlink:title="urn:x-ericsson:r2:reg-doc:*-*:*:*#AxeFunctions?title=class%20SystemComponentHandling"><rect fill="#C7DDF0" filter="url(#f1)" height="23.9629" style="stroke: #6DA3D9; stroke-width: 1.5;" width="163" x="317.287" y="8"/><text fill="#000000" font-family="sans-serif" font-size="12" lengthAdjust="spacingAndGlyphs" textLength="157" x="320.287" y="24.4023">SystemComponentHandling</text></a><path d="M348.876,111.053 C270.885,121.354 124.788,144.3 83.7869,176 C55.7451,197.68 42.2708,239.892 37.2362,259.93 " fill="none" style="stroke: #808080; stroke-width: 1.0;"/><polygon fill="#808080" points="362.15,109.335,355.6862,106.1382,350.2492,110.8752,356.713,114.072,362.15,109.335" style="stroke: #808080; stroke-width: 1.0;"/><text fill="#000000" font-family="sans-serif" font-size="13" lengthAdjust="spacingAndGlyphs" textLength="6" x="31.009" y="249.2437">*</text><path d="M21.7838,295.649 C12.3917,314.776 2.2544,342.971 7.7869,368 C12.7742,390.563 25.6901,414.469 33.8051,427.985 " fill="none" style="stroke: #808080; stroke-width: 1.0;"/><polygon fill="#808080" points="27.9652,284.007,21.6188,287.4308,22.3383,294.606,28.6847,291.1821,27.9652,284.007" style="stroke: #808080; stroke-width: 1.0;"/><text fill="#000000" font-family="sans-serif" font-size="13" lengthAdjust="spacingAndGlyphs" textLength="6" x="32.1626" y="417.3213">*</text><path d="M36.5663,297.319 C37.6948,312.741 39.1009,331.959 39.9714,343.854 " fill="none" style="stroke: #808080; stroke-width: 1.0;"/><polygon fill="#808080" points="35.5961,284.059,32.0446,290.3349,36.4717,296.027,40.0232,289.7511,35.5961,284.059" style="stroke: #808080; stroke-width: 1.0;"/><text fill="#000000" font-family="sans-serif" font-size="13" lengthAdjust="spacingAndGlyphs" textLength="6" x="32.3975" y="333.1363">*</text><path d="M448.687,110.431 C527.382,119.924 675.428,141.84 714.787,176 C740.096,197.965 747.667,239.656 749.889,259.693 " fill="none" style="stroke: #808080; stroke-width: 1.0;"/><polygon fill="#808080" points="435.301,108.855,440.7922,113.5291,447.2187,110.258,441.7275,105.5839,435.301,108.855" style="stroke: #808080; stroke-width: 1.0;"/><text fill="#000000" font-family="sans-serif" font-size="13" lengthAdjust="spacingAndGlyphs" textLength="6" x="742.3542" y="249.2787">*</text><path d="M446.989,119.972 C499.229,136.198 581.325,161.697 627.747,176.116 " fill="none" style="stroke: #808080; stroke-width: 1.0;"/><polygon fill="#808080" points="434.391,116.059,438.934,121.6591,445.8506,119.6195,441.3076,114.0194,434.391,116.059" style="stroke: #808080; stroke-width: 1.0;"/><text fill="#000000" font-family="sans-serif" font-size="13" lengthAdjust="spacingAndGlyphs" textLength="6" x="613.9012" y="169.4875">*</text><path d="M398.787,129.319 C398.787,144.741 398.787,163.959 398.787,175.854 " fill="none" style="stroke: #808080; stroke-width: 1.0;"/><polygon fill="#808080" points="398.787,116.059,394.787,122.059,398.787,128.059,402.787,122.059,398.787,116.059" style="stroke: #808080; stroke-width: 1.0;"/><text fill="#000000" font-family="sans-serif" font-size="13" lengthAdjust="spacingAndGlyphs" textLength="6" x="391.5495" y="165.1363">*</text><path d="M421.632,209.183 C435.205,222.37 451.689,240.681 461.787,260 C476.408,287.972 481.925,325.447 483.848,343.85 " fill="none" style="stroke: #808080; stroke-width: 1.0;"/><polygon fill="#808080" points="411.973,200.167,413.6292,207.1853,420.7447,208.3559,419.0885,201.3375,411.973,200.167" style="stroke: #808080; stroke-width: 1.0;"/><text fill="#000000" font-family="sans-serif" font-size="13" lengthAdjust="spacingAndGlyphs" textLength="6" x="476.2232" y="333.1307">*</text><path d="M230.772,292.831 C244.472,305.78 260.362,323.964 267.787,344 C290.002,403.946 267.019,482.6686 256.981,511.6555 " fill="none" style="stroke: #808080; stroke-width: 1.0;"/><polygon fill="#808080" points="220.899,284.005,222.7072,290.9857,229.8463,292.0016,228.0382,285.0208,220.899,284.005" style="stroke: #808080; stroke-width: 1.0;"/><text fill="#000000" font-family="sans-serif" font-size="13" lengthAdjust="spacingAndGlyphs" textLength="24" x="229.9074" y="501.2265">0..1</text><path d="M364.405,203.684 C326.653,219.807 266.884,245.334 232.824,259.88 " fill="none" style="stroke: #808080; stroke-width: 1.0;"/><polygon fill="#808080" points="376.762,198.406,369.6731,197.0838,365.7262,203.1189,372.8151,204.441,376.762,198.406" style="stroke: #808080; stroke-width: 1.0;"/><text fill="#000000" font-family="sans-serif" font-size="13" lengthAdjust="spacingAndGlyphs" textLength="6" x="236.3268" y="249.173">*</text><path d="M613.787,297.319 C613.787,312.741 613.787,331.959 613.787,343.854 " fill="none" style="stroke: #808080; stroke-width: 1.0;"/><polygon fill="#808080" points="613.787,284.059,609.787,290.059,613.787,296.059,617.787,290.059,613.787,284.059" style="stroke: #808080; stroke-width: 1.0;"/><text fill="#000000" font-family="sans-serif" font-size="13" lengthAdjust="spacingAndGlyphs" textLength="6" x="606.5495" y="333.1363">*</text><path d="M613.787,381.319 C613.787,396.741 613.787,415.959 613.787,427.854 " fill="none" style="stroke: #808080; stroke-width: 1.0;"/><polygon fill="#808080" points="613.787,368.059,609.787,374.059,613.787,380.059,617.787,374.059,613.787,368.059" style="stroke: #808080; stroke-width: 1.0;"/><text fill="#000000" font-family="sans-serif" font-size="13" lengthAdjust="spacingAndGlyphs" textLength="6" x="606.5495" y="417.1363">*</text><path d="M433.317,202.17 C475.363,218.206 545.616,245 584.918,259.99 " fill="none" style="stroke: #808080; stroke-width: 1.0;"/><polygon fill="#808080" points="420.986,197.467,425.1667,203.3425,432.1982,201.7433,428.0175,195.8677,420.986,197.467" style="stroke: #808080; stroke-width: 1.0;"/><text fill="#000000" font-family="sans-serif" font-size="13" lengthAdjust="spacingAndGlyphs" textLength="24" x="544.0595" y="249.3284">0..1</text><path d="M206.787,297.319 C206.787,312.741 206.787,331.959 206.787,343.854 " fill="none" style="stroke: #808080; stroke-width: 1.0;"/><polygon fill="#808080" points="206.787,284.059,202.787,290.059,206.787,296.059,210.787,290.059,206.787,284.059" style="stroke: #808080; stroke-width: 1.0;"/><text fill="#000000" font-family="sans-serif" font-size="13" lengthAdjust="spacingAndGlyphs" textLength="6" x="199.5495" y="333.1363">*</text><path d="M373.774,208.909 C359.69,221.786 343.432,239.866 335.787,260 C323.932,291.222 352.021,326.352 369.004,343.847 " fill="none" style="stroke: #808080; stroke-width: 1.0;"/><polygon fill="#808080" points="383.943,200.129,376.7875,201.023,374.8606,207.9719,382.0161,207.0779,383.943,200.129" style="stroke: #808080; stroke-width: 1.0;"/><text fill="#000000" font-family="sans-serif" font-size="13" lengthAdjust="spacingAndGlyphs" textLength="6" x="356.906" y="333.1264">*</text><path d="M385.235,381.319 C388.057,396.741 391.572,415.959 393.748,427.854 " fill="none" style="stroke: #808080; stroke-width: 1.0;"/><polygon fill="#808080" points="382.81,368.059,379.9545,374.6807,384.9686,379.8633,387.824,373.2416,382.81,368.059" style="stroke: #808080; stroke-width: 1.0;"/><text fill="#000000" font-family="sans-serif" font-size="13" lengthAdjust="spacingAndGlyphs" textLength="22" x="366.3694" y="417.1363">1..*</text><path d="M398.787,213.319 C398.787,228.741 398.787,247.959 398.787,259.854 " fill="none" style="stroke: #808080; stroke-width: 1.0;"/><polygon fill="#808080" points="398.787,200.059,394.787,206.059,398.787,212.059,402.787,206.059,398.787,200.059" style="stroke: #808080; stroke-width: 1.0;"/><text fill="#000000" font-family="sans-serif" font-size="13" lengthAdjust="spacingAndGlyphs" textLength="6" x="391.5495" y="249.1363">*</text><path d="M349.487,119.868 C290.21,140.641 193.17,184.543 148.787,260 C124.435,301.402 128.656,322.757 144.787,368 C153.606,392.737 175.151,415.081 189.354,427.841 " fill="none" style="stroke: #808080; stroke-width: 1.0;"/><polygon fill="#808080" points="361.889,115.665,354.9228,113.8017,350.5235,119.5155,357.4898,121.3787,361.889,115.665" style="stroke: #808080; stroke-width: 1.0;"/><text fill="#000000" font-family="sans-serif" font-size="13" lengthAdjust="spacingAndGlyphs" textLength="6" x="176.5754" y="417.1179">*</text><path d="M216.464,463.4311 C226.045,479.1433 238.438,499.4683 245.991,511.8544 " fill="none" style="stroke: #808080; stroke-width: 1.0;"/><polygon fill="#808080" points="209.53,452.0589,209.2383,459.2641,215.777,462.3046,216.0687,455.0994,209.53,452.0589" style="stroke: #808080; stroke-width: 1.0;"/><text fill="#000000" font-family="sans-serif" font-size="13" lengthAdjust="spacingAndGlyphs" textLength="24" x="248.1377" y="501.1369">0..1</text><path d="M398.787,45.319 C398.787,60.741 398.787,79.959 398.787,91.854 " fill="none" style="stroke: #808080; stroke-width: 1.0;"/><polygon fill="#808080" points="398.787,32.059,394.787,38.059,398.787,44.059,402.787,38.059,398.787,32.059" style="stroke: #808080; stroke-width: 1.0;"/><text fill="#000000" font-family="sans-serif" font-size="13" lengthAdjust="spacingAndGlyphs" textLength="24" x="369.837" y="81.1363">0..1</text><path d="M31.7419,368.059 C27.3118,382.12 26.8545,406.511 30.3701,422.704 " fill="none" style="stroke: #808080; stroke-width: 1.0;"/><polygon fill="#808080" points="31.7147,427.854,33.3119,418.1355,30.4518,423.0161,25.5712,420.1561,31.7147,427.854" style="stroke: #808080; stroke-width: 1.0;"/><text fill="#000000" font-family="sans-serif" font-size="13" lengthAdjust="spacingAndGlyphs" textLength="6" x="20.7349" y="417.1363">*</text><path d="M50.3639,368.059 C55.0547,382.12 55.5388,406.511 51.8164,422.704 " fill="none" style="stroke: #808080; stroke-width: 1.0;"/><polygon fill="#808080" points="50.3928,427.854,56.645,420.2442,51.7243,423.0345,48.9339,418.1138,50.3928,427.854" style="stroke: #808080; stroke-width: 1.0;"/><text fill="#000000" font-family="sans-serif" font-size="13" lengthAdjust="spacingAndGlyphs" textLength="6" x="47.1177" y="417.1363">*</text><path d="M665.61,200.059 C676.733,214.731 704.253,240.651 725.578,256.768 " fill="none" style="stroke: #808080; stroke-width: 1.0;"/><polygon fill="#808080" points="729.754,259.854,724.8947,251.2874,725.7334,256.8817,720.139,257.7204,729.754,259.854" style="stroke: #808080; stroke-width: 1.0;"/><text fill="#000000" font-family="sans-serif" font-size="13" lengthAdjust="spacingAndGlyphs" textLength="6" x="713.8404" y="249.1363">*</text><path d="M684.232,200.059 C704.356,214.364 731.602,239.362 745.028,255.541 " fill="none" style="stroke: #808080; stroke-width: 1.0;"/><polygon fill="#808080" points="748.432,259.854,745.9962,250.3111,745.3344,255.9291,739.7164,255.2673,748.432,259.854" style="stroke: #808080; stroke-width: 1.0;"/><text fill="#000000" font-family="sans-serif" font-size="13" lengthAdjust="spacingAndGlyphs" textLength="6" x="748.6981" y="249.1363">*</text><path d="M230.253,284.059 C261.994,299.017 318.543,325.667 352.565,341.7 " fill="none" style="stroke: #808080; stroke-width: 1.0;"/><polygon fill="#808080" points="357.415,343.986,350.9789,336.531,352.8921,341.8545,347.5686,343.7677,357.415,343.986" style="stroke: #808080; stroke-width: 1.0;"/><text fill="#000000" font-family="sans-serif" font-size="13" lengthAdjust="spacingAndGlyphs" textLength="24" x="324.7931" y="336.6019">0..1</text><path d="M244.279,284.059 C298.12,299.94 396.638,328.999 449.327,344.541 " fill="none" style="stroke: #808080; stroke-width: 1.0;"/><polygon fill="#808080" points="454.28,346.002,446.7808,339.6175,449.4846,344.5864,444.5158,347.2902,454.28,346.002" style="stroke: #808080; stroke-width: 1.0;"/><text fill="#000000" font-family="sans-serif" font-size="13" lengthAdjust="spacingAndGlyphs" textLength="24" x="422.1771" y="340.0346">0..1</text><path d="M184.399,284.059 C151.974,300.076 92.4111,329.499 61.1567,344.938 " fill="none" style="stroke: #808080; stroke-width: 1.0;"/><polygon fill="#808080" points="56.3921,347.291,66.2328,346.8911,60.8749,345.0764,62.6895,339.7185,56.3921,347.291" style="stroke: #808080; stroke-width: 1.0;"/><text fill="#000000" font-family="sans-serif" font-size="13" lengthAdjust="spacingAndGlyphs" textLength="24" x="64.1561" y="340.1078">0..1</text><path d="M206.247,368.059 C205.562,382.12 204.372,406.511 203.582,422.704 " fill="none" style="stroke: #808080; stroke-width: 1.0;"/><polygon fill="#808080" points="203.331,427.854,207.7659,419.0602,203.5753,422.86,199.7755,418.6693,203.331,427.854" style="stroke: #808080; stroke-width: 1.0;"/><text fill="#000000" font-family="sans-serif" font-size="13" lengthAdjust="spacingAndGlyphs" textLength="8" x="193.9054" y="417.1363">1</text></g></svg>