<?xml version="1.0" encoding="UTF-8" standalone="yes"?><svg xmlns="http://www.w3.org/2000/svg" xmlns:xlink="http://www.w3.org/1999/xlink" height="376px" style="width:308px;height:376px;" version="1.1" viewBox="0 0 308 376" width="308px"><defs><filter height="300%" id="f1" width="300%" x="-1" y="-1"><feGaussianBlur result="blurOut" stdDeviation="2.0"/><feColorMatrix in="blurOut" result="blurOut2" type="matrix" values="0 0 0 0 0 0 0 0 0 0 0 0 0 0 0 0 0 0 .4 0"/><feOffset dx="4.0" dy="4.0" in="blurOut2" result="blurOut3"/><feBlend in="SourceGraphic" in2="blurOut3" mode="normal"/></filter></defs><g><a target="_top" xlink:href="urn:x-ericsson:r2:reg-doc:*-*:*:*#AxeCpFileSystem?title=class%20CpFileSystemM" xlink:title="urn:x-ericsson:r2:reg-doc:*-*:*:*#AxeCpFileSystem?title=class%20CpFileSystemM"><rect fill="#C7DDF0" filter="url(#f1)" height="23.9629" style="stroke: #6DA3D9; stroke-width: 1.5;" width="91" x="124" y="92"/><text fill="#000000" font-family="sans-serif" font-size="12" lengthAdjust="spacingAndGlyphs" textLength="85" x="127" y="108.4023">CpFileSystemM</text></a><a target="_top" xlink:href="urn:x-ericsson:r2:reg-doc:*-*:*:*#AxeCpFileSystem?title=class%20CpVolume" xlink:title="urn:x-ericsson:r2:reg-doc:*-*:*:*#AxeCpFileSystem?title=class%20CpVolume"><rect fill="#C7DDF0" filter="url(#f1)" height="23.9629" style="stroke: #6DA3D9; stroke-width: 1.5;" width="65" x="137" y="176"/><text fill="#000000" font-family="sans-serif" font-size="12" lengthAdjust="spacingAndGlyphs" textLength="59" x="140" y="192.4023">CpVolume</text></a><a target="_top" xlink:href="urn:x-ericsson:r2:reg-doc:*-*:*:*#AxeCpFileSystem?title=class%20CompositeFile" xlink:title="urn:x-ericsson:r2:reg-doc:*-*:*:*#AxeCpFileSystem?title=class%20CompositeFile"><rect fill="#C7DDF0" filter="url(#f1)" height="23.9629" style="stroke: #6DA3D9; stroke-width: 1.5;" width="86" x="16.25" y="260"/><text fill="#000000" font-family="sans-serif" font-size="12" lengthAdjust="spacingAndGlyphs" textLength="80" x="19.25" y="276.4023">CompositeFile</text></a><a target="_top" xlink:href="urn:x-ericsson:r2:reg-doc:*-*:*:*#AxeCpFileSystem?title=class%20SimpleFile" xlink:title="urn:x-ericsson:r2:reg-doc:*-*:*:*#AxeCpFileSystem?title=class%20SimpleFile"><rect fill="#C7DDF0" filter="url(#f1)" height="23.9629" style="stroke: #6DA3D9; stroke-width: 1.5;" width="63" x="138" y="260"/><text fill="#000000" font-family="sans-serif" font-size="12" lengthAdjust="spacingAndGlyphs" textLength="57" x="141" y="276.4023">SimpleFile</text></a><a target="_top" xlink:href="urn:x-ericsson:r2:reg-doc:*-*:*:*#AxeCpFileSystem?title=class%20InfiniteFile" xlink:title="urn:x-ericsson:r2:reg-doc:*-*:*:*#AxeCpFileSystem?title=class%20InfiniteFile"><rect fill="#C7DDF0" filter="url(#f1)" height="23.9629" style="stroke: #6DA3D9; stroke-width: 1.5;" width="63" x="236" y="260"/><text fill="#000000" font-family="sans-serif" font-size="12" lengthAdjust="spacingAndGlyphs" textLength="57" x="239" y="276.4023">InfiniteFile</text></a><a target="_top" xlink:href="urn:x-ericsson:r2:reg-doc:*-*:*:*#AxeCpFileSystem?title=class%20CompositeSubFile" xlink:title="urn:x-ericsson:r2:reg-doc:*-*:*:*#AxeCpFileSystem?title=class%20CompositeSubFile"><rect fill="#C7DDF0" filter="url(#f1)" height="23.9629" style="stroke: #6DA3D9; stroke-width: 1.5;" width="107" x="6" y="344"/><text fill="#000000" font-family="sans-serif" font-size="12" lengthAdjust="spacingAndGlyphs" textLength="101" x="9" y="360.4023">CompositeSubFile</text></a><a target="_top" xlink:href="urn:x-ericsson:r2:reg-doc:*-*:*:*#AxeFunctions?title=class%20SystemHandling" xlink:title="urn:x-ericsson:r2:reg-doc:*-*:*:*#AxeFunctions?title=class%20SystemHandling"><rect fill="#C7DDF0" filter="url(#f1)" height="23.9629" style="stroke: #6DA3D9; stroke-width: 1.5;" width="97" x="121" y="8"/><text fill="#000000" font-family="sans-serif" font-size="12" lengthAdjust="spacingAndGlyphs" textLength="91" x="124" y="24.4023">SystemHandling</text></a><path d="M169.25,129.319 C169.25,144.741 169.25,163.959 169.25,175.854 " fill="none" style="stroke: #808080; stroke-width: 1.0;"/><polygon fill="#808080" points="169.25,116.059,165.25,122.059,169.25,128.059,173.25,122.059,169.25,116.059" style="stroke: #808080; stroke-width: 1.0;"/><text fill="#000000" font-family="sans-serif" font-size="13" lengthAdjust="spacingAndGlyphs" textLength="6" x="160.7891" y="165.1376">*</text><path d="M169.25,213.319 C169.25,228.741 169.25,247.959 169.25,259.854 " fill="none" style="stroke: #808080; stroke-width: 1.0;"/><polygon fill="#808080" points="169.25,200.059,165.25,206.059,169.25,212.059,173.25,206.059,169.25,200.059" style="stroke: #808080; stroke-width: 1.0;"/><text fill="#000000" font-family="sans-serif" font-size="13" lengthAdjust="spacingAndGlyphs" textLength="6" x="160.7891" y="249.1376">*</text><path d="M192.505,208.458 C211.67,224.494 238.174,246.671 253.93,259.854 " fill="none" style="stroke: #808080; stroke-width: 1.0;"/><polygon fill="#808080" points="182.467,200.059,184.5015,206.9772,191.67,207.76,189.6355,200.8418,182.467,200.059" style="stroke: #808080; stroke-width: 1.0;"/><text fill="#000000" font-family="sans-serif" font-size="13" lengthAdjust="spacingAndGlyphs" textLength="6" x="240.8903" y="249.1376">*</text><path d="M143.746,208.012 C122.19,224.081 92.0508,246.548 74.2014,259.854 " fill="none" style="stroke: #808080; stroke-width: 1.0;"/><polygon fill="#808080" points="154.415,200.059,147.2139,200.4381,144.7942,207.2311,151.9953,206.852,154.415,200.059" style="stroke: #808080; stroke-width: 1.0;"/><text fill="#000000" font-family="sans-serif" font-size="13" lengthAdjust="spacingAndGlyphs" textLength="6" x="70.9659" y="249.1376">*</text><path d="M59.25,297.3188 C59.25,312.7407 59.25,331.9588 59.25,343.8544 " fill="none" style="stroke: #808080; stroke-width: 1.0;"/><polygon fill="#808080" points="59.25,284.0589,55.25,290.0589,59.25,296.0589,63.25,290.0589,59.25,284.0589" style="stroke: #808080; stroke-width: 1.0;"/><text fill="#000000" font-family="sans-serif" font-size="13" lengthAdjust="spacingAndGlyphs" textLength="6" x="50.7891" y="333.1381">*</text><path d="M169.25,45.319 C169.25,60.741 169.25,79.959 169.25,91.854 " fill="none" style="stroke: #808080; stroke-width: 1.0;"/><polygon fill="#808080" points="169.25,32.059,165.25,38.059,169.25,44.059,173.25,38.059,169.25,32.059" style="stroke: #808080; stroke-width: 1.0;"/><text fill="#000000" font-family="sans-serif" font-size="13" lengthAdjust="spacingAndGlyphs" textLength="8" x="158.4453" y="81.1376">1</text></g></svg>