<?xml version="1.0" encoding="UTF-8" standalone="yes"?><svg xmlns="http://www.w3.org/2000/svg" xmlns:xlink="http://www.w3.org/1999/xlink" height="305px" style="width:156px;height:305px;" version="1.1" viewBox="0 0 156 305" width="156px"><defs><filter height="300%" id="f1" width="300%" x="-1" y="-1"><feGaussianBlur result="blurOut" stdDeviation="2.0"/><feColorMatrix in="blurOut" result="blurOut2" type="matrix" values="0 0 0 0 0 0 0 0 0 0 0 0 0 0 0 0 0 0 .4 0"/><feOffset dx="4.0" dy="4.0" in="blurOut2" result="blurOut3"/><feBlend in="SourceGraphic" in2="blurOut3" mode="normal"/></filter></defs><g><a target="_top" xlink:href="urn:x-ericsson:r2:reg-doc:*-*:*:*#CmwSwIM?title=class%20SwInventory" xlink:title="urn:x-ericsson:r2:reg-doc:*-*:*:*#CmwSwIM?title=class%20SwInventory"><rect fill="#C7DDF0" filter="url(#f1)" height="23.9629" style="stroke: #6DA3D9; stroke-width: 1.5;" width="73" x="19" y="91.945"/><text fill="#000000" font-family="sans-serif" font-size="12" lengthAdjust="spacingAndGlyphs" textLength="67" x="22" y="108.3473">SwInventory</text></a><a target="_top" xlink:href="urn:x-ericsson:r2:reg-doc:*-*:*:*#CmwSwIM?title=class%20SwVersion" xlink:title="urn:x-ericsson:r2:reg-doc:*-*:*:*#CmwSwIM?title=class%20SwVersion"><rect fill="#C7DDF0" filter="url(#f1)" height="23.9629" style="stroke: #6DA3D9; stroke-width: 1.5;" width="64" x="23.25" y="175.945"/><text fill="#000000" font-family="sans-serif" font-size="12" lengthAdjust="spacingAndGlyphs" textLength="58" x="26.25" y="192.3473">SwVersion</text></a><a target="_top" xlink:href="urn:x-ericsson:r2:reg-doc:*-*:*:*#CmwSwIM?title=class%20SwItem" xlink:title="urn:x-ericsson:r2:reg-doc:*-*:*:*#CmwSwIM?title=class%20SwItem"><rect fill="#C7DDF0" filter="url(#f1)" height="23.9629" style="stroke: #6DA3D9; stroke-width: 1.5;" width="46" x="74.25" y="259.9453"/><text fill="#000000" font-family="sans-serif" font-size="12" lengthAdjust="spacingAndGlyphs" textLength="40" x="77.25" y="276.3476">SwItem</text></a><a target="_top" xlink:href="urn:x-ericsson:r2:reg-doc:*-*:*:*#ComTop?title=class%20SystemFunctions" xlink:title="urn:x-ericsson:r2:reg-doc:*-*:*:*#ComTop?title=class%20SystemFunctions"><rect fill="#C7DDF0" filter="url(#f1)" height="23.9629" style="stroke: #6DA3D9; stroke-width: 1.5;" width="99" x="6" y="7.945"/><text fill="#000000" font-family="sans-serif" font-size="12" lengthAdjust="spacingAndGlyphs" textLength="93" x="9" y="24.3473">SystemFunctions</text></a><path d="M75.4433,126.13 C86.5916,139.331 99.3455,157.306 105.25,175.945 C114.497,205.1358 106.2013,241.7489 100.8886,259.8124 " fill="none" style="stroke: #808080; stroke-width: 1.0;"/><polygon fill="#808080" points="66.6419,116.255,67.648,123.3956,74.6263,125.2132,73.6202,118.0726,66.6419,116.255" style="stroke: #808080; stroke-width: 1.0;"/><text fill="#000000" font-family="sans-serif" font-size="13" lengthAdjust="spacingAndGlyphs" textLength="6" x="93.7644" y="249.1005">*</text><path d="M43.549,128.788 C41.5402,144.289 42.4164,163.781 46.1778,175.8 " fill="none" style="stroke: #808080; stroke-width: 1.0;"/><polygon fill="#808080" points="46.205,116.004,41.0682,121.0649,43.7641,127.7531,48.9009,122.6922,46.205,116.004" style="stroke: #808080; stroke-width: 1.0;"/><text fill="#000000" font-family="sans-serif" font-size="13" lengthAdjust="spacingAndGlyphs" textLength="6" x="34.6842" y="165.0839">*</text><path d="M64.8271,116.004 C69.5178,130.065 70.0019,154.456 66.2795,170.649 " fill="none" style="stroke: #808080; stroke-width: 1.0;"/><polygon fill="#808080" points="64.8559,175.8,71.1102,168.1919,66.1887,170.9809,63.3997,166.0594,64.8559,175.8" style="stroke: #808080; stroke-width: 1.0;"/><text fill="#000000" font-family="sans-serif" font-size="13" lengthAdjust="spacingAndGlyphs" textLength="22" x="71.9392" y="165.0839">1..*</text><path d="M55.25,45.264 C55.25,60.686 55.25,79.904 55.25,91.8 " fill="none" style="stroke: #808080; stroke-width: 1.0;"/><polygon fill="#808080" points="55.25,32.004,51.25,38.004,55.25,44.004,59.25,38.004,55.25,32.004" style="stroke: #808080; stroke-width: 1.0;"/><text fill="#000000" font-family="sans-serif" font-size="13" lengthAdjust="spacingAndGlyphs" textLength="8" x="44.4453" y="81.0839">1</text><path d="M60.9143,200.0041 C68.1788,214.1872 80.8268,238.8808 89.1186,255.0697 " fill="none" style="stroke: #808080; stroke-width: 1.0;"/><polygon fill="#808080" points="91.5413,259.7997,90.9984,249.9658,89.2619,255.3495,83.8781,253.6129,91.5413,259.7997" style="stroke: #808080; stroke-width: 1.0;"/><text fill="#000000" font-family="sans-serif" font-size="13" lengthAdjust="spacingAndGlyphs" textLength="6" x="81.2039" y="249.0834">*</text><path d="M115.064,259.8905 C133.951,252.3411 155.25,256.3593 155.25,271.9453 C155.25,286.1918 137.454,290.7734 119.972,285.69 " fill="none" style="stroke: #808080; stroke-width: 1.0;"/><polygon fill="#808080" points="115.064,284,122.2704,290.7133,119.7914,285.6285,124.8761,283.1495,115.064,284" style="stroke: #808080; stroke-width: 1.0;"/><text fill="#000000" font-family="sans-serif" font-size="13" lengthAdjust="spacingAndGlyphs" textLength="6" x="113.7623" y="304.4526">*</text></g></svg>