<?xml version="1.0" encoding="UTF-8" standalone="yes"?><svg xmlns="http://www.w3.org/2000/svg" xmlns:xlink="http://www.w3.org/1999/xlink" height="376px" style="width:121px;height:376px;" version="1.1" viewBox="0 0 121 376" width="121px"><defs><filter height="300%" id="f1" width="300%" x="-1" y="-1"><feGaussianBlur result="blurOut" stdDeviation="2.0"/><feColorMatrix in="blurOut" result="blurOut2" type="matrix" values="0 0 0 0 0 0 0 0 0 0 0 0 0 0 0 0 0 0 .4 0"/><feOffset dx="4.0" dy="4.0" in="blurOut2" result="blurOut3"/><feBlend in="SourceGraphic" in2="blurOut3" mode="normal"/></filter></defs><g><a target="_top" xlink:href="urn:x-ericsson:r2:reg-doc:*-*:*:*#ComFileM?title=class%20FileM" xlink:title="urn:x-ericsson:r2:reg-doc:*-*:*:*#ComFileM?title=class%20FileM"><rect fill="#C7DDF0" filter="url(#f1)" height="23.9629" style="stroke: #6DA3D9; stroke-width: 1.5;" width="35" x="38" y="92"/><text fill="#000000" font-family="sans-serif" font-size="12" lengthAdjust="spacingAndGlyphs" textLength="29" x="41" y="108.4023">FileM</text></a><a target="_top" xlink:href="urn:x-ericsson:r2:reg-doc:*-*:*:*#ComFileM?title=class%20LogicalFs" xlink:title="urn:x-ericsson:r2:reg-doc:*-*:*:*#ComFileM?title=class%20LogicalFs"><rect fill="#C7DDF0" filter="url(#f1)" height="23.9629" style="stroke: #6DA3D9; stroke-width: 1.5;" width="57" x="27" y="176"/><text fill="#000000" font-family="sans-serif" font-size="12" lengthAdjust="spacingAndGlyphs" textLength="51" x="30" y="192.4023">LogicalFs</text></a><a target="_top" xlink:href="urn:x-ericsson:r2:reg-doc:*-*:*:*#ComFileM?title=class%20FileGroup" xlink:title="urn:x-ericsson:r2:reg-doc:*-*:*:*#ComFileM?title=class%20FileGroup"><rect fill="#C7DDF0" filter="url(#f1)" height="23.9629" style="stroke: #6DA3D9; stroke-width: 1.5;" width="61" x="25" y="260"/><text fill="#000000" font-family="sans-serif" font-size="12" lengthAdjust="spacingAndGlyphs" textLength="55" x="28" y="276.4023">FileGroup</text></a><a target="_top" xlink:href="urn:x-ericsson:r2:reg-doc:*-*:*:*#ComFileM?title=class%20FileInformation" xlink:title="urn:x-ericsson:r2:reg-doc:*-*:*:*#ComFileM?title=class%20FileInformation"><rect fill="#C7DDF0" filter="url(#f1)" height="23.9629" style="stroke: #6DA3D9; stroke-width: 1.5;" width="90" x="10.25" y="344"/><text fill="#000000" font-family="sans-serif" font-size="12" lengthAdjust="spacingAndGlyphs" textLength="84" x="13.25" y="360.4023">FileInformation</text></a><a target="_top" xlink:href="urn:x-ericsson:r2:reg-doc:*-*:*:*#ComTop?title=class%20SystemFunctions" xlink:title="urn:x-ericsson:r2:reg-doc:*-*:*:*#ComTop?title=class%20SystemFunctions"><rect fill="#C7DDF0" filter="url(#f1)" height="23.9629" style="stroke: #6DA3D9; stroke-width: 1.5;" width="99" x="6" y="8"/><text fill="#000000" font-family="sans-serif" font-size="12" lengthAdjust="spacingAndGlyphs" textLength="93" x="9" y="24.4023">SystemFunctions</text></a><path d="M55.25,129.319 C55.25,144.741 55.25,163.959 55.25,175.854 " fill="none" style="stroke: #808080; stroke-width: 1.0;"/><polygon fill="#808080" points="55.25,116.059,51.25,122.059,55.25,128.059,59.25,122.059,55.25,116.059" style="stroke: #808080; stroke-width: 1.0;"/><text fill="#000000" font-family="sans-serif" font-size="13" lengthAdjust="spacingAndGlyphs" textLength="8" x="44.4453" y="165.1376">1</text><path d="M88.2243,256.777 C105.0924,254.506 120.25,259.58 120.25,272 C120.25,287.5859 96.3802,291.6042 75.2143,284.0547 " fill="none" style="stroke: #808080; stroke-width: 1.0;"/><polygon fill="#808080" points="75.2143,259.945,81.9904,262.4116,86.8735,257.1055,80.0974,254.6388,75.2143,259.945" style="stroke: #808080; stroke-width: 1.0;"/><text fill="#000000" font-family="sans-serif" font-size="13" lengthAdjust="spacingAndGlyphs" textLength="6" x="74.6964" y="304.5073">*</text><path d="M55.25,297.3188 C55.25,312.7407 55.25,331.9588 55.25,343.8544 " fill="none" style="stroke: #808080; stroke-width: 1.0;"/><polygon fill="#808080" points="55.25,284.0589,51.25,290.0589,55.25,296.0589,59.25,290.0589,55.25,284.0589" style="stroke: #808080; stroke-width: 1.0;"/><text fill="#000000" font-family="sans-serif" font-size="13" lengthAdjust="spacingAndGlyphs" textLength="6" x="46.875" y="333.1381">*</text><path d="M55.25,213.319 C55.25,228.741 55.25,247.959 55.25,259.854 " fill="none" style="stroke: #808080; stroke-width: 1.0;"/><polygon fill="#808080" points="55.25,200.059,51.25,206.059,55.25,212.059,59.25,206.059,55.25,200.059" style="stroke: #808080; stroke-width: 1.0;"/><text fill="#000000" font-family="sans-serif" font-size="13" lengthAdjust="spacingAndGlyphs" textLength="6" x="46.7891" y="249.1376">*</text><path d="M55.25,45.319 C55.25,60.741 55.25,79.959 55.25,91.854 " fill="none" style="stroke: #808080; stroke-width: 1.0;"/><polygon fill="#808080" points="55.25,32.059,51.25,38.059,55.25,44.059,59.25,38.059,55.25,32.059" style="stroke: #808080; stroke-width: 1.0;"/><text fill="#000000" font-family="sans-serif" font-size="13" lengthAdjust="spacingAndGlyphs" textLength="8" x="44.4453" y="81.1376">1</text></g></svg>