<?xml version="1.0" encoding="UTF-8" standalone="yes"?><svg xmlns="http://www.w3.org/2000/svg" xmlns:xlink="http://www.w3.org/1999/xlink" height="292px" style="width:235px;height:292px;" version="1.1" viewBox="0 0 235 292" width="235px"><defs><filter height="300%" id="f1" width="300%" x="-1" y="-1"><feGaussianBlur result="blurOut" stdDeviation="2.0"/><feColorMatrix in="blurOut" result="blurOut2" type="matrix" values="0 0 0 0 0 0 0 0 0 0 0 0 0 0 0 0 0 0 .4 0"/><feOffset dx="4.0" dy="4.0" in="blurOut2" result="blurOut3"/><feBlend in="SourceGraphic" in2="blurOut3" mode="normal"/></filter></defs><g><a target="_top" xlink:href="urn:x-ericsson:r2:reg-doc:*-*:*:*#BrM?title=class%20BrM" xlink:title="urn:x-ericsson:r2:reg-doc:*-*:*:*#BrM?title=class%20BrM"><rect fill="#C7DDF0" filter="url(#f1)" height="23.9629" style="stroke: #6DA3D9; stroke-width: 1.5;" width="28" x="91.5" y="92"/><text fill="#000000" font-family="sans-serif" font-size="12" lengthAdjust="spacingAndGlyphs" textLength="22" x="94.5" y="108.4023">BrM</text></a><a target="_top" xlink:href="urn:x-ericsson:r2:reg-doc:*-*:*:*#BrM?title=class%20BrmBackupManager" xlink:title="urn:x-ericsson:r2:reg-doc:*-*:*:*#BrM?title=class%20BrmBackupManager"><rect fill="#C7DDF0" filter="url(#f1)" height="23.9629" style="stroke: #6DA3D9; stroke-width: 1.5;" width="121" x="45" y="176"/><text fill="#000000" font-family="sans-serif" font-size="12" lengthAdjust="spacingAndGlyphs" textLength="115" x="48" y="192.4023">BrmBackupManager</text></a><a target="_top" xlink:href="urn:x-ericsson:r2:reg-doc:*-*:*:*#BrM?title=class%20BrmBackup" xlink:title="urn:x-ericsson:r2:reg-doc:*-*:*:*#BrM?title=class%20BrmBackup"><rect fill="#C7DDF0" filter="url(#f1)" height="23.9629" style="stroke: #6DA3D9; stroke-width: 1.5;" width="71" x="6" y="260"/><text fill="#000000" font-family="sans-serif" font-size="12" lengthAdjust="spacingAndGlyphs" textLength="65" x="9" y="276.4023">BrmBackup</text></a><a target="_top" xlink:href="urn:x-ericsson:r2:reg-doc:*-*:*:*#BrM?title=class%20BrmFailsafeBackup" xlink:title="urn:x-ericsson:r2:reg-doc:*-*:*:*#BrM?title=class%20BrmFailsafeBackup"><rect fill="#C7DDF0" filter="url(#f1)" height="23.9629" style="stroke: #6DA3D9; stroke-width: 1.5;" width="114" x="112.5" y="260"/><text fill="#000000" font-family="sans-serif" font-size="12" lengthAdjust="spacingAndGlyphs" textLength="108" x="115.5" y="276.4023">BrmFailsafeBackup</text></a><a target="_top" xlink:href="urn:x-ericsson:r2:reg-doc:*-*:*:*#ComTop?title=class%20SystemFunctions" xlink:title="urn:x-ericsson:r2:reg-doc:*-*:*:*#ComTop?title=class%20SystemFunctions"><rect fill="#C7DDF0" filter="url(#f1)" height="23.9629" style="stroke: #6DA3D9; stroke-width: 1.5;" width="99" x="56" y="8"/><text fill="#000000" font-family="sans-serif" font-size="12" lengthAdjust="spacingAndGlyphs" textLength="93" x="59" y="24.4023">SystemFunctions</text></a><path d="M105.5,129.319 C105.5,144.741 105.5,163.959 105.5,175.854 " fill="none" style="stroke: #808080; stroke-width: 1.0;"/><polygon fill="#808080" points="105.5,116.059,101.5,122.059,105.5,128.059,109.5,122.059,105.5,116.059" style="stroke: #808080; stroke-width: 1.0;"/><text fill="#000000" font-family="sans-serif" font-size="13" lengthAdjust="spacingAndGlyphs" textLength="6" x="98.2625" y="165.1363">*</text><path d="M88.717,210.5032 C76.3603,226.3352 60.0577,247.223 50.199,259.8544 " fill="none" style="stroke: #808080; stroke-width: 1.0;"/><polygon fill="#808080" points="96.8687,200.0589,90.0238,202.3277,89.4854,209.5187,96.3303,207.2499,96.8687,200.0589" style="stroke: #808080; stroke-width: 1.0;"/><text fill="#000000" font-family="sans-serif" font-size="13" lengthAdjust="spacingAndGlyphs" textLength="6" x="46.5498" y="249.1369">*</text><path d="M122.283,210.5032 C134.64,226.3352 150.942,247.223 160.801,259.8544 " fill="none" style="stroke: #808080; stroke-width: 1.0;"/><polygon fill="#808080" points="114.131,200.0589,114.6692,207.2499,121.5141,209.5188,120.9758,202.3278,114.131,200.0589" style="stroke: #808080; stroke-width: 1.0;"/><text fill="#000000" font-family="sans-serif" font-size="13" lengthAdjust="spacingAndGlyphs" textLength="24" x="128.2627" y="249.1369">0..1</text><path d="M105.5,45.319 C105.5,60.741 105.5,79.959 105.5,91.854 " fill="none" style="stroke: #808080; stroke-width: 1.0;"/><polygon fill="#808080" points="105.5,32.059,101.5,38.059,105.5,44.059,109.5,38.059,105.5,32.059" style="stroke: #808080; stroke-width: 1.0;"/><text fill="#000000" font-family="sans-serif" font-size="13" lengthAdjust="spacingAndGlyphs" textLength="8" x="95.85" y="81.1363">1</text></g></svg>