<?xml version="1.0" encoding="UTF-8" standalone="yes"?><svg xmlns="http://www.w3.org/2000/svg" xmlns:xlink="http://www.w3.org/1999/xlink" height="376px" style="width:533px;height:376px;" version="1.1" viewBox="0 0 533 376" width="533px"><defs><filter height="300%" id="f1" width="300%" x="-1" y="-1"><feGaussianBlur result="blurOut" stdDeviation="2.0"/><feColorMatrix in="blurOut" result="blurOut2" type="matrix" values="0 0 0 0 0 0 0 0 0 0 0 0 0 0 0 0 0 0 .4 0"/><feOffset dx="4.0" dy="4.0" in="blurOut2" result="blurOut3"/><feBlend in="SourceGraphic" in2="blurOut3" mode="normal"/></filter></defs><g><a target="_top" xlink:href="urn:x-ericsson:r2:reg-doc:*-*:*:*#AxeHealthCheck?title=class%20HealthCheckM" xlink:title="urn:x-ericsson:r2:reg-doc:*-*:*:*#AxeHealthCheck?title=class%20HealthCheckM"><rect fill="#C7DDF0" filter="url(#f1)" height="23.9629" style="stroke: #6DA3D9; stroke-width: 1.5;" width="88" x="131.641" y="92"/><text fill="#000000" font-family="sans-serif" font-size="12" lengthAdjust="spacingAndGlyphs" textLength="82" x="134.641" y="108.4023">HealthCheckM</text></a><a target="_top" xlink:href="urn:x-ericsson:r2:reg-doc:*-*:*:*#AxeHealthCheck?title=class%20Category" xlink:title="urn:x-ericsson:r2:reg-doc:*-*:*:*#AxeHealthCheck?title=class%20Category"><rect fill="#C7DDF0" filter="url(#f1)" height="23.9629" style="stroke: #6DA3D9; stroke-width: 1.5;" width="57" x="9.3908" y="176"/><text fill="#000000" font-family="sans-serif" font-size="12" lengthAdjust="spacingAndGlyphs" textLength="51" x="12.3908" y="192.4023">Category</text></a><a target="_top" xlink:href="urn:x-ericsson:r2:reg-doc:*-*:*:*#AxeHealthCheck?title=class%20Rule" xlink:title="urn:x-ericsson:r2:reg-doc:*-*:*:*#AxeHealthCheck?title=class%20Rule"><rect fill="#C7DDF0" filter="url(#f1)" height="23.9629" style="stroke: #6DA3D9; stroke-width: 1.5;" width="31" x="12.3908" y="260"/><text fill="#000000" font-family="sans-serif" font-size="12" lengthAdjust="spacingAndGlyphs" textLength="25" x="15.3908" y="276.4023">Rule</text></a><a target="_top" xlink:href="urn:x-ericsson:r2:reg-doc:*-*:*:*#AxeHealthCheck?title=class%20RuleSetFile" xlink:title="urn:x-ericsson:r2:reg-doc:*-*:*:*#AxeHealthCheck?title=class%20RuleSetFile"><rect fill="#C7DDF0" filter="url(#f1)" height="23.9629" style="stroke: #6DA3D9; stroke-width: 1.5;" width="67" x="63.3908" y="344"/><text fill="#000000" font-family="sans-serif" font-size="12" lengthAdjust="spacingAndGlyphs" textLength="61" x="66.3908" y="360.4023">RuleSetFile</text></a><a target="_top" xlink:href="urn:x-ericsson:r2:reg-doc:*-*:*:*#AxeHealthCheck?title=class%20RuleFileManager" xlink:title="urn:x-ericsson:r2:reg-doc:*-*:*:*#AxeHealthCheck?title=class%20RuleFileManager"><rect fill="#C7DDF0" filter="url(#f1)" height="23.9629" style="stroke: #6DA3D9; stroke-width: 1.5;" width="100" x="125.641" y="176"/><text fill="#000000" font-family="sans-serif" font-size="12" lengthAdjust="spacingAndGlyphs" textLength="94" x="128.641" y="192.4023">RuleFileManager</text></a><a target="_top" xlink:href="urn:x-ericsson:r2:reg-doc:*-*:*:*#AxeHealthCheck?title=class%20InUse" xlink:title="urn:x-ericsson:r2:reg-doc:*-*:*:*#AxeHealthCheck?title=class%20InUse"><rect fill="#C7DDF0" filter="url(#f1)" height="23.9629" style="stroke: #6DA3D9; stroke-width: 1.5;" width="37" x="78.3908" y="260"/><text fill="#000000" font-family="sans-serif" font-size="12" lengthAdjust="spacingAndGlyphs" textLength="31" x="81.3908" y="276.4023">InUse</text></a><a target="_top" xlink:href="urn:x-ericsson:r2:reg-doc:*-*:*:*#AxeHealthCheck?title=class%20ReadyToUse" xlink:title="urn:x-ericsson:r2:reg-doc:*-*:*:*#AxeHealthCheck?title=class%20ReadyToUse"><rect fill="#C7DDF0" filter="url(#f1)" height="23.9629" style="stroke: #6DA3D9; stroke-width: 1.5;" width="78" x="150.641" y="260"/><text fill="#000000" font-family="sans-serif" font-size="12" lengthAdjust="spacingAndGlyphs" textLength="72" x="153.641" y="276.4023">ReadyToUse</text></a><a target="_top" xlink:href="urn:x-ericsson:r2:reg-doc:*-*:*:*#AxeHealthCheck?title=class%20Job" xlink:title="urn:x-ericsson:r2:reg-doc:*-*:*:*#AxeHealthCheck?title=class%20Job"><rect fill="#C7DDF0" filter="url(#f1)" height="23.9629" style="stroke: #6DA3D9; stroke-width: 1.5;" width="25" x="281.391" y="176"/><text fill="#000000" font-family="sans-serif" font-size="12" lengthAdjust="spacingAndGlyphs" textLength="19" x="284.391" y="192.4023">Job</text></a><a target="_top" xlink:href="urn:x-ericsson:r2:reg-doc:*-*:*:*#AxeHealthCheck?title=class%20SingleEvent" xlink:title="urn:x-ericsson:r2:reg-doc:*-*:*:*#AxeHealthCheck?title=class%20SingleEvent"><rect fill="#C7DDF0" filter="url(#f1)" height="23.9629" style="stroke: #6DA3D9; stroke-width: 1.5;" width="70" x="165.641" y="344"/><text fill="#000000" font-family="sans-serif" font-size="12" lengthAdjust="spacingAndGlyphs" textLength="64" x="168.641" y="360.4023">SingleEvent</text></a><a target="_top" xlink:href="urn:x-ericsson:r2:reg-doc:*-*:*:*#AxeHealthCheck?title=class%20PeriodicEvent" xlink:title="urn:x-ericsson:r2:reg-doc:*-*:*:*#AxeHealthCheck?title=class%20PeriodicEvent"><rect fill="#C7DDF0" filter="url(#f1)" height="23.9629" style="stroke: #6DA3D9; stroke-width: 1.5;" width="83" x="271.391" y="344"/><text fill="#000000" font-family="sans-serif" font-size="12" lengthAdjust="spacingAndGlyphs" textLength="77" x="274.391" y="360.4023">PeriodicEvent</text></a><a target="_top" xlink:href="urn:x-ericsson:r2:reg-doc:*-*:*:*#AxeHealthCheck?title=class%20CalendarPeriodicEvent" xlink:title="urn:x-ericsson:r2:reg-doc:*-*:*:*#AxeHealthCheck?title=class%20CalendarPeriodicEvent"><rect fill="#C7DDF0" filter="url(#f1)" height="23.9629" style="stroke: #6DA3D9; stroke-width: 1.5;" width="135" x="389.391" y="344"/><text fill="#000000" font-family="sans-serif" font-size="12" lengthAdjust="spacingAndGlyphs" textLength="129" x="392.391" y="360.4023">CalendarPeriodicEvent</text></a><a target="_top" xlink:href="urn:x-ericsson:r2:reg-doc:*-*:*:*#AxeHealthCheck?title=class%20JobScheduler" xlink:title="urn:x-ericsson:r2:reg-doc:*-*:*:*#AxeHealthCheck?title=class%20JobScheduler"><rect fill="#C7DDF0" filter="url(#f1)" height="23.9629" style="stroke: #6DA3D9; stroke-width: 1.5;" width="81" x="268.391" y="260"/><text fill="#000000" font-family="sans-serif" font-size="12" lengthAdjust="spacingAndGlyphs" textLength="75" x="271.391" y="276.4023">JobScheduler</text></a><a target="_top" xlink:href="urn:x-ericsson:r2:reg-doc:*-*:*:*#ComTop?title=class%20SystemFunctions" xlink:title="urn:x-ericsson:r2:reg-doc:*-*:*:*#ComTop?title=class%20SystemFunctions"><rect fill="#C7DDF0" filter="url(#f1)" height="23.9629" style="stroke: #6DA3D9; stroke-width: 1.5;" width="99" x="126.391" y="8"/><text fill="#000000" font-family="sans-serif" font-size="12" lengthAdjust="spacingAndGlyphs" textLength="93" x="129.391" y="24.4023">SystemFunctions</text></a><path d="M34.6751,213.319 C32.7944,228.741 30.4507,247.959 29,259.854 " fill="none" style="stroke: #808080; stroke-width: 1.0;"/><polygon fill="#808080" points="36.2921,200.059,31.595,205.5305,34.8389,211.9707,39.5361,206.4992,36.2921,200.059" style="stroke: #808080; stroke-width: 1.0;"/><text fill="#000000" font-family="sans-serif" font-size="13" lengthAdjust="spacingAndGlyphs" textLength="22" x="2.2563" y="249.1376">1..*</text><path d="M155.807,209.587 C140.456,225.521 119.784,246.978 107.379,259.854 " fill="none" style="stroke: #808080; stroke-width: 1.0;"/><polygon fill="#808080" points="164.986,200.059,157.9425,201.6048,156.6604,208.701,163.7039,207.1552,164.986,200.059" style="stroke: #808080; stroke-width: 1.0;"/><text fill="#000000" font-family="sans-serif" font-size="13" lengthAdjust="spacingAndGlyphs" textLength="8" x="100.265" y="249.1376">1</text><path d="M179.793,213.319 C182.426,228.741 185.707,247.959 187.738,259.854 " fill="none" style="stroke: #808080; stroke-width: 1.0;"/><polygon fill="#808080" points="177.529,200.059,174.5955,206.6465,179.548,211.8879,182.4815,205.3005,177.529,200.059" style="stroke: #808080; stroke-width: 1.0;"/><text fill="#000000" font-family="sans-serif" font-size="13" lengthAdjust="spacingAndGlyphs" textLength="8" x="176.3651" y="249.1376">1</text><path d="M96.6408,297.3188 C96.6408,312.7407 96.6408,331.9588 96.6408,343.8544 " fill="none" style="stroke: #808080; stroke-width: 1.0;"/><polygon fill="#808080" points="96.6408,284.0589,92.6408,290.0589,96.6408,296.0589,100.6408,290.0589,96.6408,284.0589" style="stroke: #808080; stroke-width: 1.0;"/><text fill="#000000" font-family="sans-serif" font-size="13" lengthAdjust="spacingAndGlyphs" textLength="6" x="88.1799" y="333.1381">*</text><path d="M167.318,292.6823 C149.151,308.7004 124.164,330.7324 109.281,343.8544 " fill="none" style="stroke: #808080; stroke-width: 1.0;"/><polygon fill="#808080" points="177.098,284.0589,169.9522,285.0271,168.0975,291.9956,175.2433,291.0274,177.098,284.0589" style="stroke: #808080; stroke-width: 1.0;"/><text fill="#000000" font-family="sans-serif" font-size="13" lengthAdjust="spacingAndGlyphs" textLength="6" x="105.1658" y="333.1381">*</text><path d="M175.641,129.319 C175.641,144.741 175.641,163.959 175.641,175.854 " fill="none" style="stroke: #808080; stroke-width: 1.0;"/><polygon fill="#808080" points="175.641,116.059,171.641,122.059,175.641,128.059,179.641,122.059,175.641,116.059" style="stroke: #808080; stroke-width: 1.0;"/><text fill="#000000" font-family="sans-serif" font-size="13" lengthAdjust="spacingAndGlyphs" textLength="24" x="146.1723" y="165.1376">0..1</text><path d="M145.496,122.912 C118.353,139.041 79.3069,162.242 56.3979,175.854 " fill="none" style="stroke: #808080; stroke-width: 1.0;"/><polygon fill="#808080" points="157.029,116.059,149.8276,115.6856,146.7131,122.1895,153.9145,122.5629,157.029,116.059" style="stroke: #808080; stroke-width: 1.0;"/><text fill="#000000" font-family="sans-serif" font-size="13" lengthAdjust="spacingAndGlyphs" textLength="6" x="54.3847" y="165.1376">*</text><path d="M202.349,123.56 C227.025,140.708 262.593,165.424 281.21,178.361 " fill="none" style="stroke: #808080; stroke-width: 1.0;"/><polygon fill="#808080" points="191.555,116.059,194.1996,122.7677,201.4093,122.9068,198.7648,116.1981,191.555,116.059" style="stroke: #808080; stroke-width: 1.0;"/><text fill="#000000" font-family="sans-serif" font-size="13" lengthAdjust="spacingAndGlyphs" textLength="6" x="267.3291" y="167.2649">*</text><path d="M283.6,292.0123 C262.437,308.081 232.845,330.5485 215.32,343.8544 " fill="none" style="stroke: #808080; stroke-width: 1.0;"/><polygon fill="#808080" points="294.075,284.0589,286.8775,284.5014,284.5177,291.3155,291.7152,290.873,294.075,284.0589" style="stroke: #808080; stroke-width: 1.0;"/><text fill="#000000" font-family="sans-serif" font-size="13" lengthAdjust="spacingAndGlyphs" textLength="6" x="211.9909" y="333.1381">*</text><path d="M309.827,297.3188 C310.579,312.7407 311.517,331.9588 312.097,343.8544 " fill="none" style="stroke: #808080; stroke-width: 1.0;"/><polygon fill="#808080" points="309.18,284.0589,305.4772,290.2467,309.7648,296.0446,313.4677,289.8568,309.18,284.0589" style="stroke: #808080; stroke-width: 1.0;"/><text fill="#000000" font-family="sans-serif" font-size="13" lengthAdjust="spacingAndGlyphs" textLength="6" x="303.4491" y="333.1381">*</text><path d="M340.186,290.4777 C369.324,306.6219 411.734,330.1193 436.524,343.8544 " fill="none" style="stroke: #808080; stroke-width: 1.0;"/><polygon fill="#808080" points="328.601,284.0589,331.9109,290.4655,339.0977,289.8744,335.7878,283.4677,328.601,284.0589" style="stroke: #808080; stroke-width: 1.0;"/><text fill="#000000" font-family="sans-serif" font-size="13" lengthAdjust="spacingAndGlyphs" textLength="6" x="421.1478" y="333.1381">*</text><path d="M298.089,213.319 C300.91,228.741 304.426,247.959 306.602,259.854 " fill="none" style="stroke: #808080; stroke-width: 1.0;"/><polygon fill="#808080" points="295.664,200.059,292.8085,206.6807,297.8226,211.8633,300.678,205.2416,295.664,200.059" style="stroke: #808080; stroke-width: 1.0;"/><text fill="#000000" font-family="sans-serif" font-size="13" lengthAdjust="spacingAndGlyphs" textLength="24" x="276.3464" y="249.1376">0..1</text><path d="M175.641,45.319 C175.641,60.741 175.641,79.959 175.641,91.854 " fill="none" style="stroke: #808080; stroke-width: 1.0;"/><polygon fill="#808080" points="175.641,32.059,171.641,38.059,175.641,44.059,179.641,38.059,175.641,32.059" style="stroke: #808080; stroke-width: 1.0;"/><text fill="#000000" font-family="sans-serif" font-size="13" lengthAdjust="spacingAndGlyphs" textLength="24" x="146.1723" y="81.1376">0..1</text></g></svg>