<?xml version="1.0" encoding="UTF-8" standalone="yes"?><svg xmlns="http://www.w3.org/2000/svg" xmlns:xlink="http://www.w3.org/1999/xlink" height="292px" style="width:549px;height:292px;" version="1.1" viewBox="0 0 549 292" width="549px"><defs><filter height="300%" id="f1" width="300%" x="-1" y="-1"><feGaussianBlur result="blurOut" stdDeviation="2.0"/><feColorMatrix in="blurOut" result="blurOut2" type="matrix" values="0 0 0 0 0 0 0 0 0 0 0 0 0 0 0 0 0 0 .4 0"/><feOffset dx="4.0" dy="4.0" in="blurOut2" result="blurOut3"/><feBlend in="SourceGraphic" in2="blurOut3" mode="normal"/></filter></defs><g><a target="_top" xlink:href="urn:x-ericsson:r2:reg-doc:*-*:*:*#AxeAlphanumericDevice?title=class%20AlphanumericDeviceM" xlink:title="urn:x-ericsson:r2:reg-doc:*-*:*:*#AxeAlphanumericDevice?title=class%20AlphanumericDeviceM"><rect fill="#C7DDF0" filter="url(#f1)" height="23.9629" style="stroke: #6DA3D9; stroke-width: 1.5;" width="133" x="131.75" y="92"/><text fill="#000000" font-family="sans-serif" font-size="12" lengthAdjust="spacingAndGlyphs" textLength="127" x="134.75" y="108.4023">AlphanumericDeviceM</text></a><a target="_top" xlink:href="urn:x-ericsson:r2:reg-doc:*-*:*:*#AxeAlphanumericDevice?title=class%20MmlSession" xlink:title="urn:x-ericsson:r2:reg-doc:*-*:*:*#AxeAlphanumericDevice?title=class%20MmlSession"><rect fill="#C7DDF0" filter="url(#f1)" height="23.9629" style="stroke: #6DA3D9; stroke-width: 1.5;" width="72" x="6" y="260"/><text fill="#000000" font-family="sans-serif" font-size="12" lengthAdjust="spacingAndGlyphs" textLength="66" x="9" y="276.4023">MmlSession</text></a><a target="_top" xlink:href="urn:x-ericsson:r2:reg-doc:*-*:*:*#AxeAlphanumericDevice?title=class%20PdsIpClient" xlink:title="urn:x-ericsson:r2:reg-doc:*-*:*:*#AxeAlphanumericDevice?title=class%20PdsIpClient"><rect fill="#C7DDF0" filter="url(#f1)" height="23.9629" style="stroke: #6DA3D9; stroke-width: 1.5;" width="70" x="113" y="260"/><text fill="#000000" font-family="sans-serif" font-size="12" lengthAdjust="spacingAndGlyphs" textLength="64" x="116" y="276.4023">PdsIpClient</text></a><a target="_top" xlink:href="urn:x-ericsson:r2:reg-doc:*-*:*:*#AxeAlphanumericDevice?title=class%20PdsIpServer" xlink:title="urn:x-ericsson:r2:reg-doc:*-*:*:*#AxeAlphanumericDevice?title=class%20PdsIpServer"><rect fill="#C7DDF0" filter="url(#f1)" height="23.9629" style="stroke: #6DA3D9; stroke-width: 1.5;" width="74" x="218" y="260"/><text fill="#000000" font-family="sans-serif" font-size="12" lengthAdjust="spacingAndGlyphs" textLength="68" x="221" y="276.4023">PdsIpServer</text></a><a target="_top" xlink:href="urn:x-ericsson:r2:reg-doc:*-*:*:*#AxeAlphanumericDevice?title=class%20PdsSubFile" xlink:title="urn:x-ericsson:r2:reg-doc:*-*:*:*#AxeAlphanumericDevice?title=class%20PdsSubFile"><rect fill="#C7DDF0" filter="url(#f1)" height="23.9629" style="stroke: #6DA3D9; stroke-width: 1.5;" width="67" x="327.75" y="260"/><text fill="#000000" font-family="sans-serif" font-size="12" lengthAdjust="spacingAndGlyphs" textLength="61" x="330.75" y="276.4023">PdsSubFile</text></a><a target="_top" xlink:href="urn:x-ericsson:r2:reg-doc:*-*:*:*#AxeAlphanumericDevice?title=class%20PdsStandByDevice" xlink:title="urn:x-ericsson:r2:reg-doc:*-*:*:*#AxeAlphanumericDevice?title=class%20PdsStandByDevice"><rect fill="#C7DDF0" filter="url(#f1)" height="23.9629" style="stroke: #6DA3D9; stroke-width: 1.5;" width="110" x="430" y="260"/><text fill="#000000" font-family="sans-serif" font-size="12" lengthAdjust="spacingAndGlyphs" textLength="104" x="433" y="276.4023">PdsStandByDevice</text></a><a target="_top" xlink:href="urn:x-ericsson:r2:reg-doc:*-*:*:*#AxeAlphanumericDevice?title=class%20MmlSessions" xlink:title="urn:x-ericsson:r2:reg-doc:*-*:*:*#AxeAlphanumericDevice?title=class%20MmlSessions"><rect fill="#C7DDF0" filter="url(#f1)" height="23.9629" style="stroke: #6DA3D9; stroke-width: 1.5;" width="78" x="53" y="176"/><text fill="#000000" font-family="sans-serif" font-size="12" lengthAdjust="spacingAndGlyphs" textLength="72" x="56" y="192.4023">MmlSessions</text></a><a target="_top" xlink:href="urn:x-ericsson:r2:reg-doc:*-*:*:*#AxeAlphanumericDevice?title=class%20PdsManager" xlink:title="urn:x-ericsson:r2:reg-doc:*-*:*:*#AxeAlphanumericDevice?title=class%20PdsManager"><rect fill="#C7DDF0" filter="url(#f1)" height="23.9629" style="stroke: #6DA3D9; stroke-width: 1.5;" width="77" x="216.75" y="176"/><text fill="#000000" font-family="sans-serif" font-size="12" lengthAdjust="spacingAndGlyphs" textLength="71" x="219.75" y="192.4023">PdsManager</text></a><a target="_top" xlink:href="urn:x-ericsson:r2:reg-doc:*-*:*:*#AxeFunctions?title=class%20SystemHandling" xlink:title="urn:x-ericsson:r2:reg-doc:*-*:*:*#AxeFunctions?title=class%20SystemHandling"><rect fill="#C7DDF0" filter="url(#f1)" height="23.9629" style="stroke: #6DA3D9; stroke-width: 1.5;" width="97" x="149.75" y="8"/><text fill="#000000" font-family="sans-serif" font-size="12" lengthAdjust="spacingAndGlyphs" textLength="91" x="152.75" y="24.4023">SystemHandling</text></a><path d="M78.3225,211.4311 C68.7419,227.1433 56.3486,247.4683 48.7961,259.8544 " fill="none" style="stroke: #808080; stroke-width: 1.0;"/><polygon fill="#808080" points="85.2568,200.0589,78.718,203.0992,79.0095,210.3045,85.5483,207.2641,85.2568,200.0589" style="stroke: #808080; stroke-width: 1.0;"/><text fill="#000000" font-family="sans-serif" font-size="13" lengthAdjust="spacingAndGlyphs" textLength="6" x="42.7573" y="249.1381">*</text><path d="M173.135,124.235 C152.384,140.288 123.529,162.61 106.408,175.854 " fill="none" style="stroke: #808080; stroke-width: 1.0;"/><polygon fill="#808080" points="183.704,116.059,176.5108,116.5662,174.2124,123.4012,181.4056,122.894,183.704,116.059" style="stroke: #808080; stroke-width: 1.0;"/><text fill="#000000" font-family="sans-serif" font-size="13" lengthAdjust="spacingAndGlyphs" textLength="8" x="100.6416" y="165.1376">1</text><path d="M213.269,126.966 C224.234,142.74 238.557,163.346 247.252,175.854 " fill="none" style="stroke: #808080; stroke-width: 1.0;"/><polygon fill="#808080" points="205.687,116.059,205.8272,123.2687,212.5363,125.9123,212.3961,118.7025,205.687,116.059" style="stroke: #808080; stroke-width: 1.0;"/><text fill="#000000" font-family="sans-serif" font-size="13" lengthAdjust="spacingAndGlyphs" textLength="8" x="233.7839" y="165.1376">1</text><path d="M255,213.3188 C255,228.7407 255,247.9588 255,259.8544 " fill="none" style="stroke: #808080; stroke-width: 1.0;"/><polygon fill="#808080" points="255,200.0589,251,206.0589,255,212.0589,259,206.0589,255,200.0589" style="stroke: #808080; stroke-width: 1.0;"/><text fill="#000000" font-family="sans-serif" font-size="13" lengthAdjust="spacingAndGlyphs" textLength="6" x="246.625" y="249.1381">*</text><path d="M230.191,208.0123 C209.224,224.081 179.906,246.5485 162.544,259.8544 " fill="none" style="stroke: #808080; stroke-width: 1.0;"/><polygon fill="#808080" points="240.57,200.0589,233.3746,200.534,231.0457,207.3587,238.2411,206.8836,240.57,200.0589" style="stroke: #808080; stroke-width: 1.0;"/><text fill="#000000" font-family="sans-serif" font-size="13" lengthAdjust="spacingAndGlyphs" textLength="6" x="159.1685" y="249.1381">*</text><path d="M279.865,208.2348 C300.616,224.2878 329.471,246.6098 346.592,259.8544 " fill="none" style="stroke: #808080; stroke-width: 1.0;"/><polygon fill="#808080" points="269.296,200.0589,271.5943,206.894,278.7875,207.4013,276.4892,200.5663,269.296,200.0589" style="stroke: #808080; stroke-width: 1.0;"/><text fill="#000000" font-family="sans-serif" font-size="13" lengthAdjust="spacingAndGlyphs" textLength="6" x="333.1783" y="249.1381">*</text><path d="M298.413,204.4777 C343.842,220.6741 414.018,245.6933 454.106,259.9857 " fill="none" style="stroke: #808080; stroke-width: 1.0;"/><polygon fill="#808080" points="286.019,200.0589,290.3272,205.8415,297.3221,204.0888,293.0138,198.3062,286.019,200.0589" style="stroke: #808080; stroke-width: 1.0;"/><text fill="#000000" font-family="sans-serif" font-size="13" lengthAdjust="spacingAndGlyphs" textLength="6" x="435.1112" y="249.3146">*</text><path d="M198,45.319 C198,60.741 198,79.959 198,91.854 " fill="none" style="stroke: #808080; stroke-width: 1.0;"/><polygon fill="#808080" points="198,32.059,194,38.059,198,44.059,202,38.059,198,32.059" style="stroke: #808080; stroke-width: 1.0;"/><text fill="#000000" font-family="sans-serif" font-size="13" lengthAdjust="spacingAndGlyphs" textLength="8" x="187.1953" y="81.1376">1</text></g></svg>