<?xml version="1.0" encoding="UTF-8" standalone="yes"?><svg xmlns="http://www.w3.org/2000/svg" xmlns:xlink="http://www.w3.org/1999/xlink" height="292px" style="width:165px;height:292px;" version="1.1" viewBox="0 0 165 292" width="165px"><defs><filter height="300%" id="f1" width="300%" x="-1" y="-1"><feGaussianBlur result="blurOut" stdDeviation="2.0"/><feColorMatrix in="blurOut" result="blurOut2" type="matrix" values="0 0 0 0 0 0 0 0 0 0 0 0 0 0 0 0 0 0 .4 0"/><feOffset dx="4.0" dy="4.0" in="blurOut2" result="blurOut3"/><feBlend in="SourceGraphic" in2="blurOut3" mode="normal"/></filter></defs><g><a target="_top" xlink:href="urn:x-ericsson:r2:reg-doc:*-*:*:*#AxeScalingM?title=class%20CrM" xlink:title="urn:x-ericsson:r2:reg-doc:*-*:*:*#AxeScalingM?title=class%20CrM"><rect fill="#C7DDF0" filter="url(#f1)" height="23.9629" style="stroke: #6DA3D9; stroke-width: 1.5;" width="29" x="119.5" y="92"/><text fill="#000000" font-family="sans-serif" font-size="12" lengthAdjust="spacingAndGlyphs" textLength="23" x="122.5" y="108.4023">CrM</text></a><a target="_top" xlink:href="urn:x-ericsson:r2:reg-doc:*-*:*:*#AxeScalingM?title=class%20ComputeResourceRole" xlink:title="urn:x-ericsson:r2:reg-doc:*-*:*:*#AxeScalingM?title=class%20ComputeResourceRole"><rect fill="#C7DDF0" filter="url(#f1)" height="23.9629" style="stroke: #6DA3D9; stroke-width: 1.5;" width="136" x="6" y="176"/><text fill="#000000" font-family="sans-serif" font-size="12" lengthAdjust="spacingAndGlyphs" textLength="130" x="9" y="192.4023">ComputeResourceRole</text></a><a target="_top" xlink:href="urn:x-ericsson:r2:reg-doc:*-*:*:*#AxeScalingM?title=class%20Role" xlink:title="urn:x-ericsson:r2:reg-doc:*-*:*:*#AxeScalingM?title=class%20Role"><rect fill="#C7DDF0" filter="url(#f1)" height="23.9629" style="stroke: #6DA3D9; stroke-width: 1.5;" width="31" x="118.5" y="260"/><text fill="#000000" font-family="sans-serif" font-size="12" lengthAdjust="spacingAndGlyphs" textLength="25" x="121.5" y="276.4023">Role</text></a><a target="_top" xlink:href="urn:x-ericsson:r2:reg-doc:*-*:*:*#ComSysM?title=class%20SysM" xlink:title="urn:x-ericsson:r2:reg-doc:*-*:*:*#ComSysM?title=class%20SysM"><rect fill="#C7DDF0" filter="url(#f1)" height="23.9629" style="stroke: #6DA3D9; stroke-width: 1.5;" width="34" x="117" y="8"/><text fill="#000000" font-family="sans-serif" font-size="12" lengthAdjust="spacingAndGlyphs" textLength="28" x="120" y="24.4023">SysM</text></a><path d="M117.928,126.966 C106.385,142.74 91.3081,163.346 82.1553,175.854 " fill="none" style="stroke: #808080; stroke-width: 1.0;"/><polygon fill="#808080" points="125.908,116.059,119.1367,118.5389,118.8216,125.7431,125.5928,123.2632,125.908,116.059" style="stroke: #808080; stroke-width: 1.0;"/><text fill="#000000" font-family="sans-serif" font-size="13" lengthAdjust="spacingAndGlyphs" textLength="6" x="78.2819" y="165.1363">*</text><path d="M146.342,128.163 C155.042,147.234 164.418,175.086 160,200 C156.103,221.9729 145.916,246.0725 139.512,259.7848 " fill="none" style="stroke: #808080; stroke-width: 1.0;"/><polygon fill="#808080" points="140.47,116.253,139.5362,123.4034,145.7774,127.0155,146.7112,119.8651,140.47,116.253" style="stroke: #808080; stroke-width: 1.0;"/><text fill="#000000" font-family="sans-serif" font-size="13" lengthAdjust="spacingAndGlyphs" textLength="6" x="134.5482" y="249.0386">*</text><path d="M134,45.319 C134,60.741 134,79.959 134,91.854 " fill="none" style="stroke: #808080; stroke-width: 1.0;"/><polygon fill="#808080" points="134,32.059,130,38.059,134,44.059,138,38.059,134,32.059" style="stroke: #808080; stroke-width: 1.0;"/><text fill="#000000" font-family="sans-serif" font-size="13" lengthAdjust="spacingAndGlyphs" textLength="8" x="124.35" y="81.1363">1</text><path d="M82.0919,200.0589 C93.5433,215.7091 114.359,244.1571 125.845,259.8544 " fill="none" style="stroke: #808080; stroke-width: 1.0;"/><text fill="#000000" font-family="sans-serif" font-size="13" lengthAdjust="spacingAndGlyphs" textLength="6" x="78.1923" y="220.5132">*</text><text fill="#000000" font-family="sans-serif" font-size="13" lengthAdjust="spacingAndGlyphs" textLength="24" x="93.5306" y="249.1369">0..1</text></g></svg>