<?xml version="1.0" encoding="UTF-8" standalone="yes"?><svg xmlns="http://www.w3.org/2000/svg" xmlns:xlink="http://www.w3.org/1999/xlink" height="292px" style="width:315px;height:292px;" version="1.1" viewBox="0 0 315 292" width="315px"><defs><filter height="300%" id="f1" width="300%" x="-1" y="-1"><feGaussianBlur result="blurOut" stdDeviation="2.0"/><feColorMatrix in="blurOut" result="blurOut2" type="matrix" values="0 0 0 0 0 0 0 0 0 0 0 0 0 0 0 0 0 0 .4 0"/><feOffset dx="4.0" dy="4.0" in="blurOut2" result="blurOut3"/><feBlend in="SourceGraphic" in2="blurOut3" mode="normal"/></filter></defs><g><a target="_top" xlink:href="urn:x-ericsson:r2:reg-doc:*-*:*:*#AxeTransportM?title=class%20TransportM" xlink:title="urn:x-ericsson:r2:reg-doc:*-*:*:*#AxeTransportM?title=class%20TransportM"><rect fill="#C7DDF0" filter="url(#f1)" height="23.9629" style="stroke: #6DA3D9; stroke-width: 1.5;" width="73" x="154" y="92"/><text fill="#000000" font-family="sans-serif" font-size="12" lengthAdjust="spacingAndGlyphs" textLength="67" x="157" y="108.4023">TransportM</text></a><a target="_top" xlink:href="urn:x-ericsson:r2:reg-doc:*-*:*:*#AxeTransportM?title=class%20ExternalNetwork" xlink:title="urn:x-ericsson:r2:reg-doc:*-*:*:*#AxeTransportM?title=class%20ExternalNetwork"><rect fill="#C7DDF0" filter="url(#f1)" height="23.9629" style="stroke: #6DA3D9; stroke-width: 1.5;" width="101" x="6" y="176"/><text fill="#000000" font-family="sans-serif" font-size="12" lengthAdjust="spacingAndGlyphs" textLength="95" x="9" y="192.4023">ExternalNetwork</text></a><a target="_top" xlink:href="urn:x-ericsson:r2:reg-doc:*-*:*:*#AxeTransportM?title=class%20Interface" xlink:title="urn:x-ericsson:r2:reg-doc:*-*:*:*#AxeTransportM?title=class%20Interface"><rect fill="#C7DDF0" filter="url(#f1)" height="23.9629" style="stroke: #6DA3D9; stroke-width: 1.5;" width="56" x="162.5" y="260"/><text fill="#000000" font-family="sans-serif" font-size="12" lengthAdjust="spacingAndGlyphs" textLength="50" x="165.5" y="276.4023">Interface</text></a><a target="_top" xlink:href="urn:x-ericsson:r2:reg-doc:*-*:*:*#AxeTransportM?title=class%20InternalNetwork" xlink:title="urn:x-ericsson:r2:reg-doc:*-*:*:*#AxeTransportM?title=class%20InternalNetwork"><rect fill="#C7DDF0" filter="url(#f1)" height="23.9629" style="stroke: #6DA3D9; stroke-width: 1.5;" width="97" x="142" y="176"/><text fill="#000000" font-family="sans-serif" font-size="12" lengthAdjust="spacingAndGlyphs" textLength="91" x="145" y="192.4023">InternalNetwork</text></a><a target="_top" xlink:href="urn:x-ericsson:r2:reg-doc:*-*:*:*#AxeTransportM?title=class%20Host" xlink:title="urn:x-ericsson:r2:reg-doc:*-*:*:*#AxeTransportM?title=class%20Host"><rect fill="#C7DDF0" filter="url(#f1)" height="23.9629" style="stroke: #6DA3D9; stroke-width: 1.5;" width="32" x="274.5" y="176"/><text fill="#000000" font-family="sans-serif" font-size="12" lengthAdjust="spacingAndGlyphs" textLength="26" x="277.5" y="192.4023">Host</text></a><a target="_top" xlink:href="urn:x-ericsson:r2:reg-doc:*-*:*:*#AxeFunctions?title=class%20SystemHandling" xlink:title="urn:x-ericsson:r2:reg-doc:*-*:*:*#AxeFunctions?title=class%20SystemHandling"><rect fill="#C7DDF0" filter="url(#f1)" height="23.9629" style="stroke: #6DA3D9; stroke-width: 1.5;" width="97" x="142" y="8"/><text fill="#000000" font-family="sans-serif" font-size="12" lengthAdjust="spacingAndGlyphs" textLength="91" x="145" y="24.4023">SystemHandling</text></a><path d="M161.229,122.912 C134.872,139.041 96.9584,162.242 74.7135,175.854 " fill="none" style="stroke: #808080; stroke-width: 1.0;"/><polygon fill="#808080" points="172.428,116.059,165.2223,115.779,162.1925,122.3227,169.3981,122.6027,172.428,116.059" style="stroke: #808080; stroke-width: 1.0;"/><text fill="#000000" font-family="sans-serif" font-size="13" lengthAdjust="spacingAndGlyphs" textLength="6" x="74.9891" y="165.1363">*</text><path d="M190.5,129.319 C190.5,144.741 190.5,163.959 190.5,175.854 " fill="none" style="stroke: #808080; stroke-width: 1.0;"/><polygon fill="#808080" points="190.5,116.059,186.5,122.059,190.5,128.059,194.5,122.059,190.5,116.059" style="stroke: #808080; stroke-width: 1.0;"/><text fill="#000000" font-family="sans-serif" font-size="13" lengthAdjust="spacingAndGlyphs" textLength="6" x="183.2625" y="165.1363">*</text><path d="M266.771,208.4582 C247.214,224.4943 220.169,246.6711 204.092,259.8544 " fill="none" style="stroke: #808080; stroke-width: 1.0;"/><polygon fill="#808080" points="277.014,200.0589,269.8381,200.7702,267.7347,207.6678,274.9107,206.9564,277.014,200.0589" style="stroke: #808080; stroke-width: 1.0;"/><text fill="#000000" font-family="sans-serif" font-size="13" lengthAdjust="spacingAndGlyphs" textLength="6" x="202.4612" y="249.1369">*</text><path d="M214.229,124.458 C233.786,140.494 260.831,162.671 276.908,175.854 " fill="none" style="stroke: #808080; stroke-width: 1.0;"/><polygon fill="#808080" points="203.986,116.059,206.089,122.9566,213.2649,123.6683,211.1619,116.7707,203.986,116.059" style="stroke: #808080; stroke-width: 1.0;"/><text fill="#000000" font-family="sans-serif" font-size="13" lengthAdjust="spacingAndGlyphs" textLength="6" x="264.0638" y="165.1363">*</text><path d="M190.5,45.319 C190.5,60.741 190.5,79.959 190.5,91.854 " fill="none" style="stroke: #808080; stroke-width: 1.0;"/><polygon fill="#808080" points="190.5,32.059,186.5,38.059,190.5,44.059,194.5,38.059,190.5,32.059" style="stroke: #808080; stroke-width: 1.0;"/><text fill="#000000" font-family="sans-serif" font-size="13" lengthAdjust="spacingAndGlyphs" textLength="24" x="161.55" y="81.1363">0..1</text><path d="M74.5718,200.0589 C98.748,214.8533 141.613,241.0839 167.898,257.1689 " fill="none" style="stroke: #808080; stroke-width: 1.0;"/><polygon fill="#808080" points="172.287,259.8544,166.6984,251.7447,168.0222,257.2445,162.5225,258.5683,172.287,259.8544" style="stroke: #808080; stroke-width: 1.0;"/><text fill="#000000" font-family="sans-serif" font-size="13" lengthAdjust="spacingAndGlyphs" textLength="6" x="157.5366" y="249.1369">*</text><path d="M190.5,200.0589 C190.5,214.1197 190.5,238.5106 190.5,254.7039 " fill="none" style="stroke: #808080; stroke-width: 1.0;"/><polygon fill="#808080" points="190.5,259.8544,194.5,250.8544,190.5,254.8544,186.5,250.8544,190.5,259.8544" style="stroke: #808080; stroke-width: 1.0;"/><text fill="#000000" font-family="sans-serif" font-size="13" lengthAdjust="spacingAndGlyphs" textLength="6" x="183.2625" y="249.1369">*</text></g></svg>