<?xml version="1.0" encoding="UTF-8" standalone="yes"?><svg xmlns="http://www.w3.org/2000/svg" xmlns:xlink="http://www.w3.org/1999/xlink" height="712px" style="width:287px;height:712px;" version="1.1" viewBox="0 0 287 712" width="287px"><defs><filter height="300%" id="f1" width="300%" x="-1" y="-1"><feGaussianBlur result="blurOut" stdDeviation="2.0"/><feColorMatrix in="blurOut" result="blurOut2" type="matrix" values="0 0 0 0 0 0 0 0 0 0 0 0 0 0 0 0 0 0 .4 0"/><feOffset dx="4.0" dy="4.0" in="blurOut2" result="blurOut3"/><feBlend in="SourceGraphic" in2="blurOut3" mode="normal"/></filter></defs><g><a target="_top" xlink:href="urn:x-ericsson:r2:reg-doc:*-*:*:*#AxeEquipment?title=class%20Apg" xlink:title="urn:x-ericsson:r2:reg-doc:*-*:*:*#AxeEquipment?title=class%20Apg"><rect fill="#C7DDF0" filter="url(#f1)" height="23.9629" style="stroke: #6DA3D9; stroke-width: 1.5;" width="29" x="113" y="680"/><text fill="#000000" font-family="sans-serif" font-size="12" lengthAdjust="spacingAndGlyphs" textLength="23" x="116" y="696.4023">Apg</text></a><a target="_top" xlink:href="urn:x-ericsson:r2:reg-doc:*-*:*:*#AxeEquipment?title=class%20EquipmentM" xlink:title="urn:x-ericsson:r2:reg-doc:*-*:*:*#AxeEquipment?title=class%20EquipmentM"><rect fill="#C7DDF0" filter="url(#f1)" height="23.9629" style="stroke: #6DA3D9; stroke-width: 1.5;" width="78" x="48.5" y="344"/><text fill="#000000" font-family="sans-serif" font-size="12" lengthAdjust="spacingAndGlyphs" textLength="72" x="51.5" y="360.4023">EquipmentM</text></a><a target="_top" xlink:href="urn:x-ericsson:r2:reg-doc:*-*:*:*#AxeEquipment?title=class%20DualSidedCp" xlink:title="urn:x-ericsson:r2:reg-doc:*-*:*:*#AxeEquipment?title=class%20DualSidedCp"><rect fill="#C7DDF0" filter="url(#f1)" height="23.9629" style="stroke: #6DA3D9; stroke-width: 1.5;" width="80" x="86.5" y="512"/><text fill="#000000" font-family="sans-serif" font-size="12" lengthAdjust="spacingAndGlyphs" textLength="74" x="89.5" y="528.4023">DualSidedCp</text></a><a target="_top" xlink:href="urn:x-ericsson:r2:reg-doc:*-*:*:*#AxeEquipment?title=class%20LogicalMgmt" xlink:title="urn:x-ericsson:r2:reg-doc:*-*:*:*#AxeEquipment?title=class%20LogicalMgmt"><rect fill="#C7DDF0" filter="url(#f1)" height="23.9629" style="stroke: #6DA3D9; stroke-width: 1.5;" width="77" x="49" y="428"/><text fill="#000000" font-family="sans-serif" font-size="12" lengthAdjust="spacingAndGlyphs" textLength="71" x="52" y="444.4023">LogicalMgmt</text></a><a target="_top" xlink:href="urn:x-ericsson:r2:reg-doc:*-*:*:*#AxeEquipment?title=class%20SwMau" xlink:title="urn:x-ericsson:r2:reg-doc:*-*:*:*#AxeEquipment?title=class%20SwMau"><rect fill="#C7DDF0" filter="url(#f1)" height="23.9629" style="stroke: #6DA3D9; stroke-width: 1.5;" width="45" x="87" y="596"/><text fill="#000000" font-family="sans-serif" font-size="12" lengthAdjust="spacingAndGlyphs" textLength="39" x="90" y="612.4023">SwMau</text></a><a target="_top" xlink:href="urn:x-ericsson:r2:reg-doc:*-*:*:*#AxeFunctions?title=class%20SystemComponentHandling" xlink:title="urn:x-ericsson:r2:reg-doc:*-*:*:*#AxeFunctions?title=class%20SystemComponentHandling"><rect fill="#C7DDF0" filter="url(#f1)" height="23.9629" style="stroke: #6DA3D9; stroke-width: 1.5;" width="163" x="6" y="260"/><text fill="#000000" font-family="sans-serif" font-size="12" lengthAdjust="spacingAndGlyphs" textLength="157" x="9" y="276.4023">SystemComponentHandling</text></a><a target="_top" xlink:href="urn:x-ericsson:r2:reg-doc:*-*:*:*#AxeFunctions?title=class%20AxeFunctions" xlink:title="urn:x-ericsson:r2:reg-doc:*-*:*:*#AxeFunctions?title=class%20AxeFunctions"><rect fill="#C7DDF0" filter="url(#f1)" height="23.9629" style="stroke: #6DA3D9; stroke-width: 1.5;" width="81" x="59" y="176"/><text fill="#000000" font-family="sans-serif" font-size="12" lengthAdjust="spacingAndGlyphs" textLength="75" x="62" y="192.4023">AxeFunctions</text></a><a target="_top" xlink:href="urn:x-ericsson:r2:reg-doc:*-*:*:*#ComTop?title=class%20SystemFunctions" xlink:title="urn:x-ericsson:r2:reg-doc:*-*:*:*#ComTop?title=class%20SystemFunctions"><rect fill="#C7DDF0" filter="url(#f1)" height="23.9629" style="stroke: #6DA3D9; stroke-width: 1.5;" width="99" x="56" y="92"/><text fill="#000000" font-family="sans-serif" font-size="12" lengthAdjust="spacingAndGlyphs" textLength="93" x="59" y="108.4023">SystemFunctions</text></a><a target="_top" xlink:href="urn:x-ericsson:r2:reg-doc:*-*:*:*#ComTop?title=class%20ManagedElement" xlink:title="urn:x-ericsson:r2:reg-doc:*-*:*:*#ComTop?title=class%20ManagedElement"><rect fill="#C7DDF0" filter="url(#f1)" height="23.9629" style="stroke: #6DA3D9; stroke-width: 1.5;" width="105" x="106" y="8"/><text fill="#000000" font-family="sans-serif" font-size="12" lengthAdjust="spacingAndGlyphs" textLength="99" x="109" y="24.4023">ManagedElement</text></a><a target="_top" xlink:href="urn:x-ericsson:r2:reg-doc:*-*:*:*#AxeComputeResource?title=class%20Equipment" xlink:title="urn:x-ericsson:r2:reg-doc:*-*:*:*#AxeComputeResource?title=class%20Equipment"><rect fill="#C7DDF0" filter="url(#f1)" height="23.9629" style="stroke: #6DA3D9; stroke-width: 1.5;" width="68" x="181.5" y="176"/><text fill="#000000" font-family="sans-serif" font-size="12" lengthAdjust="spacingAndGlyphs" textLength="62" x="184.5" y="192.4023">Equipment</text></a><a target="_top" xlink:href="urn:x-ericsson:r2:reg-doc:*-*:*:*#AxeComputeResource?title=class%20ComputeResource" xlink:title="urn:x-ericsson:r2:reg-doc:*-*:*:*#AxeComputeResource?title=class%20ComputeResource"><rect fill="#C7DDF0" filter="url(#f1)" height="23.9629" style="stroke: #6DA3D9; stroke-width: 1.5;" width="111" x="167" y="596"/><text fill="#000000" font-family="sans-serif" font-size="12" lengthAdjust="spacingAndGlyphs" textLength="105" x="170" y="612.4023">ComputeResource</text></a><path d="M87.5,381.319 C87.5,396.741 87.5,415.959 87.5,427.854 " fill="none" style="stroke: #808080; stroke-width: 1.0;"/><polygon fill="#808080" points="87.5,368.059,83.5,374.059,87.5,380.059,91.5,374.059,87.5,368.059" style="stroke: #808080; stroke-width: 1.0;"/><text fill="#000000" font-family="sans-serif" font-size="13" lengthAdjust="spacingAndGlyphs" textLength="8" x="77.85" y="417.1363">1</text><path d="M78.6415,464.887 C67.0347,500 50.2864,567.107 69.5,620 C78.4666,644.684 99.9691,667.0437 114.123,679.8209 " fill="none" style="stroke: #808080; stroke-width: 1.0;"/><polygon fill="#808080" points="83.0386,452.317,77.2817,456.6596,79.076,463.6439,84.8329,459.3013,83.0386,452.317" style="stroke: #808080; stroke-width: 1.0;"/><text fill="#000000" font-family="sans-serif" font-size="13" lengthAdjust="spacingAndGlyphs" textLength="8" x="98.955" y="669.0895">1</text><path d="M98.391,463.899 C105.8324,479.545 115.366,499.591 121.199,511.854 " fill="none" style="stroke: #808080; stroke-width: 1.0;"/><polygon fill="#808080" points="92.7597,452.059,91.7248,459.1955,97.9143,462.8955,98.9492,455.7591,92.7597,452.059" style="stroke: #808080; stroke-width: 1.0;"/><text fill="#000000" font-family="sans-serif" font-size="13" lengthAdjust="spacingAndGlyphs" textLength="24" x="90.0625" y="501.1363">0..2</text><path d="M121.557,548.843 C118.343,564.344 114.302,583.836 111.811,595.854 " fill="none" style="stroke: #808080; stroke-width: 1.0;"/><polygon fill="#808080" points="124.207,536.059,119.0724,541.1222,121.7712,547.8092,126.9059,542.746,124.207,536.059" style="stroke: #808080; stroke-width: 1.0;"/><text fill="#000000" font-family="sans-serif" font-size="13" lengthAdjust="spacingAndGlyphs" textLength="24" x="83.8139" y="585.1363">0..1</text><path d="M87.5,297.319 C87.5,312.741 87.5,331.959 87.5,343.854 " fill="none" style="stroke: #808080; stroke-width: 1.0;"/><polygon fill="#808080" points="87.5,284.059,83.5,290.059,87.5,296.059,91.5,290.059,87.5,284.059" style="stroke: #808080; stroke-width: 1.0;"/><text fill="#000000" font-family="sans-serif" font-size="13" lengthAdjust="spacingAndGlyphs" textLength="8" x="77.85" y="333.1363">1</text><path d="M95.9412,213.319 C93.6843,228.741 90.8719,247.959 89.1311,259.854 " fill="none" style="stroke: #808080; stroke-width: 1.0;"/><polygon fill="#808080" points="97.8816,200.059,93.0548,205.4164,96.1436,211.9325,100.9704,206.5751,97.8816,200.059" style="stroke: #808080; stroke-width: 1.0;"/><text fill="#000000" font-family="sans-serif" font-size="13" lengthAdjust="spacingAndGlyphs" textLength="8" x="80.1539" y="249.1363">1</text><path d="M103.7206,129.319 C102.5921,144.741 101.1859,163.959 100.3155,175.854 " fill="none" style="stroke: #808080; stroke-width: 1.0;"/><polygon fill="#808080" points="104.6908,116.059,100.2637,121.7511,103.8152,128.027,108.2423,122.3349,104.6908,116.059" style="stroke: #808080; stroke-width: 1.0;"/><text fill="#000000" font-family="sans-serif" font-size="13" lengthAdjust="spacingAndGlyphs" textLength="8" x="91.0019" y="165.1363">1</text><path d="M144.002,43.431 C133.846,59.143 120.71,79.468 112.704,91.854 " fill="none" style="stroke: #808080; stroke-width: 1.0;"/><polygon fill="#808080" points="151.352,32.059,144.7357,34.9268,144.8381,42.1371,151.4544,39.2694,151.352,32.059" style="stroke: #808080; stroke-width: 1.0;"/><text fill="#000000" font-family="sans-serif" font-size="13" lengthAdjust="spacingAndGlyphs" textLength="8" x="106.0254" y="81.1363">1</text><path d="M217.181,213.522 C219.252,245.901 222.5,304.699 222.5,355 C222.5,355 222.5,355 222.5,441 C222.5,499.215 222.5,568.914 222.5,595.728 " fill="none" style="stroke: #808080; stroke-width: 1.0;"/><polygon fill="#808080" points="216.303,200.265,212.708,206.5161,217.0955,212.2388,220.6905,205.9877,216.303,200.265" style="stroke: #808080; stroke-width: 1.0;"/><text fill="#000000" font-family="sans-serif" font-size="13" lengthAdjust="spacingAndGlyphs" textLength="6" x="215.3188" y="585.3275">*</text><path d="M166.671,44.797 C179.168,81.19 202.538,149.252 211.688,175.899 " fill="none" style="stroke: #808080; stroke-width: 1.0;"/><polygon fill="#808080" points="162.328,32.149,160.4938,39.1229,166.2258,43.4983,168.06,36.5244,162.328,32.149" style="stroke: #808080; stroke-width: 1.0;"/><text fill="#000000" font-family="sans-serif" font-size="13" lengthAdjust="spacingAndGlyphs" textLength="24" x="181.1656" y="165.1999">0..1</text><path d="M205.654,623.541 C186.995,639.6466 157.32,665.2608 140.413,679.8544 " fill="none" style="stroke: #808080; stroke-width: 1.0;"/><polygon fill="#808080" points="209.688,620.0589,200.2614,622.9117,205.903,623.326,205.4888,628.9677,209.688,620.0589" style="stroke: #808080; stroke-width: 1.0;"/><text fill="#000000" font-family="sans-serif" font-size="13" lengthAdjust="spacingAndGlyphs" textLength="8" x="194.753" y="640.5132">2</text><path d="M139.447,536.059 C156.481,550.609 186.465,576.22 205.364,592.363 " fill="none" style="stroke: #808080; stroke-width: 1.0;"/><polygon fill="#808080" points="209.452,595.854,205.2051,586.9679,205.6496,592.6072,200.0102,593.0517,209.452,595.854" style="stroke: #808080; stroke-width: 1.0;"/><text fill="#000000" font-family="sans-serif" font-size="13" lengthAdjust="spacingAndGlyphs" textLength="8" x="194.4197" y="585.1363">2</text></g></svg>