<?xml version="1.0" encoding="UTF-8" standalone="yes"?><svg xmlns="http://www.w3.org/2000/svg" xmlns:xlink="http://www.w3.org/1999/xlink" height="796px" style="width:475px;height:796px;" version="1.1" viewBox="0 0 475 796" width="475px"><defs><filter height="300%" id="f1" width="300%" x="-1" y="-1"><feGaussianBlur result="blurOut" stdDeviation="2.0"/><feColorMatrix in="blurOut" result="blurOut2" type="matrix" values="0 0 0 0 0 0 0 0 0 0 0 0 0 0 0 0 0 0 .4 0"/><feOffset dx="4.0" dy="4.0" in="blurOut2" result="blurOut3"/><feBlend in="SourceGraphic" in2="blurOut3" mode="normal"/></filter></defs><g><a target="_top" xlink:href="urn:x-ericsson:r2:reg-doc:*-*:*:*#AxeEquipment?title=class%20Apg" xlink:title="urn:x-ericsson:r2:reg-doc:*-*:*:*#AxeEquipment?title=class%20Apg"><rect fill="#C7DDF0" filter="url(#f1)" height="23.9629" style="stroke: #6DA3D9; stroke-width: 1.5;" width="29" x="58.9006" y="764"/><text fill="#000000" font-family="sans-serif" font-size="12" lengthAdjust="spacingAndGlyphs" textLength="23" x="61.9006" y="780.4023">Apg</text></a><a target="_top" xlink:href="urn:x-ericsson:r2:reg-doc:*-*:*:*#AxeEquipment?title=class%20EquipmentM" xlink:title="urn:x-ericsson:r2:reg-doc:*-*:*:*#AxeEquipment?title=class%20EquipmentM"><rect fill="#C7DDF0" filter="url(#f1)" height="23.9629" style="stroke: #6DA3D9; stroke-width: 1.5;" width="78" x="97.4006" y="344"/><text fill="#000000" font-family="sans-serif" font-size="12" lengthAdjust="spacingAndGlyphs" textLength="72" x="100.4006" y="360.4023">EquipmentM</text></a><a target="_top" xlink:href="urn:x-ericsson:r2:reg-doc:*-*:*:*#AxeEquipment?title=class%20DualSidedCp" xlink:title="urn:x-ericsson:r2:reg-doc:*-*:*:*#AxeEquipment?title=class%20DualSidedCp"><rect fill="#C7DDF0" filter="url(#f1)" height="23.9629" style="stroke: #6DA3D9; stroke-width: 1.5;" width="80" x="62.4006" y="512"/><text fill="#000000" font-family="sans-serif" font-size="12" lengthAdjust="spacingAndGlyphs" textLength="74" x="65.4006" y="528.4023">DualSidedCp</text></a><a target="_top" xlink:href="urn:x-ericsson:r2:reg-doc:*-*:*:*#AxeEquipment?title=class%20CpCluster" xlink:title="urn:x-ericsson:r2:reg-doc:*-*:*:*#AxeEquipment?title=class%20CpCluster"><rect fill="#C7DDF0" filter="url(#f1)" height="23.9629" style="stroke: #6DA3D9; stroke-width: 1.5;" width="62" x="177.401" y="512"/><text fill="#000000" font-family="sans-serif" font-size="12" lengthAdjust="spacingAndGlyphs" textLength="56" x="180.401" y="528.4023">CpCluster</text></a><a target="_top" xlink:href="urn:x-ericsson:r2:reg-doc:*-*:*:*#AxeEquipment?title=class%20LogicalMgmt" xlink:title="urn:x-ericsson:r2:reg-doc:*-*:*:*#AxeEquipment?title=class%20LogicalMgmt"><rect fill="#C7DDF0" filter="url(#f1)" height="23.9629" style="stroke: #6DA3D9; stroke-width: 1.5;" width="77" x="90.9006" y="428"/><text fill="#000000" font-family="sans-serif" font-size="12" lengthAdjust="spacingAndGlyphs" textLength="71" x="93.9006" y="444.4023">LogicalMgmt</text></a><a target="_top" xlink:href="urn:x-ericsson:r2:reg-doc:*-*:*:*#AxeEquipment?title=class%20SwMau" xlink:title="urn:x-ericsson:r2:reg-doc:*-*:*:*#AxeEquipment?title=class%20SwMau"><rect fill="#C7DDF0" filter="url(#f1)" height="23.9629" style="stroke: #6DA3D9; stroke-width: 1.5;" width="45" x="25.9006" y="596"/><text fill="#000000" font-family="sans-serif" font-size="12" lengthAdjust="spacingAndGlyphs" textLength="39" x="28.9006" y="612.4023">SwMau</text></a><a target="_top" xlink:href="urn:x-ericsson:r2:reg-doc:*-*:*:*#AxeEquipment?title=class%20ClusterCp" xlink:title="urn:x-ericsson:r2:reg-doc:*-*:*:*#AxeEquipment?title=class%20ClusterCp"><rect fill="#C7DDF0" filter="url(#f1)" height="23.9629" style="stroke: #6DA3D9; stroke-width: 1.5;" width="62" x="177.401" y="596"/><text fill="#000000" font-family="sans-serif" font-size="12" lengthAdjust="spacingAndGlyphs" textLength="56" x="180.401" y="612.4023">ClusterCp</text></a><a target="_top" xlink:href="urn:x-ericsson:r2:reg-doc:*-*:*:*#AxeEquipment?title=class%20OmProfile" xlink:title="urn:x-ericsson:r2:reg-doc:*-*:*:*#AxeEquipment?title=class%20OmProfile"><rect fill="#C7DDF0" filter="url(#f1)" height="23.9629" style="stroke: #6DA3D9; stroke-width: 1.5;" width="62" x="404.401" y="680"/><text fill="#000000" font-family="sans-serif" font-size="12" lengthAdjust="spacingAndGlyphs" textLength="56" x="407.401" y="696.4023">OmProfile</text></a><a target="_top" xlink:href="urn:x-ericsson:r2:reg-doc:*-*:*:*#AxeEquipment?title=class%20CcFile" xlink:title="urn:x-ericsson:r2:reg-doc:*-*:*:*#AxeEquipment?title=class%20CcFile"><rect fill="#C7DDF0" filter="url(#f1)" height="23.9629" style="stroke: #6DA3D9; stroke-width: 1.5;" width="39" x="415.901" y="764"/><text fill="#000000" font-family="sans-serif" font-size="12" lengthAdjust="spacingAndGlyphs" textLength="33" x="418.901" y="780.4023">CcFile</text></a><a target="_top" xlink:href="urn:x-ericsson:r2:reg-doc:*-*:*:*#AxeEquipment?title=class%20OmProfileManager" xlink:title="urn:x-ericsson:r2:reg-doc:*-*:*:*#AxeEquipment?title=class%20OmProfileManager"><rect fill="#C7DDF0" filter="url(#f1)" height="23.9629" style="stroke: #6DA3D9; stroke-width: 1.5;" width="112" x="345.401" y="596"/><text fill="#000000" font-family="sans-serif" font-size="12" lengthAdjust="spacingAndGlyphs" textLength="106" x="348.401" y="612.4023">OmProfileManager</text></a><a target="_top" xlink:href="urn:x-ericsson:r2:reg-doc:*-*:*:*#AxeEquipment?title=class%20CcFileManager" xlink:title="urn:x-ericsson:r2:reg-doc:*-*:*:*#AxeEquipment?title=class%20CcFileManager"><rect fill="#C7DDF0" filter="url(#f1)" height="23.9629" style="stroke: #6DA3D9; stroke-width: 1.5;" width="89" x="280.901" y="680"/><text fill="#000000" font-family="sans-serif" font-size="12" lengthAdjust="spacingAndGlyphs" textLength="83" x="283.901" y="696.4023">CcFileManager</text></a><a target="_top" xlink:href="urn:x-ericsson:r2:reg-doc:*-*:*:*#AxeEquipment?title=class%20CandidateCcFile" xlink:title="urn:x-ericsson:r2:reg-doc:*-*:*:*#AxeEquipment?title=class%20CandidateCcFile"><rect fill="#C7DDF0" filter="url(#f1)" height="23.9629" style="stroke: #6DA3D9; stroke-width: 1.5;" width="98" x="276.401" y="764"/><text fill="#000000" font-family="sans-serif" font-size="12" lengthAdjust="spacingAndGlyphs" textLength="92" x="279.401" y="780.4023">CandidateCcFile</text></a><a target="_top" xlink:href="urn:x-ericsson:r2:reg-doc:*-*:*:*#AxeFunctions?title=class%20SystemComponentHandling" xlink:title="urn:x-ericsson:r2:reg-doc:*-*:*:*#AxeFunctions?title=class%20SystemComponentHandling"><rect fill="#C7DDF0" filter="url(#f1)" height="23.9629" style="stroke: #6DA3D9; stroke-width: 1.5;" width="163" x="68.9006" y="260"/><text fill="#000000" font-family="sans-serif" font-size="12" lengthAdjust="spacingAndGlyphs" textLength="157" x="71.9006" y="276.4023">SystemComponentHandling</text></a><a target="_top" xlink:href="urn:x-ericsson:r2:reg-doc:*-*:*:*#AxeFunctions?title=class%20AxeFunctions" xlink:title="urn:x-ericsson:r2:reg-doc:*-*:*:*#AxeFunctions?title=class%20AxeFunctions"><rect fill="#C7DDF0" filter="url(#f1)" height="23.9629" style="stroke: #6DA3D9; stroke-width: 1.5;" width="81" x="125.901" y="176"/><text fill="#000000" font-family="sans-serif" font-size="12" lengthAdjust="spacingAndGlyphs" textLength="75" x="128.901" y="192.4023">AxeFunctions</text></a><a target="_top" xlink:href="urn:x-ericsson:r2:reg-doc:*-*:*:*#ComTop?title=class%20SystemFunctions" xlink:title="urn:x-ericsson:r2:reg-doc:*-*:*:*#ComTop?title=class%20SystemFunctions"><rect fill="#C7DDF0" filter="url(#f1)" height="23.9629" style="stroke: #6DA3D9; stroke-width: 1.5;" width="99" x="123.901" y="92"/><text fill="#000000" font-family="sans-serif" font-size="12" lengthAdjust="spacingAndGlyphs" textLength="93" x="126.901" y="108.4023">SystemFunctions</text></a><a target="_top" xlink:href="urn:x-ericsson:r2:reg-doc:*-*:*:*#ComTop?title=class%20ManagedElement" xlink:title="urn:x-ericsson:r2:reg-doc:*-*:*:*#ComTop?title=class%20ManagedElement"><rect fill="#C7DDF0" filter="url(#f1)" height="23.9629" style="stroke: #6DA3D9; stroke-width: 1.5;" width="105" x="173.901" y="8"/><text fill="#000000" font-family="sans-serif" font-size="12" lengthAdjust="spacingAndGlyphs" textLength="99" x="176.901" y="24.4023">ManagedElement</text></a><a target="_top" xlink:href="urn:x-ericsson:r2:reg-doc:*-*:*:*#AxeComputeResource?title=class%20Equipment" xlink:title="urn:x-ericsson:r2:reg-doc:*-*:*:*#AxeComputeResource?title=class%20Equipment"><rect fill="#C7DDF0" filter="url(#f1)" height="23.9629" style="stroke: #6DA3D9; stroke-width: 1.5;" width="68" x="250.401" y="176"/><text fill="#000000" font-family="sans-serif" font-size="12" lengthAdjust="spacingAndGlyphs" textLength="62" x="253.401" y="192.4023">Equipment</text></a><a target="_top" xlink:href="urn:x-ericsson:r2:reg-doc:*-*:*:*#AxeComputeResource?title=class%20ComputeResource" xlink:title="urn:x-ericsson:r2:reg-doc:*-*:*:*#AxeComputeResource?title=class%20ComputeResource"><rect fill="#C7DDF0" filter="url(#f1)" height="23.9629" style="stroke: #6DA3D9; stroke-width: 1.5;" width="111" x="118.901" y="680"/><text fill="#000000" font-family="sans-serif" font-size="12" lengthAdjust="spacingAndGlyphs" textLength="105" x="121.901" y="696.4023">ComputeResource</text></a><path d="M134.325,381.319 C133.008,396.741 131.368,415.959 130.352,427.854 " fill="none" style="stroke: #808080; stroke-width: 1.0;"/><polygon fill="#808080" points="135.457,368.059,130.9612,373.697,134.4363,380.0155,138.9322,374.3775,135.457,368.059" style="stroke: #808080; stroke-width: 1.0;"/><text fill="#000000" font-family="sans-serif" font-size="13" lengthAdjust="spacingAndGlyphs" textLength="8" x="121.0945" y="417.1363">1</text><path d="M100.8405,459.586 C82.7484,472.525 59.9199,491.151 44.4006,512 C20.1474,544.582 16.5674,556.212 8.4006,596 C-5.094,661.745 43.685,735.7776 64.4609,763.6138 " fill="none" style="stroke: #808080; stroke-width: 1.0;"/><polygon fill="#808080" points="111.653,452.118,104.4429,452.2365,101.7792,458.9376,108.9893,458.8191,111.653,452.118" style="stroke: #808080; stroke-width: 1.0;"/><text fill="#000000" font-family="sans-serif" font-size="13" lengthAdjust="spacingAndGlyphs" textLength="8" x="51.3659" y="753.1684">1</text><path d="M121.55,464.843 C116.446,480.344 110.028,499.836 106.071,511.854 " fill="none" style="stroke: #808080; stroke-width: 1.0;"/><polygon fill="#808080" points="125.759,452.059,120.0831,456.5069,122.0058,463.457,127.6817,459.009,125.759,452.059" style="stroke: #808080; stroke-width: 1.0;"/><text fill="#000000" font-family="sans-serif" font-size="13" lengthAdjust="spacingAndGlyphs" textLength="24" x="78.6343" y="501.1363">0..2</text><path d="M149.234,461.587 C164.585,477.521 185.257,498.978 197.663,511.854 " fill="none" style="stroke: #808080; stroke-width: 1.0;"/><polygon fill="#808080" points="140.055,452.059,141.3376,459.1551,148.3812,460.7004,147.0986,453.6043,140.055,452.059" style="stroke: #808080; stroke-width: 1.0;"/><text fill="#000000" font-family="sans-serif" font-size="13" lengthAdjust="spacingAndGlyphs" textLength="8" x="183.5836" y="501.1363">1</text><path d="M87.9354,546.966 C77.5474,562.74 63.9779,583.346 55.7404,595.854 " fill="none" style="stroke: #808080; stroke-width: 1.0;"/><polygon fill="#808080" points="95.118,536.059,88.4774,538.87,88.5181,546.081,95.1587,543.27,95.118,536.059" style="stroke: #808080; stroke-width: 1.0;"/><text fill="#000000" font-family="sans-serif" font-size="13" lengthAdjust="spacingAndGlyphs" textLength="24" x="29.8181" y="585.1363">0..1</text><path d="M208.401,549.319 C208.401,564.741 208.401,583.959 208.401,595.854 " fill="none" style="stroke: #808080; stroke-width: 1.0;"/><polygon fill="#808080" points="208.401,536.059,204.401,542.059,208.401,548.059,212.401,542.059,208.401,536.059" style="stroke: #808080; stroke-width: 1.0;"/><text fill="#000000" font-family="sans-serif" font-size="13" lengthAdjust="spacingAndGlyphs" textLength="32" x="169.801" y="585.1363">0..64</text><path d="M146.249,297.319 C143.616,312.741 140.335,331.959 138.304,343.854 " fill="none" style="stroke: #808080; stroke-width: 1.0;"/><polygon fill="#808080" points="148.513,284.059,143.5606,289.3006,146.4943,295.888,151.4466,290.6464,148.513,284.059" style="stroke: #808080; stroke-width: 1.0;"/><text fill="#000000" font-family="sans-serif" font-size="13" lengthAdjust="spacingAndGlyphs" textLength="8" x="129.4392" y="333.1363">1</text><path d="M161.748,212.843 C158.724,228.344 154.92,247.836 152.575,259.854 " fill="none" style="stroke: #808080; stroke-width: 1.0;"/><polygon fill="#808080" points="164.243,200.059,159.1679,205.1818,161.9447,211.8368,167.0198,206.714,164.243,200.059" style="stroke: #808080; stroke-width: 1.0;"/><text fill="#000000" font-family="sans-serif" font-size="13" lengthAdjust="spacingAndGlyphs" textLength="8" x="143.8219" y="249.1363">1</text><path d="M171.325,129.319 C170.008,144.741 168.368,163.959 167.352,175.854 " fill="none" style="stroke: #808080; stroke-width: 1.0;"/><polygon fill="#808080" points="172.457,116.059,167.9612,121.697,171.4363,128.0155,175.9322,122.3775,172.457,116.059" style="stroke: #808080; stroke-width: 1.0;"/><text fill="#000000" font-family="sans-serif" font-size="13" lengthAdjust="spacingAndGlyphs" textLength="8" x="158.0943" y="165.1363">1</text><path d="M211.903,43.431 C201.747,59.143 188.61,79.468 180.604,91.854 " fill="none" style="stroke: #808080; stroke-width: 1.0;"/><polygon fill="#808080" points="219.253,32.059,212.6365,34.9264,212.7385,42.1367,219.355,39.2694,219.253,32.059" style="stroke: #808080; stroke-width: 1.0;"/><text fill="#000000" font-family="sans-serif" font-size="13" lengthAdjust="spacingAndGlyphs" textLength="8" x="173.9252" y="81.1363">1</text><path d="M246.558,541.212 C284.71,557.422 342.342,581.908 375.477,595.986 " fill="none" style="stroke: #808080; stroke-width: 1.0;"/><polygon fill="#808080" points="234.429,536.059,238.3867,542.087,245.4731,540.7523,241.5155,534.7243,234.429,536.059" style="stroke: #808080; stroke-width: 1.0;"/><text fill="#000000" font-family="sans-serif" font-size="13" lengthAdjust="spacingAndGlyphs" textLength="8" x="355.1333" y="585.3228">1</text><path d="M411.091,632.37 C417.549,647.945 425.745,667.714 430.779,679.854 " fill="none" style="stroke: #808080; stroke-width: 1.0;"/><polygon fill="#808080" points="405.986,620.059,404.5888,627.1335,410.5817,631.1441,411.9789,624.0696,405.986,620.059" style="stroke: #808080; stroke-width: 1.0;"/><text fill="#000000" font-family="sans-serif" font-size="13" lengthAdjust="spacingAndGlyphs" textLength="6" x="421.6349" y="669.1363">*</text><path d="M435.401,717.3188 C435.401,732.7407 435.401,751.9588 435.401,763.8544 " fill="none" style="stroke: #808080; stroke-width: 1.0;"/><polygon fill="#808080" points="435.401,704.0589,431.401,710.0589,435.401,716.0589,439.401,710.0589,435.401,704.0589" style="stroke: #808080; stroke-width: 1.0;"/><text fill="#000000" font-family="sans-serif" font-size="13" lengthAdjust="spacingAndGlyphs" textLength="24" x="406.451" y="753.1369">0..3</text><path d="M381.897,630.044 C367.174,645.929 347.552,667.1 335.731,679.854 " fill="none" style="stroke: #808080; stroke-width: 1.0;"/><polygon fill="#808080" points="391.151,620.059,384.1388,621.7409,382.9943,628.8606,390.0065,627.1787,391.151,620.059" style="stroke: #808080; stroke-width: 1.0;"/><text fill="#000000" font-family="sans-serif" font-size="13" lengthAdjust="spacingAndGlyphs" textLength="24" x="311.0421" y="669.1363">0..1</text><path d="M325.401,717.3188 C325.401,732.7407 325.401,751.9588 325.401,763.8544 " fill="none" style="stroke: #808080; stroke-width: 1.0;"/><polygon fill="#808080" points="325.401,704.0589,321.401,710.0589,325.401,716.0589,329.401,710.0589,325.401,704.0589" style="stroke: #808080; stroke-width: 1.0;"/><text fill="#000000" font-family="sans-serif" font-size="13" lengthAdjust="spacingAndGlyphs" textLength="6" x="318.1635" y="753.1369">*</text><path d="M286.322,213.518 C288.689,245.892 292.401,304.686 292.401,355 C292.401,355 292.401,355 292.401,525 C292.401,570.152 282.256,582.983 256.401,620 C238.716,645.318 210.037,667.336 191.708,679.891 " fill="none" style="stroke: #808080; stroke-width: 1.0;"/><polygon fill="#808080" points="285.318,200.262,281.7824,206.5469,286.2239,212.2278,289.7596,205.9429,285.318,200.262" style="stroke: #808080; stroke-width: 1.0;"/><text fill="#000000" font-family="sans-serif" font-size="13" lengthAdjust="spacingAndGlyphs" textLength="6" x="191.6096" y="669.1886">*</text><path d="M234.715,44.797 C247.431,81.19 271.212,149.252 280.522,175.899 " fill="none" style="stroke: #808080; stroke-width: 1.0;"/><polygon fill="#808080" points="230.296,32.149,228.4992,39.1326,234.2545,43.4773,236.0514,36.4936,230.296,32.149" style="stroke: #808080; stroke-width: 1.0;"/><text fill="#000000" font-family="sans-serif" font-size="13" lengthAdjust="spacingAndGlyphs" textLength="24" x="249.9719" y="165.1999">0..1</text><path d="M156.74,707.3385 C136.918,723.4312 105.1793,749.1995 87.1287,763.8544 " fill="none" style="stroke: #808080; stroke-width: 1.0;"/><polygon fill="#808080" points="160.779,704.0589,151.2706,706.626,156.8972,707.2103,156.3128,712.8369,160.779,704.0589" style="stroke: #808080; stroke-width: 1.0;"/><text fill="#000000" font-family="sans-serif" font-size="13" lengthAdjust="spacingAndGlyphs" textLength="8" x="145.5099" y="724.5132">2</text><path d="M107.237,536.149 C119.687,564.854 152.883,641.389 167.419,674.904 " fill="none" style="stroke: #808080; stroke-width: 1.0;"/><polygon fill="#808080" points="169.586,679.899,169.6763,670.0506,167.5973,675.3115,162.3363,673.2325,169.586,679.899" style="stroke: #808080; stroke-width: 1.0;"/><text fill="#000000" font-family="sans-serif" font-size="13" lengthAdjust="spacingAndGlyphs" textLength="8" x="157.9498" y="669.1999">2</text><path d="M203.815,620.059 C197.934,634.242 187.696,658.936 180.983,675.124 " fill="none" style="stroke: #808080; stroke-width: 1.0;"/><polygon fill="#808080" points="179.022,679.854,186.165,673.0733,180.9377,675.2355,178.7754,670.0082,179.022,679.854" style="stroke: #808080; stroke-width: 1.0;"/><text fill="#000000" font-family="sans-serif" font-size="13" lengthAdjust="spacingAndGlyphs" textLength="8" x="171.2782" y="669.1363">1</text></g></svg>