<?xml version="1.0" encoding="UTF-8" standalone="yes"?><svg xmlns="http://www.w3.org/2000/svg" xmlns:xlink="http://www.w3.org/1999/xlink" height="292px" style="width:78px;height:292px;" version="1.1" viewBox="0 0 78 292" width="78px"><defs><filter height="300%" id="f1" width="300%" x="-1" y="-1"><feGaussianBlur result="blurOut" stdDeviation="2.0"/><feColorMatrix in="blurOut" result="blurOut2" type="matrix" values="0 0 0 0 0 0 0 0 0 0 0 0 0 0 0 0 0 0 .4 0"/><feOffset dx="4.0" dy="4.0" in="blurOut2" result="blurOut3"/><feBlend in="SourceGraphic" in2="blurOut3" mode="normal"/></filter></defs><g><a target="_top" xlink:href="urn:x-ericsson:r2:reg-doc:*-*:*:*#LdeTimeM?title=class%20TimeM" xlink:title="urn:x-ericsson:r2:reg-doc:*-*:*:*#LdeTimeM?title=class%20TimeM"><rect fill="#C7DDF0" filter="url(#f1)" height="23.9629" style="stroke: #6DA3D9; stroke-width: 1.5;" width="45" x="15" y="92"/><text fill="#000000" font-family="sans-serif" font-size="12" lengthAdjust="spacingAndGlyphs" textLength="39" x="18" y="108.4023">TimeM</text></a><a target="_top" xlink:href="urn:x-ericsson:r2:reg-doc:*-*:*:*#LdeTimeM?title=class%20NtpServer" xlink:title="urn:x-ericsson:r2:reg-doc:*-*:*:*#LdeTimeM?title=class%20NtpServer"><rect fill="#C7DDF0" filter="url(#f1)" height="23.9629" style="stroke: #6DA3D9; stroke-width: 1.5;" width="63" x="6" y="260"/><text fill="#000000" font-family="sans-serif" font-size="12" lengthAdjust="spacingAndGlyphs" textLength="57" x="9" y="276.4023">NtpServer</text></a><a target="_top" xlink:href="urn:x-ericsson:r2:reg-doc:*-*:*:*#LdeTimeM?title=class%20Ntp" xlink:title="urn:x-ericsson:r2:reg-doc:*-*:*:*#LdeTimeM?title=class%20Ntp"><rect fill="#C7DDF0" filter="url(#f1)" height="23.9629" style="stroke: #6DA3D9; stroke-width: 1.5;" width="27" x="24" y="176"/><text fill="#000000" font-family="sans-serif" font-size="12" lengthAdjust="spacingAndGlyphs" textLength="21" x="27" y="192.4023">Ntp</text></a><a target="_top" xlink:href="urn:x-ericsson:r2:reg-doc:*-*:*:*#ComSysM?title=class%20SysM" xlink:title="urn:x-ericsson:r2:reg-doc:*-*:*:*#ComSysM?title=class%20SysM"><rect fill="#C7DDF0" filter="url(#f1)" height="23.9629" style="stroke: #6DA3D9; stroke-width: 1.5;" width="34" x="20.5" y="8"/><text fill="#000000" font-family="sans-serif" font-size="12" lengthAdjust="spacingAndGlyphs" textLength="28" x="23.5" y="24.4023">SysM</text></a><path d="M37.5,129.319 C37.5,144.741 37.5,163.959 37.5,175.854 " fill="none" style="stroke: #808080; stroke-width: 1.0;"/><polygon fill="#808080" points="37.5,116.059,33.5,122.059,37.5,128.059,41.5,122.059,37.5,116.059" style="stroke: #808080; stroke-width: 1.0;"/><text fill="#000000" font-family="sans-serif" font-size="13" lengthAdjust="spacingAndGlyphs" textLength="8" x="27.85" y="165.1363">1</text><path d="M37.5,213.3188 C37.5,228.7407 37.5,247.9588 37.5,259.8544 " fill="none" style="stroke: #808080; stroke-width: 1.0;"/><polygon fill="#808080" points="37.5,200.0589,33.5,206.0589,37.5,212.0589,41.5,206.0589,37.5,200.0589" style="stroke: #808080; stroke-width: 1.0;"/><text fill="#000000" font-family="sans-serif" font-size="13" lengthAdjust="spacingAndGlyphs" textLength="6" x="30.2625" y="249.1369">*</text><path d="M37.5,45.319 C37.5,60.741 37.5,79.959 37.5,91.854 " fill="none" style="stroke: #808080; stroke-width: 1.0;"/><polygon fill="#808080" points="37.5,32.059,33.5,38.059,37.5,44.059,41.5,38.059,37.5,32.059" style="stroke: #808080; stroke-width: 1.0;"/><text fill="#000000" font-family="sans-serif" font-size="13" lengthAdjust="spacingAndGlyphs" textLength="8" x="27.85" y="81.1363">1</text></g></svg>